<mxfile host="65bd71144e">
    <diagram id="eeYnPdOjBxcrUXloj9YK" name="Volume">
        <mxGraphModel dx="1036" dy="1959" grid="1" gridSize="10" guides="1" tooltips="1" connect="1" arrows="1" fold="1" page="1" pageScale="1" pageWidth="827" pageHeight="1169" math="0" shadow="0">
            <root>
                <mxCell id="B5qJrC7WR6L73SeEnvok-0"/>
                <mxCell id="B5qJrC7WR6L73SeEnvok-1" parent="B5qJrC7WR6L73SeEnvok-0"/>
                <mxCell id="x9-U1XgvXYJjmRrpAgHX-31" value="AVolume" style="whiteSpace=wrap;html=1;" parent="B5qJrC7WR6L73SeEnvok-1" vertex="1">
                    <mxGeometry x="120" y="410" width="120" height="60" as="geometry"/>
                </mxCell>
                <mxCell id="x9-U1XgvXYJjmRrpAgHX-32" value="ABrush" style="whiteSpace=wrap;html=1;" parent="B5qJrC7WR6L73SeEnvok-1" vertex="1">
                    <mxGeometry x="110" y="70" width="120" height="60" as="geometry"/>
                </mxCell>
                <mxCell id="1" value="UBrushComponent" style="whiteSpace=wrap;html=1;" vertex="1" parent="B5qJrC7WR6L73SeEnvok-1">
                    <mxGeometry x="320" y="110" width="120" height="60" as="geometry"/>
                </mxCell>
                <mxCell id="2" value="UBrushBuilder" style="whiteSpace=wrap;html=1;" vertex="1" parent="B5qJrC7WR6L73SeEnvok-1">
                    <mxGeometry x="250" y="-70" width="120" height="60" as="geometry"/>
                </mxCell>
                <mxCell id="3" value="UConeBuilder" style="whiteSpace=wrap;html=1;" vertex="1" parent="B5qJrC7WR6L73SeEnvok-1">
                    <mxGeometry x="560" y="-100" width="120" height="60" as="geometry"/>
                </mxCell>
                <mxCell id="4" value="&lt;div&gt;UEditorBrushBuilder&lt;br&gt;&lt;/div&gt;" style="whiteSpace=wrap;html=1;" vertex="1" parent="B5qJrC7WR6L73SeEnvok-1">
                    <mxGeometry x="414" y="-90" width="120" height="60" as="geometry"/>
                </mxCell>
                <mxCell id="8" value="设置相关形状" style="text;html=1;align=center;verticalAlign=middle;resizable=0;points=[];autosize=1;strokeColor=none;fillColor=none;" vertex="1" parent="B5qJrC7WR6L73SeEnvok-1">
                    <mxGeometry x="414" width="90" height="20" as="geometry"/>
                </mxCell>
                <mxCell id="9" value="笔算" style="text;html=1;align=center;verticalAlign=middle;resizable=0;points=[];autosize=1;strokeColor=none;fillColor=none;" vertex="1" parent="B5qJrC7WR6L73SeEnvok-1">
                    <mxGeometry x="110" y="40" width="40" height="20" as="geometry"/>
                </mxCell>
                <mxCell id="11" value="UPrimitiveComponent" style="whiteSpace=wrap;html=1;" vertex="1" parent="B5qJrC7WR6L73SeEnvok-1">
                    <mxGeometry x="500" y="160" width="120" height="60" as="geometry"/>
                </mxCell>
                <mxCell id="12" value="UBoxComponent" style="whiteSpace=wrap;html=1;" vertex="1" parent="B5qJrC7WR6L73SeEnvok-1">
                    <mxGeometry x="414" y="420" width="120" height="60" as="geometry"/>
                </mxCell>
                <mxCell id="13" value="UShapeComponent" style="whiteSpace=wrap;html=1;" vertex="1" parent="B5qJrC7WR6L73SeEnvok-1">
                    <mxGeometry x="330" y="220" width="120" height="60" as="geometry"/>
                </mxCell>
                <mxCell id="14" value="UBodySetup" style="whiteSpace=wrap;html=1;" vertex="1" parent="B5qJrC7WR6L73SeEnvok-1">
                    <mxGeometry x="650" y="50" width="120" height="60" as="geometry"/>
                </mxCell>
                <mxCell id="15" value="描述碰撞" style="text;html=1;align=center;verticalAlign=middle;resizable=0;points=[];autosize=1;strokeColor=none;fillColor=none;" vertex="1" parent="B5qJrC7WR6L73SeEnvok-1">
                    <mxGeometry x="670" y="20" width="60" height="20" as="geometry"/>
                </mxCell>
                <mxCell id="16" value="CreateShapeBodySetupIfNeeded" style="shape=step;perimeter=stepPerimeter;whiteSpace=wrap;html=1;fixedSize=1;" vertex="1" parent="B5qJrC7WR6L73SeEnvok-1">
                    <mxGeometry x="380" y="270" width="120" height="80" as="geometry"/>
                </mxCell>
                <mxCell id="17" value="SetShapeToNewGeom" style="shape=step;perimeter=stepPerimeter;whiteSpace=wrap;html=1;fixedSize=1;" vertex="1" parent="B5qJrC7WR6L73SeEnvok-1">
                    <mxGeometry x="490" y="280" width="120" height="80" as="geometry"/>
                </mxCell>
                <mxCell id="18" value="FBodyInstance" style="whiteSpace=wrap;html=1;" vertex="1" parent="B5qJrC7WR6L73SeEnvok-1">
                    <mxGeometry x="480" y="60" width="120" height="60" as="geometry"/>
                </mxCell>
                <mxCell id="19" value="GetBodySetup" style="shape=step;perimeter=stepPerimeter;whiteSpace=wrap;html=1;fixedSize=1;" vertex="1" parent="B5qJrC7WR6L73SeEnvok-1">
                    <mxGeometry x="644" y="150" width="120" height="80" as="geometry"/>
                </mxCell>
                <mxCell id="20" value="子类重写这个来更新碰撞形状" style="text;html=1;align=center;verticalAlign=middle;resizable=0;points=[];autosize=1;strokeColor=none;fillColor=none;" vertex="1" parent="B5qJrC7WR6L73SeEnvok-1">
                    <mxGeometry x="594" y="120" width="170" height="20" as="geometry"/>
                </mxCell>
                <mxCell id="22" value="AggGeom" style="shape=trapezoid;perimeter=trapezoidPerimeter;whiteSpace=wrap;html=1;fixedSize=1;" vertex="1" parent="B5qJrC7WR6L73SeEnvok-1">
                    <mxGeometry x="800" y="40" width="120" height="60" as="geometry"/>
                </mxCell>
                <mxCell id="23" value="点的数据" style="text;html=1;align=center;verticalAlign=middle;resizable=0;points=[];autosize=1;strokeColor=none;fillColor=none;" vertex="1" parent="B5qJrC7WR6L73SeEnvok-1">
                    <mxGeometry x="800" y="10" width="60" height="20" as="geometry"/>
                </mxCell>
                <mxCell id="24" value="头文件定义，实现还是放在父类中的，可能内容比较少集中在一起" style="text;html=1;align=center;verticalAlign=middle;resizable=0;points=[];autosize=1;strokeColor=none;fillColor=none;" vertex="1" parent="B5qJrC7WR6L73SeEnvok-1">
                    <mxGeometry x="450" y="-120" width="360" height="20" as="geometry"/>
                </mxCell>
            </root>
        </mxGraphModel>
    </diagram>
    <diagram id="M2iByLiVTACOOFbm_Ffg" name="第 4 页">
        <mxGraphModel dx="1035" dy="1959" grid="1" gridSize="10" guides="1" tooltips="1" connect="1" arrows="1" fold="1" page="1" pageScale="1" pageWidth="827" pageHeight="1169" math="0" shadow="0">
            <root>
                <mxCell id="9x4F-eVVfo7EvnVQn5qE-0"/>
                <mxCell id="9x4F-eVVfo7EvnVQn5qE-1" parent="9x4F-eVVfo7EvnVQn5qE-0"/>
                <mxCell id="9x4F-eVVfo7EvnVQn5qE-3" value="" style="shape=image;verticalLabelPosition=bottom;labelBackgroundColor=#ffffff;verticalAlign=top;aspect=fixed;imageAspect=0;image=data:image/png,iVBORw0KGgoAAAANSUhEUgAAA4EAAAJeCAYAAAAKtQCCAAAgAElEQVR4nOzdeXhTVf7H8XfbJN1b0pYCBVJlXwTZFHABxCKLgguIwjiKG/oDBxhRBFfUEVCEAR0YlxEdHUVwGEZcAO0IODKgIuACKHsLFFpKS/ctaX9/5KZN0hRaaCnL5/U8fZ7mnnPvPTcg5pvv95zjZ7PZyhAREREREZELgn99D0BERERERETOHAWBIiIiIiIiFxAFgSIiIiIiIhcQBYEiIiIiIiIXEL+O85eXAdjXT6VgY4FXcwJBk4ZiDnC+qujTAcuY+wmMdsWQWRSteJ7iXSVnbOAiIiIiIiJSc342m60M22hChrfD/qlbIGcbTcjwnpRt8BUceuk6nrD+gRS9OpeS4roftIiIiIiIiJwaZyovOY1Sr40iTN17VC8ABDiWSWlpHYxOREREREREapUJgK5tMeXto2Cfq5wzAVN8Lo68+wib3Ao/AJIorCLT59+qJQEpW8lXFlBEREREROSsZgqfPB9wzvdz2I2jtlj8/SIxW78nZ86rzo43zyX4rrspfftto5/7fMEsilasqofhi4iIiIiISE0EBG/fML14QzL+CVMIanyUkt2HIbIT5g4Oit/9O6UOZ8fS/GhMXRpStmmDcWwv9o2rKN6wiuINAZjv/ANm1mE/aD/R/URERERERKQeGct7bseenIF/ZFPny+Q0Sssa4BdvruZlErEnOfBv0L5OBikiIiIiIiK1wwgCE7B0jsGelGgcTsSeFEZgt0HlHU3dexCQssv36p+20VguyqVkz891PmARERERERE5dSfYJ9BrL8CDieQs+cRo89w/UPsEioiIiIiInBuc+wSKiIiIiIjIBcG/vgcgIiIiIiIiZ46CQBERERERkQuIgkAREREREZELiIJAERERERGRC4iCQBERERERkQuIgkAREREREZELiIJAERERERGRC4iCwNoQMYqWk1fR6+EXiDxhxyZE3f5Put4y5AwNTE7HgG7p7LknmaR7kkm6IZ+OPnsV8+noZJJuy2Ji4Bke4IUiegSPv/IUo9p6HGTE43N56Jr6GpSIiIjIucsUPnk+APb1UynYWODVnEDQpKGYA6i6T9fxhPVvg9/BRHKWfFL3I74AxQzoxjMjmmJJ2sbsGXvZ7Wpo0ZaZj7WhsVvfnK3fMuGvafUwypqb1DeFP7a0ux0JYdVHMTyQcwYH0TKLX/tmEQyAmZ/WNmboXj8AvtwcQ8vNzmDwtbgzOKZyDt644TCdUuLovdnr+5qYfDYMSSfOVHEoZWuzyv1OR0w+G4bk89PyOvozaZnFrz3gr/+OZH5RFX1Cr+DBR/sQsGEBi39zbzjGyrU7eer2pxiV8rxXm4iIiIiciClnzkSwjSZk+DQsx56neFeJs8U2mpDhPSnbMJWcSsGhSwJBfRthTzpWHijWt5kzZ560T2ZmJi+99FLt3TR7MXvmLGZP7V3RTSCXdYzk2Dc7yO8Yy2Ut9rJ7r3t7AVveTuSVjUB0U6Y80ZNX/u/cCQRJi2HIpyFswwi2bk3n9TMUCA7ols5rXUrYvra5Efg5eOPaHCYeiqg6KKnEwg0f2OpwlCfiFjS3zOLXvql8crwiiD33hXLF74fRIW8DC3xEeXn/e43ZcY/zzMhRbH5+MYoDRURERKrHmUdITqO0rJ1nQ/celG3wlR1063PzEMyH15Cf0QVzwzodZ408++yzFBcX+2yzWCxMmDDB+aLJY3S8vwd5y25l/zaqONaRpg/OoXms0V6cxP53H+BIivNl0KB36HK5MxdnP/g52xa9guc75nU+UPRLDR4mOoZOtgAyNh5gV3RzenYLh71VREjHDvGvLS144tJGXEka66FStrA8UxjdlClPtKdwqRFAurRoy8xJVn6at5EvW3bj8cuOs+JAU+66qoHn+W4u/t0zPHplMFvfmcob31Ue1snaXb7cHMGOdkfo3LoUjIyWM1DLN/6iVmTqnNm5EIYZAaTLpL4p3E8M166zcHvfFG7LacjPcakMjC3FM9NXzMR2+aRtbeYWNAUw9j8RVQ/Qi8fY3ILZCsV8OvoInYKcr3L3NObadRaOlLdlc+ibEDr3MzJ6eZHMNbJiHlnS2IMkdfF1DTdZZjLtXse8soWVMoUeWVD3a3uOO+7WZJIA70yp9/ke13dl+f5r5vYEYwyu98hrXA//LouHgUqZ4OjB9OuQx4YFVQd4x1auZXuPEQy4ZjG/ramik4iIiIh4cH5i69oWU94+HPuMLCAJmOJzcUTcR9jk+YRPnk/45IcxW9zO7DqeoBYHKVz+CWVnfNgnVlxcTGlpqc8fj+Dw8KccTwvH2rZijp65aSyBuTvJ3AbOOXzP0qT4c358bhAbn7ubnfujuej2irl/havGsPG5QWz9rtLHct/n78yt0bPEdGtE89JUfthYxK5jdpq0aUirap8dzj0jLHz6wCfc/cAn3P3iTvK6dGZCL+BYNum5JqKahZ/wCub4joxqfogXHviER/95CL/2LRjVokaPcOpi8nk0JIIrF9mIX2Tjvq1mOlyWzcRA+DLLTEloCQknmYcX18VZThm/yMaf95TRuUOBc25fywJaBYXw065TL5/8cnMMLRfZuG9rCN7xl7OUM42LDzWm5yIb8Ysas6/pEZZ3K3Xrk8+ghHx+Wu5s/zkgi9s7OtvnrYsjflFTVqf5k7K1GfHGe9DRVwAIDLDlE2syk3LUFdAW8+l16fCLce6KGLgklU9alFW098xn19rmPq7tzG7Gr4ghxR7Cqo9sRp8mbgFzMZ+2NDPcODd+XSTWLhm87v7XKTSLhwcZz7cihpSoLGa1KIP0EHq/6zynIC+Sue+7ru+ZAY6+pg2Nj+5m84lSfHk/8tP+Ylp01ORAERERkeryD588n/D+bXD8/CEO1ydZWyz+fpEEWveTO2ciOXMmUrC3GUF33U2ACaADlktb4Vj/V0p8J9zqXWxsLI0bN67042kbaZu24XfRlUZQ14TwVnHkb/mQLIAmd9KkTRnp37qye4fJ+HwZR/3aYPW9SoinJnfS5KJjHFzlnR2srkAu6xhN2Z5U1gO716eR0TiWy6oKwlq05d6rQknauN+ZBSSHRS/9bPwO7E1hV6or8CvmcIZR8xjdlClzE5jQC2JahhJWnEeyq+Q0Zz/vGvMQ0zencsAeRsNYz9vue/9Zxo2rOst3snaXSX3T6eSI5MNtRmCWHsJ131QEPV8mh5AWWEIHC87Ml8N5fEC3dPbckE9HHHQILyU7x1R+Tu6extxsZKfmHQyloBqBY62IKaJTUDhvbKwIrOb/GkJsXKHbAjNmflobbQQ+FhIPmYgIt+P9t7Rq+Qy61blwzd9am3nlfbcgqmUBrbJjuG9zxXu5JKmMFs1L3K5f4vW6Jizc8IVb5nNPMLsLS4hr6P6VkNvzpQfyc4aDmAbV/coolLYxEdgzj5ykzDOP39KzMVkb0/aE/URERETExTknkA5YxswgtMF75K3abDQlUbi8YqEX+w+bcAxvjL8/lPUfTmDBVyeYK1j/Fi5c6CPogz59+ni8Ltm5iay+t2DtCFkH+mGNzeb41z9XdCjOoDCzrkdbhegYOtnK2L3UKL/cm8Ku4xfT1qMkNJiudw/l7bsBSkj6cj3T/1mRTmn1+6t5wijldCoxSvucmcXBDYOJ6RaD5UgWZc3CIQtKMvJIPRPPBxCbzuf3GL+7lUM6ORdGcZZyuoTwE0C6iWOWfDpYHHS0+pNcbCchMBAwk378LJgTF1mCNSLLrdTRkBZSizcxyicD89kwJIuEphHMNzJ1AyJLMMdmVby3htzyiasWbvgihg1DjvDtPW7XqsFczMoL+5idfzYueSEkHnIrtf20WQ2eLYi4qAjIPnnPwpQM8q+IJg40L1BERESkGoxZOduxJ2cQ2LApsLl8jqBfvBlcC8WU64DJFgXRCYRPTnA7nkD45Mso/Og5SpIrF8edaSNGjPB53N/fq/wvey2Zh4YT33YIh4J7EJa7jZQUt3ZLFEFWwHUs1EZQKOTVxaC9xHRrRPPQYMLKgzyn4jYNaUWOsUqo28Iw3ucP6MbEqwLZ8vYnRns49zx3Ja5lTI4fycN+mZWBHSPI3rIX/44NuSQ4FFPmQXYDMXX8fEAVc+mcJvVNZWBoOHPfNwJDY7VKpwBSsh3EtSgkxhLEotRihjS1Y44I4NDRagSBWWYy7Vke8w9rXaWgto6kh7Ak6Th/7FBAx71u7+UJ3lvXeb3fdf5tqOmiPAO6pfOHlhZWfRRn9C/m09HHTvtRKhSSkpFd/i/UiQTFRRGSuY+Uk3cVEREREcr3CUzA0jkGe1KicTgRe1IYgd0GlXc0de9BQMouSoq3U/zOH8kxykRz5kwkb0s6HEwkZ87TZ0UAWDOHydmdRGmDzkS3iibrW7fSTWPOYEzPCcbiF02I6nsZwQf/S2qVn6zd5CVTWNKEBm07ARA0aCZt2oRVe2QNGodiSdrGC645fca8vOITlYR6K8rlqJFIbPX7LlzdyLuDiYaW4/zwZTbZYU25Kt5ExtGaZXgv/t0zLFw4i7GXn1r7CeWZSSwCcPBGrwyPLREACCmhMDWIN7P8sLXNo0mxme3VKVFOD2FJkok4j3lsDt64Nrt29vvbE8zugCzG9io+xXJLgAC25/gT51FC6tu8bQ0q5txhlM5GpfM3jzmIVfsyy4z31z2kmzhmz3cGyr7kVbzXk/qmly8kU21ZZjID80lo6qtEtLplntUtGxURERERlyr3CbQv/xtFY+6vyPadx/sAlmxaRHqPOVzU4Ad2fOjeso1Dr02GB+dw6dPG4jG5P7BjritQ9F75cwiXPj2kYpXQ7MUkr+tBpyGz6XW1c/XQX7/rxsXVqggMp0/rUA7/dLRiX0CMeXmDOzlLQjdXebKz75e72HJ1P657bCjXAcVJe/kxNRRXcWj6njyKRrShxdZvmUcOqUnwxFUBbEk8kxv1VW3etgbcNqSiXDRlZxQpUYVGawDbcxwMbG9n1Uf+kBPM4Z5H6JQdYwSN1bj+ujgghT96rX451hV0epSi5jvHUZ5dO1m7hRs+aMyno13llsYz1HAvv3nrYkgYfaT8PahydVBXNvCybCYeimR+egi9P49hw5CKlUU9Vvf0WtnT1eaZBbRww7eR/NrXdY2K810rubrKXXP3RPFbYQ3/3qSH8PQv+bzW7wBJ/cC7JPXYmp0c6X/FiVf+DL2UzhdZ2LtaS4OKiIiIVJefzWY72xb3PC0zZ86s1hYRtbpPoIjUgVCuePApbm/4Iwuq2AcwesTjPNN+X5XtIiIiIlJZNWbcnHueeeaZE7ZnZtbXSi8iUn15/O+9FXR+6nZGjtrM814bxode8SCP9gk44T6CIiIiIlLZeZcJFJHzTPQIHn+mPfsWPE9FHBjNiMefoPGGh/mLKkFFREREauS8DwKtVitTpkxh2rRp9T0UERERERGReldHa+OLiIiIiIjI2UhBoIiIiIiIyAVEQaCIiIiIiMgFREGgiIiIiIjIBURBoIiIiIiIyAXkvNwn8JREXcsfpg6nfVgxyYnzmfWvffU9IhERERERkVpnCp88HwD7+qkUbCzwak4gaNJQzAFU6mO6eS7BLQLc+mZRtOJ5ineV1P2oa10U1/5uIC0zEpk95V8o/BMRERERkfOVKWfORLCNJmT4NCzH3II422hChvekbMNUcioFh06+A8dzUQSNrRaO/LJFAaCIiIiIiJzXnHMCk9Mo9doy3tS9B2UbzpcgT0RERERERMA1J7BrW0x5+yjY5yrlTMAUn4sj7z7CJrfCD4AkCl+dS0lxPY1URERERERETpvHnECH3Thqi8XfLxKz9Xty5rzq7HjzXILvupvSt98u72e6chbhVzp/L932d/JWbT7Dw68lUS2JCisi45CKQUVERERE5PzmnBNIByxjZhDa4D23QC6JwuWflHe0/7AJx/DG+PuDA7Avf5ic8tYEgibdRSicY4HgRfzu6SlcGZVM4vzH0IKgIiIiIiJyvjP2CdyOPTkD/8imzpfJaZSWNcAv3lzNyyRiT3LUyQDr1n7ef24c4577nqb/9yJje9b3eEREREREROqWEQQmYOkcgz0p0TiciD0pjMBug8o7mrr3ICBll+85gV3HE9Qil5I9P9f5gOtExh4ycgOJanpxfY9ERERERESkTlW5T6B9+d8oGnM/4ZMTnAcOJpKzxFUe6rl/oHPRmKe1aIyIiIiIiMhZzpgT6Mt2it/5I77jukQK5yVSWHfjEhERERERkTrgX98DODtkcySzGGtMbH0PREREREREpE4pCAQgg/+8v5qDre5i4cJ5TL1FcwNFREREROT8ZKrvAZw1Mv7Dq1P+U9+jEBERERERqVPKBIqIiIiIiFxAFASKiIiIiIhcQBQEioiIiIiIXEAUBAImk4n4+Pj6HoaIiIiIiEidUxAIWCwWevToUd/DEBERERERqXMKAuUM6cK9M15m0qBGnkfvncFzd7atpzGJiIiIiFx4TOGT5wNgXz+Vgo0FXs0JBE0aijkA331sowkZ3pMAf4AsilY8T/GukjMx7vODqYTltxymW1jFoZL9jWj1VWAt3yOV4K3NGLSz9i5bLqiAb27PYffKWMakVtWpGcMeuZP2aV8we5Vnp62rN5Lw8P1MSpvNvFVVXkBERERERGqJKWfORCOYm4blmFsQZwR4ZRumklMpOAS6jiesfyOKVzxC/jke+OXn57Ns2bJ6urs/O74xArSgAr4Zncamy5rQ4/vzZwvHZsNup1/jZL6YvYpKYd7BFbz8bkNm3DGKQVvmoThQRERERKRuOSON5DRKy9p5NnTvQdkGX9lBgA5YLm1IsTJ/tctu4mguNHc/5pUtrJQpDCrgm9FHy89xZEQz4d+hfEoZrww+wI1NjIarkkm6CsCPoz9XBJkR8dmsv/Y4EVRuK8/yfWEl8ipjDCURvPleA/7kNa7m1yeTBHgEtQB0YWCvxiQnzq46wNu6mo0JD3PFwLasevc3r8ZmDHvkYQY1TmbFbAWJIiIiIiKny/lpv2tbTHn7KNjnCugSMMXn4si7j7DJrfADIInCV+dSUgzYumCyZmO/eCrhw2Kcp2RvJf/tt3HYz/xDnC8imhbQKsyPQ1muLGAZrww4TKf0RsQvDTQCwiNumcIyXrkmnaCf44ivlDn0Y8JKGxNOVA5qKmFR6wCmLbLxKUZAeE0G7yS7lXb6F3LNoFR2fGMjfq/z/jddFsafvjdz81LbyctBu3SnpeUgX285UfR2kM07U+jXoydt+Q3vMFBERERERGqPf/jk+YT3b4Pj5w8rAjhbLP5+kQRa95M7ZyI5cyZSsLcZQXfdTYAJiLbi7x+P2f8zcuZMJGfO6xSVdCZk+ND6fJZTFhQURN++fevp7qW0vyqZpHuS+fmaQn74zC1YCyqkW0wE77gyf3Yz438LIappETeUn1/m9boG7GZGJIbyqfEy+1Awu/OLaRzp3smPoz83do7JbuLzw2YahDuqfYtmNitB+RnsO0kG72ByJoUhUVzcqFILK15+mHGPKAsoIiIiIlIbnHMC6YBlzAxCG7xH3qrNRlMShcs/Ke9o/2ETjuGN8fcHB0D2VgoTXX23U/zjbiw9YvAPgNLqxwhnBX9/f2JiYurr7s7ySSPLdonNDqlGqWajEiLN2dx/Tzb3u53hyAgyfvNjwpdNaH7LYRbcc4wFlUoxT6aM+69O5cnWxZ7jce9SGsgvya4sox9v/rcxb9bg6WIaRhFE2sk7ph8lwz+e2AZQeeKgiIiIiIjUFuPT/XbsyRkENmwKbC6fI+gXbwZfc/6OZVIa5hYQyukzsnwbOufy5PcN+JPruGsO3gnOu3mpDXDN7zvIKqoXCMZdmsGTLf1Z85nNWcrpKh09/acpl340g8L4anSMaUhUaQa/HK/Fm4uIiIiISCXGPoEJWDrHYE9KNA4nYk8KI7DboPKOpu49CEjZ5ZwTmLwVe2ZzLP27Ga0dsFzairIDP55zWUAAh8NBUlJSfQ+DlG0RbC7K4abLnHW52YeC2V2UzZj+RdU6PzvVTJb3QbuJAzmltGpWxTUcFnanApRxf+9jHttVVIvdxNH8ImcG04eqyzw9VV022oxhj8xl4cLn0HaCIiIiIiKnr8p9Au3L/0bRmPsJn5zgPHAwkZwlrvLQ7RS/8xn+k+4ivONdAJRu+7tbKem5paioiE2bNtX3MCqygV1di7OYuflfTVh+y2GS7nF1clvB02tlUFfbVR5ZQD8mrGlIt9GpxjUqzk/ZFsHmtofLy01LkqPYnHu8ZplAu5m7vo1k/bUpJHWCSquDbv2BPSPHVrHyp0szurWJI3f3Jz4WhTlIcmYhEEOrnm3hNy0bIyIiIiJyOvxsNltZfQ+iLlmtVqZMmcK0adPqeygXrGbDHuHhPna+qGqLhy73MuOOcL6uor3ZsEd4eFAEW+c/TZVxpIiIiIiIVIt/fQ9Azn8HV3zI2iM2EkYNolJVaLNhPHJne9ISF1cOAJsN45G5C3lcAaCIiIiISK1REAiEhIQwfPjw+h7GeewgK15+lx2xCYwa5BkGdhnYi4itbzLPVwrw4Apefngc48YpABQRERERqS3eO4yL1JGtvPX41spH33qcykdFRERERKSuKBMoIiIiIiJyAVEQiHN10HXr1tX3MEREREREROqcgkCc+wSmp6fX9zBERERERETqnIJAERERERGRC4iCQMBkMhEfH1/fwxAREREREalzCgIBi8VCjx496nsYIiIiIiIidc4UPnk+APb1UynYWODVnEDQpKGYA/Ds03U8Yf3b4Od9tYOJ5Cz5pK7HLCIiIiIiIqfIlDNnIthGEzJ8GpZjz1O8q8TZYhtNyPCelG2YSo53cLhlAblb3A90wDLmfsxZh87UuGtVWVkZ+fn59T0MERERERGROucsB01Oo7TMs8HUvQdlG3xlB32wdcFkPUDxV5vrYIh1r6CggJUrV9b3MEREREREROqcCYCubTHl7aNgn5EFJAFTfC6OvPsIm9zKKPtMovDVuZQU+7hI9x747fiHzzYRERERERE5e/iHT55PeP82OH7+EIfdOGqLxd8vkkDrfnLnTCRnzkQK9jYj6K67CTB5XcE2GstFB8/ZLKCIiIiIiMiFxD9nzkRy5ryOo90MQgd1c2tKonB5xSIv9h824Qiz4u+1nqipew8CUnad01nAoKAg+vbtW9/DEBERERERqXNGSLcde3IG/pFNnS+T0ygta4BfvPnEZ9tGY7kol6LNq+p2lHXM39+fmJiY+h6GiIiIiIhInTOCwAQsnWOwJyUahxOxJ4UR2G1QeUdfGT/nse8rVhQVERERERGRs1qV+wTal/+NojH3Ez45wXnAew/AruMJapFL0YpzOwsI4HA4SEpKqu9hiIiIiIiI1Dk/m81WdvJu5y6r1cqUKVOYNm1afQ9FRERERESk3vmfvIuIiIiIiIicLxQE4lwYJiQkpL6HISIiIiIiUucUBOLcImLw4MH1PQwREREREZE6pyBQRERERETkAqIgUERERERE5AKiIBAoKipi3bp19T0MERERERGROqcgEOc+genp6fU9DBERERERkTqnIPCcVsYrbySTtDqZpNUH2PS4vb4HdF6Jm3DMeG+T2ftuHjfUsL12dOXepyYxMLZOLi51ZNaC5PK/Gz8+Z8evvgd0PhmbWf7eJn2Yw23eb+7J2s+gNnc+y9wpN9K8/oZQuy7P47vPXH+3j/GXxl7to7LY5Xrvl2YzLry2B9CfP8ybxvAGtX1dEZELj4JAwGQyER8fX2/3j7g+m599BRLRBXyzuuLDZNLqZHbPK3Lr4MeEsTbiBzbn46QzPOjqCi1h+dKqxn/64iYcq7MALOWVaOIH2uj9WegptZ+ertw741nubJPO0cwit9fVPH3oZSx6fShvu/08dVPlT8M3T7mhos+sjlx2Rv9FKGTN3ckk3eP8+fEKe63+g3Rrr1SSBhZiOtUL9Mtlq89AopA1qzz/u0xaUOgx9qnjbcQPtLF49ykPv47ZWbK46vGftrGZdReAvWElfqCN+GVVRBgnaz9DYgdOYmyXPNYt/pgDXm2PzTlU8d7XdrB0eR7ffeYjQKsN34Vy+fU24p+KJtXXd46LI2k90Eb8O5EU18Ht4SsSvzfT77EH6R1cJzcQEblg+IdPnk/45PkE9/L1L2oCQZOc7ZX62EYT8seKtvD77ybglD9t1S+LxUKPHj3q6e5l3HZVAUXrG/KjJY8Rvb3b/dnxnvMDZfwtTfg5LrXWA6k6E13AN/86TKeURs7xD7TRZ28eq+6o74GdC7bw1uP/xjxmGoM6dOLG6b8jfN0C3t1Zk2uk8tm4T7j7gU+4e+EeIgfd4BYIRvHgjKEMi9rHwv8z+iwu47p7Y87MN0NNctl6TxpRv8Vx8SIb8Yts/Kk0h8VNz8TNvfXjobmz+L8rPYP5kf3y8Ps2lo1l+dzSr/JZe/9l/Hc5MI6NUWnsq+1Aqs4UsmZVCr0yYrnY+O8y/scC/vNAfY/r3NDmzmeZcW+3E3eKHcjoATbS1i3mY48I0M6idw4wrnk4L44w3vuXA7h5ajHRdTno88iO959jeUo7ht3VG8WBIiKnzpQzZ6IzoBs+Dcux5yneVeJssY0mZHhPyjZMJWdjgddpCQTd0g77p4+Qv6sE6IBlzP0EJXQjb9XmM/0M57ZQO0NalpC+IojPg7N54Bo7bKgims4zM/6bUDYMKOBJAvlTda4fXcA3HxwtL0cq2dGIVpMCcZaSHmBIvus1Po9FXJ/N+gnHiQCcAWkzBv3D7drv5bD7JSuR4w7TLRIojuDNoQ34E2Xc/0gWcanRTCi/PqS8EsWg8ldl3D8zlSe7ub4z9rx+3IRjfN0ilBcLjht9/Di6rgk9Zpi8xpXHgtXHWID7/Z3nf9MjiKlLHDxl9K14fpxZyreNcXudWyu8ru9xb8p45Y2DXLG/Ca+HpxvP5/X+esgjY1/aqY/lx+2s38hbJCQAACAASURBVNuCYW3jCWA/jqEtuTw6lc/GbeP70oo+L/x46reoiZmdMrAeiqXl/0y4bv/RRisfufW5tVcqL3dwfeFhYePqxtx2yO0a1yUzuhmV2ztmsr9njlGCmcaee4wu2VYe+2c4H7oPpM3tPPVQH0J3vM/z6/PcGuwMb1tExtoglpVm8cQ1dvzWmCjz+TQmblsTTtLwfGb5BTHFdycvhaxZlUYLV0y+O5aLxwdRirOUdBQVr/F1rF8uW6dlYDXa9/7LxjWvu1/7OGkvxsDYFHpFAYSxZFAUU8pg5PQsWhy3MuWhiuvzhpVr3EY3cnoqs3tXfNnkcf2xmSRdGsyUo1m8ZPQ5/m0cXZ42UeY1rpdWZfISnvdnbCZJ/U1Mec2Paa6+u92f186Sxa5xe51bK7yuv7vyez34WBwvlB4rfw/cn3/nqv+RNuU+5k5ZzZ9fqpzlA2gz6Apsaev488deraPyuLpJCJ/cFcHCHOPYd6EM+M69Txa7xmRhMV7mbGlM36kWjrna+luYsSeXp64pIMCjvYiVK1LpYPwTM/TveQwFwMKWBY24aYWf8/yb/fjzwgDGPHqMRiYguSH97g9mn3G/x+YcYtwlDuOV27m1xOP6WQ148d6K92Lw1KMsaBnGtV8V84XxHng8v+GrxO+5alw/hjTYwLLj3nfozx/mjaB96n94fOYyKjWLiAjgKgdNTqPU63+wpu49KNswlYJKASBgi8Xf7zhlSUbAyHZKs2rt/9BnXFlZGfn5+fVy74h+BbQKDuObf/jx2WETUe2KarG0sYxXnitilevb/tENOdL+qJGJ82PWL6GYWxbwpKt7dCHd4v3Zvcn4FBFdwOcTsjlkZCI7vRJB09FpvOOerQwo5JppqQSvcGYqNxfkcNPj9vLgNuPXQD6tYnRxEzJ48pIg3jTG1/uzYNp7Xd/cPo3Hgq1GewgNe+fyJJD9WQSdjFJMR2o0413P6BXEBTQ6xuwHS1ky0EanVxpQ0CbLuH4Zr/zZPUvZnI8PZ3NPrZWWel3/lib8HJfmNW+zjIZ9U4zna86fNptoc53r/l25d8ZNlLwzk1Xbf+bj6f/GPKYG5aAncXP7RvjtTWO54+R9a18hvZrC3kNBVDmLtUku4/yiy7OEj2z3o1fvHG53tXfMZFSElceM9vhFbgHiNisXLbLxyPZAOBRLS1cf7wCw30PMndQHx3+fYepf15Pn0VZI26gwvn8DlqZYaNCmgJG1WNo4a0E+3w92ZRJj2dsyrTwTN/XHcGiVz6zy+xXSsyXs/ckVqBSyZmoGma5M5MworLccYYl7FEcxvaamELvWyFRm5DLwWTt+RnB7fGcwS6v6J3tsJrN7m1kyyFZeVtnC+/qt0nipYaQzk7gsnAY9s3nRD1gbRhdXKWamlSmuawz0CuKsmbw0rZgvBjnHn9nqOIuvcb03nlnKxbtzuW1x7ZWWel7fmcXd4jVvs0HPFGYbz/fohkBaXON2/7TVzHtkHltDBzJtxr1Uzgm2oVfLcI78trlyGWiPXCzJIcw5UsXgLs/juzsK2LagufN9eyqa/E5HWDGptKKP7SjTW4ZxrVF2Gdg1h2cbAwQyeJirVDOUT+5yvfeNPYO4yOM8Nq2Q7+41+sZl8edhzj+cwVOP8oBblvLBNQF0Hp9Ra6Wl3tdfeCCHx+YWcLF7J9tR1t7sx59HeD+fmx2b2XM0jjbXanKgiMipcgaBXdtiytuHY58rqEvAFJ+LI+I+wlzlnpMfxuz6ajJ5K/bM5gTdZZSAdh1PUItcSvb8XB/PcNoKCgpYuXJlPdy5jNuuyid4TzB/AlLeDyElxldJqCG6gKXX53N0Q1g1s1V+TBjvFhQdC2JzUhkxNudH75S3IthckMtVRnlm3O/yiUu18pd/VLxuvKNheWYq+7Nw1hws4pJr7B73OLqusbNPnonP95hpEFuNyCK0hAVXeT5LyitRfOx1fUdqNJOM7FnK+yEcCCimVVXvjy+OINbMcL4H2WuD2Z1bTOOWEHF9Dtc0C+KbJa7MnB8TpjU88ftfE9GFdGsSwTuuzF+emfHfhFQK8iuez48l34SQZy2hC+AsB32Gd3fG0NAa6Pb6FMcz9DKGtsxj05dJ1Ebc1+3emSxcuNDrZzaTamsFm8NhXLPBLUuYFEpmRAnd3D+pR+Rx8ymWj7a5/SleGdmMXe8/yoyPjlZqH9kvD+vuEKaWAW8Es7dBns+SUKdC1tySw/FvI3ismt+FTR3vHhQF8e0eiGpqBCJvhLMxI5fLxhrNYwtocdzKa2+4vd4Ty7WuzNzaMFbtLqbdNZ6BzPFv4+j/OoCJZb8F0iC6OgvU2FlyjdezvGFlsff1M90yiW8Es7esmPgq3x9fLGycZbwHa4P4LaOY2DZAv1wGtbKw8Z8Vmbmp42NP8v7XRCE9W4axpDwL6sziVgry3Z5v6dpQMq0ldPe4zk7efWY6H6e15765U7jRfeWX2IuJCi3k2AFfOcITe+y24zRKieSPrqDtu1Ce+W8wTToWVQRKWQ148WEjc7c4iN1FJTS7vCZfwlrYsiCKh44A3wXyy9ESGrYoA4qYcEUBh/8XVp6ZWznLytrD+XS9vfREF6wmO7e2K+Wnf4SXX//FJQ1IjctnskeQF8onE4zsYJXPt4PDmQ4iGrb3URL6Fa9OGsc4ZQFFRE7IFD55PgD29VNxuD5722Lx94vEbP2enDmvOjvePJfgu+6m9O23cdi3U/zOH7H3f4rQifOBJApffZqSupkJfv4KtTOkpZ3dK4xA4VgQmw+mc4VHSWgp7X+fTNLvwb0csrriJhxjw/XuOQ4/ju43fs0z8fkeE4/1KIJ/WJh6SQE7v4g2MndlXN+kBHP7VJJW4/t8AEcgv6wxlbe9Oa0xbwKElnByfqQn1+1EUkd6KP/cYLzIM3PzSGf9YMT1gMPC7g1VnnpaInqVEGnJ5v7V2dzvPp7UILdXfh6Z0uzPIuj0mfeVtvDW81tOcRSNuH7hUK4HIJdNr69lwebaydhvfmsa496qlUtVwc6Hw1PoHel+LKzi121WHg1P5eWBySSBM+O3+gSZRQ9t6Na6ISaqyv47s2V717oChSC+3VPMYK+S0Ba3JJN0i/P38nLI6j7e2EyShud4HDpeXu/mDNpmdy7EnyBmXJrD3jU2lhgXHxlXDK1y2Ofx36X7+QAWfnUb69LpjVhqPFt1ZByqwbOcisxQ/rXW9cLEbaNszl/7AVhIWuv7tNPWz47VL5fbVuVym8d4rB7dPDKla8PocqLxBF1Ez+u68fFbxlSIBo2whkDOCU45kZxjAWSf4rnVkhXCF2tcEa+Je8a4R7AWju6tq+VUHTSJKqLD+AMkjXc/7rWwlkemNJDBw3ynIQ9nZBBmiyMQ8FGvJCIiJ+GcE0gHLGNmENrgPbc5fUkULv+kvKP9h004hjfG3x8cxhzAwIKvyJnzCf79nyL0D/Mxra+ifFR8iuhXQKvIUiLKgzwnR1ARN2AygoMTzRM7yfWvz2b19QXseM9mnG/MQyvv4cw+TXiwgCejS+nWJIxVXvfxnMdWA3kmDhwv49J27s/izZWVNALBUDvNz2R1jyuraASCEb1KiDzhCTVU23MMayyVz8Z9xz99pP6SjuVSdnksNwfs99l+Mt3uncl93b3frTx2fjybeatPNnfRRGo29G5aiOkX34HbzOtS6O1n5bFFRglnk1y2Dvb8lumjjY34aCO4AsY9A6sbCO7kw+cn8GG/h5j7u9k8HveMZzawXyFto8DqFuQBEF3ASL/w8mDMcx5eDfTLZevwHI/zZy1IZrBbl6VrQ3l8mrMk9LKWYXz/kNc1vOaxVZ+JfRnQq43ns3hzZiVdgaCdi6PAY1JWnTKyimuMl/3sWP3gNGbEeqmNOYZtuPPZSfQy/8Dfxr2Fx0z446lk5rfzedZPRy04LslncuNgZybOh/BoBxFUvN2dGxYTcDpDrZFiIyvoCgQdNImqza8Dam+OYZOoKHIzUzhHlkkTETnrGIvZbceenIF/pFFblZxGaVkD/OLNvs/qeg2W6APlQWLpV8+TtyUdU6fb8T9z/7eqNUFBQfTt2/eM3zesZQmh7vPZjHlrebVVkgjgsHBkj/PXuAkZ3Oi1E0b2Z+GsOZzDrQuyCfIoM3UGiAXlcwhryo8nP25AXqMMprvNg4ubkOG8nlE66prjBxB3bzbdgsP5dw0ynbl7zKf0fjlLQwu56jbXR4gy/nTjcYJ3RjKmFrKD2WuD2V2QzZizdCXXzW/tY09ZI65/5KKKD5iXduCJ+6u3Oujmt6Yxbtw4r59HqxEAApi4/ddwypqm8eUlFUdv7ZXJEvfyzhwz/wTAzodXVCw24ut6+3ykXT7KsVDWNJ8ZVX3eXPsXHp73NQFXP8us/7uyIh/RpgSrx3w2Y96atbZKEgEspLlKe8dmMqqV99jCWLU7l4GLs4j6zrPMdOnaUDJbpZ3yap5TP4oi05rJ48+6lXeOzWTNA1BeOuqa4wcwNodeUWGsfqYG2cGd5lN7v4zS0F4jKlZanXVrBtbdDRi15oRn1uD6udz2l9NZydUZAHbJW83Mx70CQIC0fWTkBRHdvPLugCtnRfBbUR5Dn3ebB3d5Hl++4Fwd9MVNYRTbKubocXkew9sFsOWToPKFW07qOxPHHHmnUMIZyNpdATS7Ird8y4rBU7NpW9iA99+qjXVvA1m7y0HXO3JqYUuM9jSxBpB9dIePLGB//jBvIQtnahsJEZETMT5tJ2DpHIN9Y6JxOBF70hCCuw2ieJcz0DN170FAyhryy7+MN4JEY3VQky0KsrdSWi8LTZwef39/YmJizvBdy5h6ST4Zv0Z6ZMmy1waz+64s57y4k83/8lr5k/gUkvpWlIxmfxbOmhuPc+N0Z8mcIzWK75PyucjjIn7M+iWEGwc5WLPGM/jK/iyCK4H1E9wylY4g1jwfW61AqeL8FJKMGLtkRyNaveK875vTGsHMVJ5cnewsmXQEseb56BplzrI/C+eVq/J50njGamff8szcfHcTlr99uLzc1ZEazYSxniulVgTNzhVIX0mNZsKdoXx6snYf1z+Vct66k8QLD8ITr3Xmb693ch7K3MvCx9NPIbt0CrZZuQjY3zOZpMudh47/GkdXY3GXaT9HMXhwxcqee3dEkRlZkQn0XBkUY+VPryzgNiuLmyYz+m6j9M/X6qA7P+T5CUd4aO5Q7rxyK39dn8esS3M4vjPOc+GUtUH89kCGc17cSYMRr5U/W6Wwf7VbyejaMFbdmsGoqckkTQUyrWzcDd65o6k/hjNqeBEbvVclXRtGF2DrNPdMpYWNsxpzW3UCpfLzneMCjMyi89el0xvB9FRmr0o2Siad165R5mxtGDP65THb9YzVzr6ZuG1UHEsWp1SUu2ZamTLKa6VUt6D5pVWZvJRpZcooZ2bzxO0+rk/Nynnb3Pk72iX/jYffqmol7J1s3JPDpJ7X0e1j7yAxkMHDGrFyRSprXffPasCL94Y6M3+LI2kN7HIrmTy4slkNM2eBDF4cya4xB0kaDDXJvr04uSnMOcRj/zzOYwCEeqxkOnjqURYYq5KCawXSUD65K5qHjnivLIrzOm4rgFa+PpVWJ62W9t1o2TCFbf/xNevvMBkZDmgcz6VdgtmwQdVJIiK++HWcv7wMnHMCPUs5jZLPaOMbwIOJ5CypKA/17/8UoV3dAiev9rOF1WplypQpTJs2rco+ISEhDB48mGXLlp3BkZ09XFspOIMbETkruLZSGFV12aacpWIHMmnKQCz//TMveW8TIaet/x/mMaBkCc+9tsHnfMD+f5jHiLhfee+511AMKCLimzEn0Bfn4i9VrfVS+tXz5HxVV8M6sxwOB0lJSfU9jPoRXcDS6wvY+V60AkCRs4ZzxdG9y20KAM9Faav54Mv2TBk4ihs3v4TiwNrT/ndPc3Pcr3zwnI8AsP8fmDeiPZasnxQAioicxNlQl1bvioqK2LRpU30P48wqLyV1lihedQoLz4hIbasoJT3+bRxdTmXhGTkrpK2exxuNnuXBUTeyuYpN5aWm+pNwWQlrp1cR4H31KpPOky+nRUTqmp/NZjuvv2euTjmoiIiIiIjIhaI2lvw65/n7+xMSElLfwxAREREREalzCgJxbhExePDgk3cUERERERE5xykIFBERERERuYAoCBQREREREbmAKAjEuTrounXr6nsYIiIiIiIidU5bRODcJzA9Pb3+BhD6KG8+dgPNjq7luVefYYOPLtEJ77K4T7zzhSOVde+N5IW9NbvN1ePmcAMf88LCr8k+7UFXT5d7ZzC2ewMA8neuYPa8VaTWoF3qip3Fw1O4ItL5at93Nvr9Ur8jqlUdMtnfKwc/gGwr05aF80FZDdprUas7pjM+bgvzXvqYpIqDTL83iE+m/Y0ffJzTcMBEJnXdzxvu54iIiIjUkvM+CMzMzDz3t4cIfZRZfeLY/nlfJm08tUu0HvkkI+L3sOwFtwDwhh68NbSJRzp438rPeO7fpR7n3vTI9dzY2uiVuY/XnviFbx3VuGmXexnZPo0Vzz7OKvMwHnn4Cga2XcW7v1Wz/YQCGf3kdQxo7nao6BBLJmxmlXs3a0uem9UBZ7dSjnyznmnvHa/ODU7CM4hyOf5rE7r/z4y9GlcY0SuVlyMjabs6iKJaGFHNmBi1zIbrOZr47OP1jIdiaVObY+2Qyf4OJh6viwBsu5WLtluNe5xCey1pOGAiD3TPZ+08r2Bu92rWH5nCHVNuJN1HoHf0y8/YceXDPHjfQab9zVeYKCIiInLqTOGT5wNgXz+Vgo3eu68mEDRpKOYAKvexjSZkeE8C/H201aOZM2eetE9mZiYvvfRS+Wuz2Uzr1q3Zvn17XQ6tanmzuf/p2VU2h7ZoQoOSXXx9igEgrUdy25Xh/LbsFb6ulAJM5fOHvuOjEqBzB14edz1P4woEo3hgxhX08t/Pa+OMwK9zB564J4ZNb6Zzsjiwmc1KUH4a+1KBZgAhRF3cCH5LrVZ7dRTt2MyD8w4BJvqM68vdr3QDIxAMubIzM+5sTsE3/+Xu9447+zzQhXvab2LRjmpcvM845lydzosvLCWtUqNnENXhcPWDv3NDIV/dnUbLlFjaLDMCvw6ZrLkkiGvOp4xhXWo4gNHXXcTRtfP4uFI67yhfzn+dRtPHc9uNW3mpUofd/GPBciZOGcF93X9AcaCIiIjUJlPOnIlGQDcNy7HnKd5V4mwxgryyDVPJ8RUc3uLW5uv8evTss89SXFzss81isTBhwgSPY2azmfbt29dDEBjKDSMXM+ESZ6qleOffueEfiyr1CmoUQyR5p3yXqwf0JPy3j3mlcgTo6aftfLP7Ym5sF4+FfRTf0ILLo9P4/CG3zN9P23nhp+rd9+DmnaT068PgQf24qs8gWuRuZP6q1Gq314ydrxfvJ2FWazolwKrEQG66Jp6gHZuZVJ75s/P165v4urqX/DqR7/o8xPRZMSz+00L+m1vzMXlmC8NY+k4Uj5ae6Bw3TXLZMjiDKNdrH5m4FwYc4I7mrjSahW9XN2bkId/n1yxLmUWLHCvTvnC733Yr13j0SeXlDkXOkkq8Sko7ZLK/eTBTs7KYZfQpv7/XuGbenYnzqxu398eVJfyfH48OMvp6PP9pvrcndeIs6AsDDnBDXmNeKM3gJeP5vEtqWw28kouOrmVe5QjQsJvV6/czpf8Aun/soyz06Jd89uOVjL/2RuJ/UFmoiIiI1B5nHi85jVKvcixT9x6UbfCd3fPv3xtz3laKNxltyR9QvD8Mc8tOdT3eaikuLqa0tNTnT1XBYf3I49Olw7ju6SG88kuWV1soN4xcwRfPrXPOBTR34PfPreOL59bx6R331OAeV9OppZ2kX7bWeB7gTe0a4b/vKB+falx/cAWJ24ppM2wk8b/OZ9zT7/JbTdpPh7UZ7ZqXsOeXQyfvW6WdLPnTBD5Mbsmol55gZGzNzh7R6xi9c2Nps8hG/CIb8YtqEqQU8tWgDLK+c50by564NL67oqS8hvuFAQe4I7IB09529XELALGzuFMZs11tK6MobXeMD5pW5952hjctIisliKVVlWl2yOTlDmY+ese4/sZwLrr8CEvdr980jRcjI2lrtEe2y2GmP3A4jK7GsbJsq9v4vd6fiExmDiom8R3n+DOaHue9pq5nP8wVbu/tPw7kMfKWHEb7USs8rx/H/8I833uABu0OM9t4vsnbA7monfv9W9GrVSSHf9t6wuDt6NbtHDS1pGt33+27N+4mq0lbusTXznOJiIiIgCsI7NoWU94+HPtcn/YTMMXn4oi4j7DJ8wmfPJ/wyQ9jtridmZ2Owy2lUJqViX9ktT5hnhGxsbE0bty40o8vZWVl5Ofnn+ERnowrQOzLqK+ToGQ77z3dl+ue7uszW1il1k2IMuWQvrMaIeANPRjauoBNifupjVC5y70zGNs+j72HCwmJuphGNGPYI3N57s621WqvmUBGj+9AXOo+VibWwuDdfL1wMvPW+XHV9FmMuzqsZic3zedPp7AGrysT98Y215Eg+n8bTmRcISP9gCa5DGlu5tsNVc2nMzHqC7e2w0H8mlVMrLXmY6nMzuL2OWT9Gs40V9C23cr7B0poG+8WKGW7ZRK3B7O3rJh435MPq2Dh29VGYOg+ftez/1KRmXviy4bsCc/jprjaeL5CejcLZemXruubGLXD7b13cXu+fyaFkhlRQldXe8OLiQ4tJOPgSfJ3R/dxLC+IqGZVRHlZqWTarTSMOd1nEhEREangMSewPKizxeLvF4nZ+j05c151drx5LsF33U3p22/j2L0Hx6WXYWm9yln+aRtN0KUxkFJPT+HDwoULfQZ9ffr0qXSsoKCAlStXnolhnXmNY7CaT9ShEUP+MpQhAOSx6c01LNhUC6t0NBtGQkc7G19/gXfzhvHIwwmMGlRITlQpGb8cP3l7NQW278bbr3cDwJG6k3lP/0a1p6w1H8ajfxzExUGuA0fZOP+ZEyxME8ElfYYQ+19fcwQr++fGRnQNP8AdY3IZSc3KMQHIMbOsqj8KawlWLCQdrvp073JNgH3VvXc1ZGbX8RzI7FD+Xf5vimsOJjhXsTnxs5+WJnasfrmMNP7cKsbjGUEfd8+UHg6jq/t3M5GNsIZSjSLuLFIz7XRsGAO+coZGkBjXLB5+UEGoiIiI1A7nnEA6YBkzg9AG75G3arPRlETh8k/KO9p/2IRjeGP8/cGR/AGFPz5F6LCXCQTI3krBz+lYTKdTele7RowY4fO4v/8FtjXikXQyS6JO0MFtYRgvSRm5lPVsyI3mfT7bTyimIVGlGfxyHEhdwcvvNmTG2JG0yd/Jii2p0OQk7dVUsTCMd0MuGdlm2l3SFBKr+Ht5YAWzH15x0nv0GTeH2y/JYO30cSytTvTn5okvm/ME4Fxo5TA/UINAMLyE4X5B5dm8ERHFlC/om2km80T52g6ZvNyhjO9W24wS0ROtAurNxN5sP66IK2Skn7nKlTutESWYcD2LnRYRZdWJemqJkVUsn/9ox+oHtbfRy2nOMcxKJTOvYzU6RtLIaiJzfxUjr25GUURERKQGjIhoO/bkjIpyzuQ0Sssa4BdfdQqp9KvnyZkz0fnz5tsQbqXseHWWXJQzatdhMuzhxLSJqPGpWxbtY3dpI4ZMvpjySuDOHXji/hgCTnZy+lEy/NtwxUCjtHPrD+w5XoP205WfyrvfpxPYvhOPJrgOmujzQA/uaV/9y/QZN4fbbXtYPOWFGgeAnkyk1mBSprO8MJOx5XFEIePaF7H/V6PE83AQv2blMnJAofOLGJ8qsmUjeh2jd2SVHSt54hcrGRGZPNbbrbyzQyZrLnE+y7JDgRVz/AA65NA7MowvNtYgO5hpJjPiFEo4jdLQnpdUPPsLl2QSdagBv6+N76Gq9d6exMnKPF1OFuRFNsJqyuRoPW5jKiIiIucf4/NdApbOMdg3uiZTJWJPGkJwt0EU73JmA03dexCQsoZ8H8kH081zCbas8bGK6LkhKCiInj17sm7dujN7Y8tNzJrwR7qVx2d38cVzd1W5Suip+S8/77mJUX0G0fjrpRyp0bnJzPg/ePyvl/L665c4D2Xu47UnTr49BAdd2b2JLOzlPJS+8XN+aDeEYY9OgtnzTtp+yguFGjKWbmAyvZlz61DevhXK9wms7ncVfcZxo/Vbpk/1Vf7ptXpk5GH2tHMv+fSxj+ChWNp4ZwGbprHzHq8+q4MoOhxG15WwZXAySZc7m47/2oTu5bWuJkYti2Px8BS3891WB90ezob2KRUljYesbMwqopGrq/fKo5c771O+wmX5/Z3PVTE256//3NgISOXlMclGyaTz3jXKnB0O44Xtebw8MNkohKxu9s3Hs2dbmbbMc/XOilVTjRVI3TaFP3G7r/e2puW8u9m4O4uHe1Wx8qehYZcONLPv4cMqOrTq1YrIw1vYqkSgiIiI1CK/jvOXl4Gvff46YBlzP4HRxlf9BxPJWeIqD/XcP7B029/dykjr18yZM6u1RYT7PoEhISEMHjyYZcuWnalhnlmtR/LkQ93JWPYCC0+2TYSI1I6GA5g4ZQiB38zzsQ8gQCvumD6euC1VtDccwMQp/cn7cJr2CRQREZFaZcwJ9GU7xe/8sYpZR4kUzkuksO7GdVqeeeaZE7ZnZmaeoZGcJXYtZcn6Njx0/R302brQx4bxIlLrjn7JB190YMqQ27hx60teG8Y3ZMDEB+ieX9U+gq24Y/zNNP7tLaYpABQREZFa5mez2WphKchzm9lspnXr1vWwWfyZdfW4OdzAx7yw8Osa7xkoIqem1R3TGR+3hXkvuW343uoOpt8bxCfTfJeKNhwwkUld9/PGS9okXkRERGrfeR8EXnTRRTzwwANMmzatvociIiIiIiJS7y6w/RJEREREREQubAoCce4dGBISUt/DEBERERERqXMKAnFuETF48OD6HoaIiIiIr6qLLQAAIABJREFUiEidUxAoIiIiIiJyAVEQKCIiIiIicgEx1fcAzgZFRUWsW7euXscQ1HMsz9zVhcjSNP63YDr/2FGvwxERERERkfOUgkDA4XCQnp5efwMI6smdN3Wm6H+vMk7Rn4iIiIiI1CFT+OT5ANjXT6VgY4HzqG00IcN7EuBdLJq9lfy338ZhB0ggaNJQzAHOptJtfydv1eYzNe7zi6UpUeHp7P5BAaCIiIiIiNQtU86ciUbQNw3Lsecp3lUCyR+Q/+cPPDvePJdgS7oRAHbAMuZ6An79OzmrNhvn30Xw8R0VgeQ5xGw207p1a7Zv317fQxEREREREalTzlxfchqlZSfqloApPpeizaucL7tegyX6AMVfGZm/5A8o3u/AFJ9Qp4OtK2azmfbt29f3MEREREREROqcMwjs2hZT3j4c+0p8d+rfG/Ph751ZQsDfGoXfwV2UFLvanyK4RQBExOAfcEbGfV4Jah9DpCODI6oGFRERERGROuYxJ9BZ6uktAUtnM0Wfrarc1HU8Yf3b4Je9lfxlewi8uTH+/lDqqNMx17qysjLy8/PP/I0jbmHqrASapf2PBRPfQDGgiIiIiIjUNf+cORPJmfM6jnYzCB3UrXKH/r0x+8oSNksgvEc+BfMnkvPm2zisVvxzMyktPUMjr0UFBQWsXLnyzN84+1/MGjeOR1aGcOf8CZybxbQiIiIiInIuMdb/3I49OQP/yKZezQlYOsdg//lDjyxhaWYGZSRR+Pe3y4/7W6Pwy04/57KAZ4PCHelkBUTRWNMSRURERESkjhlBoBHsJSV6NvbvjTlvK8WbvFb83PIbdkc8QTcP5UTni4iIiIiIyNnF9z6BALbRBF0ag33Dyz7mCiZSOA+YNJTwyQm+zz+HBAUF0bNnT9atW1ffQxEREREREalTzn0CffGxV6CnRArnJVJYJ8M6s/z9/YmJiam/ARQfIiOnL1FNQavDiIiIiIhIXfKv7wEIUPgt7/57G01uWcjCv0znDs0NFBERERGROmKq7wGcDUpKStixo35TcIXfvsG0b+t1CCIiIiIicgFQJhBnELh9+/b6HoaIiIiIiEidUxAoIiIiIiJyAVEQiHNhmJCQkPoehoiIiIiISJ1TEIhzi4jBgwfX9zBERERERETqnILAs0BISAjDhw+v72GIiIiIiMgFQEGguGlA6xmtib/E7xTb61m/ZvSa2oiIALfXsy6h96xL6O1+XASAYJo/2pHes2w00jrJIiIi8v/s3Xl8VNXd+PFPJpnJTDaysyQkEggQICwCAm6JMVWwaqWgj1Kt+PRBWvkpVqQPWNEiFq0oYm1prU+LWosr1YotqCjBVkgFaZCQsCYmkESyk2Vmksny++PeSWYmM9lIcrN836+Xr5eZc+89595zE+53vuecO4T4BK56AYCGL9ZgSbcon8YswW/RHLxdQ8SqDMzbttHYgPN2hXuofmtnnzW6p9XV1bFv3z6tm6G5gMVhhJ8tJT2zuVvlzkyMXh1H2NlcjrxpptnjZ70o7RzpaeeUYHBub1cmhBBCCCHEwOBT/dxKNZhbi6FsA/WnbJC/HfPz2503XLgZk6G0JQDUpazDf+w56vIb8R7g36I3NjZSWlqqWf39Iwg1ETLGi8JdlR6Cs47KhRhoLJzddIyzWjdDCCGEEKKPKeFbfjFNzRPb2SwVn9ga6v6+W/kxZgnG8AyqX96Jz8LNvd/KQU7rIBSA5DCivKvJyvYQ4nVU3k0Bi8eSOMuk/lRH4eunyVMzjQGLxzLWp4jCwDGMG6sMQS3/9BgnPmn2sD9QWdKl+iOWTW45NpUlHNt0nqrGLhwgOZq584OxD5C1ZOS0yXxGh7U9vnJuNVimRhCmqyLnkybGfCcYr7wC0n9Xoe4fTPzGaMJ1no/tl5FF+SWT1HNwvn5MiGTq0kj8vdzt34EJkUy9xYtvDuqZdJ16fk5ta3vtXfum/WvT8f7O5VXkPJrP+QY8lLfd36lvXa+NY9vc9rvztXfexsTo1VHodpViWGLfpm37hBBCCCH6KyUInDEBn9pcLLk2txvpUuahLzpI9Sm1PH875vy+amLv0+v1xMfHD+EXxpsYPXsYFV9leQiAOirvpgmRjPIuIn2NEhgELB5L4o2RVGS3PpD7TY8jKiOH9DVm/BePJXFmJEGfqeXJ0UyZZSPn0TPKw3cXh30GLB7LuLBSjv1cOV7EsslMvrfeKdBpV3I0c+ebKHr9WGtw4XT8cHS7sjiQ2Yw9aIu7tZojb5rVcwui8vUznFsQR9zsUo69WswlPwwk0qeC8w1KoOH/dQ7pb5ppJpj4jXGML3MOdEKvnYxJvT7hyyYz7qpg8jMraMbE6CQvvnk0U7lWEyKZujSKmMzTbtvqVnAEky8r4djPM6lqVIKi8d+pVOp3d+3njyO2yH78YOKv83xtmBBJ3EyH/d1cW8fjByweS+LDw7HYA7FO7D/WoW/baHeosOu1V/rO+d7wZdSdERS+fowDmUZGr45j5GI/ivtimLMQQgghxEXSBa56gcCU8TQefbN1rp+TVAxT9dQd3t3Xbeszer2ehIQEzer38fEhNjZWs/qZEEhIaDWVez08vnZU3g7T9LjWxVmeHtuaFQM4UczJt1ofmmuOVlM7zBeT47ozeQUt2SPncjUw/fRsN7Mv6vDWD4tbgoSSz0uojQkkslPDm5X6rRkF5HsIqmrePesQAFmoyLViCvF1OLdS8jOV/y3/qpiqJoedJwQSoisl5x379amk6LCF0HGtmTXlGK3Xp+TUBZqHGQj0Vuo7+weHAOhENRXlBowjO3NudlXkPGs/RiWVuc2Ywkx4tZx7KcX2a592jjNnDIRMMTm0z9flZ1dBBF/jvjQi3rlva94tozQoiJAEr07tD0Cw6/adlBxGVFg1Re/ar72Fsx+0vTfKP7UHvG76VgghhBCiH1PmBDIJw9KN+Af/mdrdh5020KXMQ1+bi9lDllBcPIPBwKxZs8jLy9Ok/oirI9AdyW19oO9ieXvcDWEMayl1GS4JQFXXK+kWX4whRsLvnMwop887W78vxhAvLBkWz5kfl+GYAHS2i0ca8AsJZvIvI5w/d9m//LTDHM20c6SntZa1GSoLlHeyek+UQMcKgKWsnXOnklOvGpi6NI6506HNcMkTxXz9kYG58ycz71raDLc0BitZznnXOh6zjkI6sz+Qdo7M8LEk2vvXZShrhyrrsEhKTwghhBCDlPq9dhYN+eX4RkQBjkFgKoap4TSkP+shSzg4NDc3YzabtW6GRoIJHlNPxXZPD/QdlXdfxLI4or0dhuxNiGTqUmMP19Iel3liXdzXWtGMn8fyYOLvjkR3xD6kUA3KIjzu0FZ35ijaJUczZZaOwpbhmOocwm4cypGloq7l/5WsYGuAbwwGqh02PlHM12uLAfXcn4wBx0DQPiQTdSjuapzOt80cQ1cd7F/z7hkOvKu0bfTqOOb+hM4HgsFKxrnlK4GRBvz66ZtRhBBCCCG6Sl32QA328vY4F6bMQ1+bQf0hiwZN6zsWi4Vdu3Zp3QxN2F/74GlIY0flF+1CPdX2xTZujnDOmrXLgrWS1uGREyKZen1wO0MPXVVSmWtg1I2R3Xx/oDIEMPTa0e2+Y64lWzYhkriZJs8bukqroSwogrhb/bpwTq7qsB63L7IzyiXj2kXJ0YwdW09FpoVm+/DH6eGtwyPbDKF0VlNa127wZamwOv7UqWvref82pVgrO3ccQLn2TUGMXGy/9m6GvwohhBBCDGDu3xMIygqg08JpOOAuC5iK8cGb0Hu3/hy4KhXODez3BWrFbDazY8cODWo2ETLGSHlGe6+FaK/84pR8XsLIpVHMfToKgPL/lFAb2vl5VSUvFxC8MVrdv4qc14oZflNroOO8OiTK0EqH7FrJy8dg2WTnIZddGDZY8+4ZjjKWxCenEKd+1jr8tZKiw2EktgxprKLwsAX/sHYO6KSSU49A/Eb7cEpFh9kxu7QyCmbHEWdvW14JBWVGuhCGAkGt+7tkTdueu1LekuVzWRnUtbztUNUqch51zuK5XlvX1VXb29+175V9W/u1/XvDzbXPK2jJ6AohhBBCDHReMTExg/q55pJLLmH58uWsXbtW66b0P8nRzJ1rI8vTkMOOysXgpQ7NPb9OXnsghBBCCDHY6DreZPAzmUwsWLBA62b0vbRzpD/dToDXUbkQQgghhBBiwJEgEPDy8sLP72KXzOg+o9FIUlKSZvULIYQQQgghho5OLrsgepNOpyM8PFzrZgjR6kQxX8sIaiGEEEKIQUkygYDNZiM7O1vrZgghhBBCCCFEr5MgECUIzMrK0qz+xsZGzV4UL4QQQgghhBhaJAjsB+rq6jh06JDWzRBCCCGEEEIMARIEoszJ03JhGCGEEEIIIYToKxIEoqzOOSRfESGEEEIIIYQYcgZ9EPjNN9/0+xfF+/n5sWjRIu0acOXL7H5iH28tWuBxudj/WbqXj5/Yp/z30Ca+0+U7Zzo/2vgsD84ffpGN7Sn+3LpmPs/cE6x1Q0S3KX247aUk7p2odVtEzxnPXeuf4keXat0OIYQQYvDyCVz1AgANX6zBkm5RPo1Zgt+iOXi7PuhXZWDeto3GBmDGCgJSxuMFwAXqPthA/Slb37Xcg6eeeqrDbSoqKnjmmWf6oDWDxJUvszjuG95/4h62NnTnANHc/PAPSSj+mE27z7d8eu3913HnFF+H7crY+/h+XvvWcd+RPLRlFokm5aeqzEOse7GIqu40oztGj2Hdw1OIayrkr09/xc7zHe/Syp9b11zF7PPp/GxbZZeqjb3lMtYsCCb//X/y1C4LEM6KX81jVsNpNv08G+2WMeoK5fxvGNPEyZbz6LzYWy5jzexqXtTqfC+dzPPL41C+Jqjr1jn0Pfs117cpMZ88wobn8vnWzV59rf2+PclH+8+z+s6f8b2SZ/jbWQ0aKIQQQgxyPtXPrVSDvrUYytRALn875ue3O2+4cDMmQ6kSAJKKMcmXuhdXYqsHXco6/G++n+YXN2Or1+Q8nKxfv576evcNMRgMPPDAA06fWa1Wdu3a1RdN65/+tYz5//JcfHV4KF55/+SP3QoAIfrm20kekc/Hm3bTJoYqOM7PnzhFIZBwxxU8tP5ysAeC4+N5cuVEAo8fYqUa+CXcMZOlSaX8el8nvnCI+wGP3+vPrjV/4MvuNZ3YmRGE5B9nnz6aKZea2NlHQUBkRABNFTb8R/gCFrh0OFHNNVj7pPYeMjqSicElfPa5NzMmRTBiV08HILW88/Ru3unRYypag/A9/HSXBfDn1gfGc9PhI138IqCvOVyTSyfz/PJwsp/fxx+Oa92urin+aAsvR67nx3d8j8PP/A2JA4UQQoiepYz+yy+mqbm98VSp+MTWUPf33erPe7Bu2dNS2nT6DI3TJuIVq4d+kA2sr6+nqanJY5mrpqYmzGZzbzfLo7q6Ovbt26dBzSn84sHHuDxUyefm7L2eH+9tG2aMDw5VM77dMZ3r544gf88mdnfw8Jz9Rg7Zc2Yx/hoTvGHh2uvHEHX+OD93yPxlv/EVnX6jY85uvihcw9It/0vUll/x3jfuNgpmxa+uYlYwQBUHnB6Y/blsYigN50+ytyKElU6BTDgrfnUpQWmt2aHZy1JYGnSaDc/lM3pZCvfN8lcOM+Yqts1V/tcpG+OUaWqbqak9V0xd9EgmUYn/TD++OVCMKdmPscMh6zytWUqjh2MvamLnwUBuXTAco5vju9Zfkv5Pp4ylEggp+7Yobc1EOpe7XjslgB7VWM2Oz61csiKC2cPznQMol/a3HNupXcNZ/dI49QQdsrGO25hdsrTugp82n7lkzEodM6zh3DhvONXpjpm/Wt759RGHxquZWfvFc7kuK8fWUhgZx+TgKg78o5SEG+IIdqzD5dydr7393vqK09Nmq210ub7t9X1ntNf3l07m+buMfPZaOdOXqnWUOmegZzve37Rtg8d7ozN9qzr50X7yVydz3aV/44+HO3tiQgghhOgMZcDnjAn41ObSmOs+gNOlzENfdLBfDPccjBobGyktLdWg5s/4xZZkrntsPfvLm13KUvjFg2l8/MQ+bovTQexCdqpzAn9/jdHt0dyaPpOxhnMc/09X0ycjmTbWl4JT5yjs4p6tytjz69U8e9DId372NPde1naLiLnjCUrbwz3Ld7L1kDfz7kpgkr1wdCQTR1o4faCSvPxavKIjmN3JKY0HX/6Me5Z/xj9ybZSk/5N7lu/knuU7WWF/UB89hnV3R1H8vlL3PU9m8m3MNB5ynKNYW85xWwhXTgznspAa/uWUDvHn1oVBZGzc6bD/RO5ZYGrdJHwcd82u5sXlO7nnpRzqx4/h5pbvesJZkdrEy2q77nkpB/3caa1z60aP4YfXKJkw5drUKg/qv1YDgUsn8+ACE/95Xtn/F7sszFg+k5uGt7bvsomhVJ8uIutsNeVeYUy51KFtahATmNF6be6xBxmHj/HT5Tv5xa7zWEtPs8le/lOHIEHd5p6Xcmgz0PbweU5XBjFuXuu1jI3xx1hazL/UIGr2sjncEJinHvsz/lEdy4pVMYwAuHQ444KrOH3A8xDe2cvGYNumtmv5AQ75jGOpQ9+ZxkehT9vPP3JNzEs28tnvM8kJiOTKieq1/38O5/5kJtXTL2OtY9/hy/hbLmf2+XT1PjIx7btq+zrT9+3qoO8B/Ebx/R/HcP53yvFzAkbzPfvxL53MklmNHHh+Z8s9TulpfuvwBYTHe6MzfWtX/B+yC3wYN0MmBwohhBA9TRe46gUCU8bTePRNdainq1QMU/XUHd7trhCYhCFlNt6F/StIjIyMZMSIEW3+c0ev1zNp0iS3ZUOXPUBM4u2cJsh7j5seS+K6x5LcZgs9iY4JwWguJ7cTMeC19yeS2JDP3g97dshlzl/Ws+6vhcQv3cL/LrzEqawk/cuWbM/Br85TGW5/UFczWTVq4HD4PKfrXQKZizB7/hjias7yN3um6Wwur+09T+C4kUzCn0vCDICFL483EHPzGEJKilzmTimZqZYH57PFHC/SETLCYY6lY9B2+DynK30JG2Nvfym/fcZhPpZLeezMCEY1lZF52OHa+AUwMkRt/8zh2NKPtGSm8t7PIdPx+jgE0FDKl6cbiJ4Ugf03UDn/07zSxbmSnVPKhwfs1xKUgNSf/H9905Lpu2xcIwf+bD//Wt75+Cz1XQryDzpkPUv58nQt/qFBLedH6Vn+tkv5PSn5+gw7Hb/juXQ44xoczv1sLrszna8PKJm1zdsqgVq+PF6OLtSfUHt7O+r7Dq5Pe32vqOPk+18q5+hy/NkzhxPcElArbbP6KRlqe3m790anFZNbZsY3bDSju7inEEIIIdqnzAlkEoalG/EP/jO1u53H3ehS5qGvzcXsIUvos/B/8NV/jfn1nX3Q3M7bunWr26Dv6quvbvOZXq8nISGBrCxtltvw8fEhKiqKvLw8TervTeERoRgp9rxB1ER++ZIadVXn8/r6I3xa3cmDm+bx48fuYuow+wf1ZL/7IC9+5mkHA7FzruOy9zzMESwxU94S39ozWSfVh2UlkFnag3PbzOW1lHewTd5XJdRdE0PxB5VQG0J5XWsW1t1wzZIuJFzbDumr46S93vxarH5RLfMglQf/IvXBXwlSIxyGubrubw+gd6iBwMGvzrPkLvuQUGX/zpx/d+V9VULhNTFcOTGbrNpIJgZXkaEGtIwOJNQYRNxPb2Ke407mLuScXYZTAphPetzaSWyMP8Zwh6GQbvev41xWSct9lvf+l/zkfYdj9GLfK41p/QLAde5lcUkN1lmRyrU9rvyeNJ3L4uB56My90RWVxRU0TgonAmReoBBCCNGD1DcCZNGQX45vRBTgGASmYpgaTkP6s26zhD4LN2OKO4f1xW0esojaWbx4sdvPdbr+91YMg8HArFmzBmUQWFpSjjW2nQ0cFoZxZqa0opHE+GhG4a4csBzg92sPdNiGuB88zsNXmMh45T7+0N4KMRF+hDbVkFGBmsnSt32YNbuZ29ZNfmpmx/6gHxkRgBF7BFxHxbd1cDaXDStzlY9GAyY1Gxc1mQfVhUuesi9csuYqZney7thbLuO/1SF9SsZGnYdm36DETLnVl/G3pLLtFlDmdTmv5Og6h7CVEhi0DXTq1KCylm/K6mmtrBecLeZ40QRmzwsmtiKCkJJv1SDFru0cxhYGM+VWdTjpcTfnN3oM6+6Ow5b+T+5Rz1+ZD9qF9pVexCqvl/Zy33cgL78WK8OZZw+izYX89WnnL0Y83xtdExwZgndFLiUXfSQhhBBCOFIjIjXYy9vjXJgyD31tBvWH2g7Paw0A+8eKoBejublZ04VhBrNz+RVY/UIZ0+XXA17gtX2FWKImct8drcPIEu6YyQNJbZe/9yTuB4/z8Gwrnzyzpv0AEH9uvW40hnMlSrAQ4UdoUyF/fWxn65y1JzPJ0TkOa/NtGSKnPFj7uxxTCXYiWoYltlKGnjrMsxo9hvlTfDjZMmSxM+ooy7Wo9U8mxc1rAdplrqGoQvnf2cumti5ygjJcc0T+Edbaz325Y8CkDAEMdJ1H1sJEZEgTJ+3zHe3z7nJ1LUMeD351nvrx7c9jy8uvxeowPLdrlDb6hEZwzUQfjv/dIUg5W8zxIpPz/E9HZ3PZnVlLhNP5+XPrA9Mc5jyqQTqoc+Rc+96zvK9KKAxwnkPYdb3X9+1Tfk9sDvNcnefzdXRvKDrXt5GMCfOjruysZAGFEEKIHub+PYEAMUswTgun4YCbLGDMEgyXeAOxGO9/oXVI0rk9VL+l/bBQg8HQ7isiXFkslqH5ioj4jWy/8wrC7Ut/XvMRH1/jeZXQbsn4ijO33cvl109g92snurZvWgb3AVvvSGVbsvJRVeYh1r3RybmncT/grsQiXnnQ8ysiIua6X7lz9szhGM6dds4eqdmlZHVI6G/fyuH55er+paf58FAAKS7plIMvf82hX81ryYi11HH4GD99CZ5fbs+0qdkT9Z2AkSEdPNQf/ob9uaO5wZ6NKc3ny1wbYzp3ZZR5WvPm8f0nRvF9wHwyh2OVUdhrPbg7l/kPT+Opl6Y57NWaPct7/0ue5jLW/PQmttmL7Ss8Rg1nnKGMzw47fnmkBAcpSWom1c35t8mOHT7G9kMp3OeUcVICDtfhjN9/YhTfd1lhMu/9HM78ah5JDafZ5JTxq+Wdp/8Ja65yylQ69v/Blz9jKw51298TeB4gl92ZY7jPniU1F/LlsVqmdDYOO5vLhmdh3cNXse0l+4ddeA9hL/d9+5T5k5cvd82Qt177du8Nh4V9PPVti8gZJEQ1cPoNWRpUCCGE6GleMTExrstCDmjysvj+J/rmh3no6gY+3rSlw9dEiP7B8XUX3zp8dt8lRQPoZfWi56lDT8+nOwz3VD5LtmX16Mvox9+1nh+PPMzz8p5AIYQQosf5aN2AnrZ27Vqnn729vQkICODChQsatUic++BN0sY/ROod8/nPFjcvjBf9jLo6qVPCNZzLxvljLu69xVzEQGBSstRO73tU5s/WZlT1WAAYef2DLJtRy77nJQAUQgghesOgywR2h8lkIjk5eWgOCe0z0/nRxjsJ/HwTWyQd2P+5vsidbryQXAxOblZG7amFYBTjuWv9PRj+tlZeEi+EEEL0kkEfBCYmJrJkyZI2GUJHfn5+LFiwgB07dvRhy1oZjUbmzJnDvn37NKlfCCGEEEIIMXT0v/clDEE6nY7w8HCtmyGEEEIIIYQYAiQIBGw2G9nZ2Vo3QwghhBBCCCF6nQSBKEFgVpZ26x02NjYOyhfFCyGEEEIIIfofCQL7gbq6Og4dOqR1M4QQQgghhBBDgASBKHPy/Pz8tG6GEEIIIYQQQvQ6CQJRVudcsGCBZvX3hyA08e4N/HbrVrZu/BGXemvaFCGEEEIIIUQv8glc9QIADV+swZJuUT6NWYLfojl4u4aIVRmYt22jsWEShqXL8A2zb3CBug82UH/Khug6exCq1SsqSLyb2y7z5vD/3c8fDzdq0wYhhBBCCCFEn/Cpfm6lGvStxVCmBnL52zE/v915w4WbMRlKaWwAyKL+lZ9Sby+csYKAm++n+cXN2OoRA83oMEIunOG9IxIACiGEEEIIMdgpqbz8YprafWV8Kj6xNdQd3u2+uKyCpqYeb1ufsVqt7Nq1S+tmCCGEEEIIIUSvU4LAGRPwqc2lMdf9cE5dyjz0RQc9DvfUjRuLd+GpAZsFbGpqwmw2a1Z/XV0d+/bt06x+IYQQQgghxNDhNCdQGerpKhXDVD11f3fNAqZifPAm9N6gzAn0kCUUHWpsbKS0tFSz+hMjQvCqOM1RGQ0qhBBCCCHEoKfMCWQShqUb8Q/+M7W7DzttoEuZh742F3ObLOEerFv2YAWUgPBZTOkOi8sMIHq9nvj4eE1fGK+JGx7iNzeOo+qr/+OBTYeRGFAIIYQQQojBT13eM4uG/HJ0w6JcilMxTA2n4eibHrKEdntoyGtEF5zQS83sXXq9noQE7dru4+NDbGxs31f8j838v/vu442Ghfx69c3o+74FQgghhBBCiD6mBoFqsJe3x7kwZR762gzqD3WQ3YtZguGSGmxnjvZSMwc3g8HArFmzNKv/aEkFzSERJMr7AYUQQgghhBj03L8nECBmCcZp4TQceNZNFtBxPiAM9PcENjU1aTonTwghhBBCCCH6ijon0A037wps5TgfcOCzWq2ars7Z3Nys6eqkQgghhBBCiKFDp3UDBFgsFm3fU3i2jIphoUTL3SCEEEIIIcSgJ4/9Ao6+yttfBnH9C1vZuvFHXCpzA4UQQgghhBi0fLRuQH9gMplITk7WNhunsaOvrmPFq1q3QgghhBBCCNHbJBMIeHl54efnp1n9RqORpKQkzeoXQgghhBBCDB0SBPYDOp2O8PBwrZshhBBCCCGEGAIkCARsNhvZ2dlaN0MIIYQQQgghep0EgShBYFasgt+QAAAgAElEQVRWlmb1NzY2kpeXp0ndPj4+xMbGalK3EEIIIYQQou9JENgP1NXVcejQIU3qNhgMzJo1S5O6hRBCCCGEEH1PgkDA29tb5uQJ0e80sun6AvL+u5g/R2rdFtErIm7lkV+v4/bxnd0hhvAlO5h2S2r7m4XczbiHdzP3wQ0EdadNz61AluoSQggxmPkErnoBgIYv1mBJtyifxizBb9EcvF1DxKoMzNu20djg8NmMFQSkjMfr3B6q39rZJ43uab6+viQlJbFjxw5N6tfpdBiNRsxmc5/X3dzcrEm9ANfefx13TvF1+KSMvY/v57VvHbcayUNbZpFoUn6qyjzEuheLqOqpRgRbSftuMWOag3jlg2Aer+nKzo1suv5brq0czqX/7trbVmZPKecvl1nJ2z+C7xzXATbevrWIOQ2h3PteAB916WhaUc7/tigvTracR+fNnlLOX+IN3K/V+UZV8/X1FQwDwKdb56CFJZd/y1MT69sWVPSjeyeqmq+TGnmvvd+pgCv5yaqr8N7/G9486Vzkd8NrTIo8QOYrv8Pa6411UbKLz08/ym3rbqdow5uc7HgPIYQQYsDxqX5upRr0rcVQtoH6UzbI3475+e3OGy7cjMlQ6hwAkooxaTgNeWXo5QXj3WY0GlmwYIEmQajFYtH2/YgFx/n5E6coBBLuuIKH1l8O9kBwfDxPrpxI4PFDrFQDv4Q7ZrI0qZRf77N1fOy4H/D4vf7sWvMHvvSwyexoMyHnw/nEu5rLo5ugj4KA+KB6mqq8CRjWBOggykpssy91fVJ7Dwm2MTvQn11HmpgXbSPhuC89u7ySN6s/imJ1jx5T0RqERzP1uA5oZNM1Naw/F9TFLwL63vb9I9i+H/ULjHJsXw2M4NVZAFfedSMJtfv5jWsE2BMqXuX0s69yuls71/Cv3z3HyEfW8V+3H2ZDb7RPCCGE0JiSvsgvpql5YjubpeITW0Pd33c777zwBvRFezGXT0cf0YutFENC9hs5ZM+ZxfhrTPCGhWuvH0PU+eP83CHzl/3GV50PNHJ280XhGpZu+V+itvyK975x3aCR26IsNFYG8VKtnv9zCmTaZvkcM1dhjtmYqELyJiv/a8kfzsI96jHsWUZ7stMlU2Mu8acuwsr1BBAWa+Nkth/TpjVweQB8VNN2/zbHTrWyL8ObhVer2SzXTJBTpgvKjo1yylgqgVANjrlYp2N0kCmbHW1mVKOBp874MDHVwu0Bvi4BlJrdDFR/tKrZ1mHO7frDf5c7l9e41G11ydK6C37afGbPUja6ufY2VifUUHNslMP5eLN6r+PAQZf9Hdowe0o5/zfCQEFIOZMDjXz+bxPT5lQwzKUOx3N36jtsvH1rCSFHI8mIPa/WYeTzDyO5q9jxHD30fWe01/fBVtK+W8XZT0LwTVLb6HKN3WUbHdvgfO84tN2l3Utvq2Kp6zYAEQu4OqGW/b9xzrQZ5mxhyvUTMQDwPaY/9j2loOogWVvWOYwAiCP6vt1EhwNUUvjW7eSfUEr8bniNqbOU8cMN+X9zk02cSfR9v1T3BepyyXnlJxSfd9ymhF2fZzNz4XdIevMk+1yvb8StPLL+GsKOvcWq37YpFUIIIfo95QloxgR8anNpzHWfXdGlzENfdFDJEtrNWIEx7hzW93bS3Bct7UVWq1XbbJhwYyTTxvpScOochd0+Rhl7fr2aZw8a+c7Pnubey1yKg23MDtdzLNeHgxV6vCIt3B7QuSNv3z+C2D9F8XaBN2XHRhH7pxhi/xTDRMcH/e8UE3TaXjaSf/uU80JqHQn2g1gNHLRZuTPSxi0BBl6vdKyhkU0z6tn3N+W4sX+N5NvhZfx6YlPrJr5VLL2skffeVspz/ap4uKXcxtuTvVittiv2oxB8Jpe3zq0LtrJpmpIJi/1TDGuPG5RA4BM1iAm2kpZczXm1PPajQIZfXuowN08JoGsKjXxU6U2xl1nJpLZQgqCpFcOZb2/DdjXIKAhk6p9iWPxlAHUVodzrWk7rNrEfhXDB9eJX6jlY2szoaFvrtfS3Edrsx/5zyp+0JZeXcJvfMPXYUbxtvtB67aOsTAw0cizX8xDe2VNqmJg3Uu27KN4uq+W/5rb2nSmmCv3RUbxdYOPqaY28tzuSXD8zd0aqfXd9scO5j+TrkPP8ZY7jMIoGxl9eyLWVw9X7yMbsqfbjd6Lv29VB3wNg5eobSwg5Gq3cm7Yqbpqsti+qmjUTdXz+YUzLPU5FKCvt93ZUNX+8rIF/f6gcf/GXPsxJrWR9AFBpJPkvar9Zg3jlbbUNf3IIAIGI5HhGlJzisEuSrf7fD3L4ifl8faiYhvy/kfHEfNKfmE+6UwAIpqnfxT/zQdKfuJfTp/VEzvsJRrXM/I8fkq4ewx2/G1Yywuxw7F+5BoCKmoyj5NnimCKTA4UQQgxCusBVLxCYMp7Go2+6DPW0S8UwVU/dYccs4CQM08bR+MXvsLmZmjLQNDU1aTYvDpTVQfft0+bbZD8/PxYtWqRJ3a6uvT+RxIZ89n5o6dHj5vxlPev+Wkj80i3878JLWj6fHW1mlNmP14uBAiPHba6BTPfNnlLNdH0QO4/ZAw09t+0PoT7Swu0BjcwIbAR0vF2gY9z0aiIuGF3mcimZqZagSA18woY5ts/I53vUwKlNuZ7bPnbIChYYOV7dwIjQptZzdwiatuf5c8FYT5xf67UJOR/GA/ZMWYEfHxXYmDxG/SPhEECDnvcLdE5Bmf3830rv6SGiAN6szgxSr6XyyZLYWhrOBKjXy8YtUTo+/8J+/m2378jBzGHc5JAlfLvAhC7QRox9g4ognj3uBUDZmQAed/zzoQ6TbT13PZuyAwgYZeV6h80s+cP5wb993By/M33fnvb73q7sWKSaCdXzfoEBv8BGElCu5bAK9fdCbVudSclQo5Y3HAttCeoOZgaS0aXfnQAmhAfRUP5tt+fbWb5+kROfHwfyqTpzlqbgUWr2sHN8hk8laHgHG9WcoLRKT+hIN6vWlLzDxvvukyygEEKIAUuZE8gkDEs34h/8Z2p3H3baQJcyD31tLmaHLKEuZRG+ls+oTu/Zh/WhqrGxkdLSUq2boY2oifzyJXUocnU+r68/wqfVndzXNI8fP3YXU+1j3qgn+90HefEzTzsYiJ1zHZe99we+bMlkBakPy0og81hPzm2z+LC/g/llB8/5UTetinMZPlCvp7y+saXM3XDNssq2x/Ck7ZA+n5aH7oMVeqzGai6PDoLjOvXBP0B98FfmLAbH1LD7v52Paa/fHkA/pW6/Pc+fNUmtQ0Ljg+rxtQR0eP7dVmDkuK1EbX8jt0TpOLbPPtyxkUiDlTE35uP09k1rF9aJdB3KC1AR2rl9/W2EBlU5DIV0t78PZ8/pW+6zg5mhjM9sLe3Nvlc4Z0K37x+BfRZ4QJWBuolm7owM4KNi5fekqTicN2sAlC8wwhyGQLs/fntMjAwJom2Kt2+Y//Eop4OfZ9zy3cQBlq+f5cj7e9xsaaGowszcsJEgy8MIIYQYZNSngCwa8svxjYgCHIPAVAxTw2lIf9YhSzgJn5hQCEslcFWq07aBq2ZjfecJbPluU4r9ll6vJz4+XtMXxg9ZDgvDODNTWtFIYnw0o3BXDlgO8Pu1BzqsIu4Hj/PwFSYyXrmPP9hXiAm2MTvczcOs1d3ctm4yOczvA2aH2DC2vJXFh7ILOnX4nDqQLRjwVbNxw6r5o7pwieMct2s7WfXsKeX8Qh3Sp2Rs1Hlo9g1q9ZTXNTD+8nPkXQ7KnC3nlSU9z0NTAgPfkJrW+XzqOdmDylNVBuo6yrRcFIegvbqeiQ1+rHYa/ecyB82Rj57yugolq1nsbkioMpR3xPnhzHecAxffhea5zmPsiqhe7vsOHKzQY6WGq+1BtDWIVz5wvg9c55d2jYWiiioNX1CUT+n2RZSC8iqJHz3MtFtwEwiaGBniR2VOkQZtFEIIIXqX+s+wGuzlOf8jqGQBM6g/5Jjxy6L+lZ9S/dzKlv9q/1MK5/ZQ/dxjAy4ABCUITEhI6HjDXuLj40NsbKwmddfX12v2ovr2XeC1fYVYoiZy3x2mlk8T7pjJA0n6Th8l7geP8/BsK588s6Y1AAR1DpnjnCV1Xp3L3Db7EDnlwdxlERW8+U+1N2Euw/xAyfAVejnMs7IvRtIyZLEzfPi2XPkVnT3lAt+LauxgexdWAznqMMUll5e1LtACLJlUqQQ5f3I/Z2t7nj/1MZ7moTURG+TFSft8Qfu8uYLWeXoHz/lR6FfOU3M8/z04WKHHGmKfR9d12/P8qQ+0sTTWyvlsv9YAtlLPwVIbV19R06ZflHIjf8g1EOY0T66RTddUKfPaVOZq75ZFeDZNc+37dhQYOW6rcppD2HW91/fta2TTlCoaHOa5Os3VVIeHBrSZY+iiVk95m3midjWcKK3CJ3QEnl4P2FBWTlNnhmxerIpMrJ5mAgRMIDzIRnmRmyxgxK08snUrv153u8dzEEIIIfoz9+8JBIhZgnFaOA0HnvUwV1D0FIPBwKxZs8jLy+t44x7W0NCgSb2dkpbBfcDWO1LZlqx8VJV5iHVvdOL1EABxP+CuxCJeebDtKyKWxNZiKA5Rh7ip1LlXN6lDQlf/O4zZ3z2vDIm0BrHrSAApMc7H2b4/jFtuLWrJiLVkzyqNJP89krTvuqwc+m8fwEZsUAcP9QV+fFRQxW32bExFMOkF3nQ2GXUwM5CMhKKWIYmW/FCOVVdhD5+3ZwVzr/3cWjhkzwoCmfoRfH29PVPoUK63MlHvx3vnHFM5SnDwvalqJtXN+bfJjhUE8vTxWp5yyjgp5a7DGZfeVsXSNvv78ZH5W26/xJ9XvnZuy+qPRsD13zplKh0zm9v3jwC+ba3bvvppDdjn8P3lMnvbjXydHUDdiE5efPTc9s5I3r61yOn6djp71st93z5l/uTX17tmyFuv/cHMUH5AOX9xHG7r2jeVRlYfMfIXp0xz6xcNJWmn+PaaeXwn+U1OprVtRf2/N5M/tnXIZtvVQT1xWflTXWG0dZVQ13J1BVE3w0EDpicSq89hl7tpf5YiKqogOiKeS8fDSRktKoQQYoDxiomJGeiLe7YrMTGRJUuWsHbtWo/bGI1G5syZo+niLFq9J1AMTUsu/5bH/EKchnsuufxbnhoe0H9eOC400PbVKPbPbmoM79prKtoVwJU/eZTbwjP4Tb98IXsEtz6yjok5v/HwnsAIbn1kPVd5f95P2y+EEEK0b6C9YbhXWK1WzQJAgObmZs1WJ/X29iY8PLzjDcUgYl+d1JGNW6LqsVTrydekTaJ/aGqbpVbnz7YMj+0RNfzrzx+S7X85/3V7fxtQGcCVP1nFVd77ectNABhx6yNs3SoBoBBCiIFNMoFDnGQhhyg3q192+YXkYnByedE8XOxCMO2IuJVH1k0k5zcbcJtw00LErTyyJpIvVv227UvihRBCiEGiF/5VF0L0e+pLvYVooyCQqX/q9EoyF6fkHTY+0DdVdVrJO2xcpXUjhBBCiN4lw0EBk8nEggULtG6GEEIIIYQQQvQ6CQIBLy8v/Pz8NKvfaDSSlJSkSd1ms1mGggohhBBCCDGESBDYD+h0OlmcRQghhBBCCNEnJAgEbDYb2dmyHIYQQgghhBBi8JOFYVCCwKysLE3r1yYITeTuDT9mTpgXlV/9H+v+eJgOXmEuhBBCCCGEGOAkE9gPaBeEHuXVdSu4774PKZ2xmKWXemvQBiGEEEIIIURf8glc9QIADV+swZJuUT6NWYLfojl4u4aIVRmYt22jsQF8Fm7GFOcYNFyg7oMN1J+y9UnDe5K3tzchISGUlpZq3RSN/IPjOTcwOVoHhyUXKIQQQgghxGDmU/3cSjXoW4uhTA3i8rdjfn6784YLN2MylNLY0PqZU+A4gPn6+pKUlKTZKpk6nQ6j0YjZbNakfiGEEEIIIcTQoeT68otpam5vs1R8YmuoO7y7Txo11BiNRnlPoRBCCCGEEKJPKEHgjAn41ObSmOt+KKcuZR76ooMDcqin6JyzZRVcMmEBeq0bIoQQQgghhOhVusBVLxCYMp7Go286DfVslYphqt5tFtDniqcJXPUCgatewH/+pb3e2N5itVrZtWuX1s3Q1NFX1/H74tls2bqV1TdLKCiEEEIIIcRgpcwJZBKGpRvxD/4ztbsPO22gS5mHvjYXs0uWsOG9h6hu+SkV44N34w9t9h8ImpqaNJ2PV1dXx759+zSrH+CGh37DlRf+xAP3yWsihBBCCCGEGMzU9T+zaMgvRzcsyqU4FcPUcBo8Zgnt9tCQJ6FDdzU2NvaLlUkrSo5KACiEEEIIIcQgpwaBarCXt8e5MGUe+toM6g91sALojBUY42qwnTnaS83sXXq9nkmTJmndDCGEEEIIIYTode7fEwgQswTjtHAaDjzrJguYivHBm9C3vCYwD+uLj2Gr74MW9wK9Xk9CQoJGL2xX6o+Pj9esfiGEEEIIIcTQoc4JdMPNuwJb7cG6ZQ/WXmvW0KJ1EAo3MDGuivK0Jo3qF0IIIYQQQvQVH60b0B80NTX1izl5fS+Ruzf8mDlhXpC7m5WHZUagEEIIIYQQg50EgSiviNBydc7m5maNVic9yqvrVvCqBjULIYQQQgghtKHTugECLBbLkH9PoRBCCCGEEKJvDJlMYEhISMv/NzU1ceHCBQ1bI4QQQgghhBDaGDJB4M9+9rOW/6+oqOCZZ55p+dlkMpGcnCzZOCGEEEIIIcSgN+iDwOrqagDWrl3rcRsvLy/8/Pz6qkltGI1G5syZo+m8RCGEEEIIIcTQIHMC+wGdTkd4eLjWzRBCCCGEEEIMARIEAvX19Rw6dEjrZgghhBBCCCFEr5MgEGhoaCAvL0+z+m02G9nZ2ZrVL4QQQgghhBg6fAJXvQBAwxdrsKRblE9jluC3aA7eriFiVQbmbdtobMDNdheo+2AD9adsfdT0wcNms5GVlaV1M4QQQgghhBBDgE/1cyvVYG4thjI1iMvfjvn57c4bLtyMyVDaGgDOWEFAynDqP3gY8wAP/Ly9vQkJCaG0tFTrpgghhBBCCCFEr1JyffnFNDW3t1kqPrE11B3erf48CcO0COoHSebP19eXpKQkzerX6XSark4qhBBCCCGEGDqUV0TMmIBPbS6WXPcBnS5lHvqig1TbA76Y6fiEVNEwZg2BN6urWroOFRWdZjQaWbBgATt27NC6KUIIIYQQQohBThe46gUCU8bTePRNDwFcKoapeocsIBAWgk4Xi173d6qfW0n1cy9RZ5uK36Kb+qrdQgghhBBCCCG6QWcP4honbsR//qVtN0iZh742l0bXLGFVBtY9h9Ufsqg/cprmoHB03r3f6J5mtVrZtWuX1s0QQgghhBBCiF6nrv+ZRUN+ObphUS7FqRimhtPgmiUsq6ApIATdIHnBRFNTE2azWbP66+rq2Ldvn2b1CyGEEEIIIYYONYxTg728Pc6FKfPQ12ZQf8jivFd+Bg0VozGk2DOHkzBMG0fz2SM0NfZ+owebxsZGWZlUCCGEEEII0SfcvycQIGYJxmnhNBx41s1cwSzqX/k7ugfvJnDy3QA0HXuV2t2HXTccEHx9fUlMTOTQoUNaN0UIIYQQQgghepXynkB33Lwr0NkerFv2YO2VZvUtb29vYmNjNQsC9Xo98fHx8sJ4IYQQQgghRK8bJLP6Bja9Xk9CQoLWzRBCCCGEEEIMARIEoiwMI3PyhBBCCCGEEEOBBIEor4jQcnXO5uZmTVcnFUIIIYQQQgwdEgT2AxaLRd5TKIQQQgghhOgTEgQKIYQQQgghxBAiQSBgMplYsGCB1s0QQgghhBBCiF4nQSDg5eWFn5+fZvUbjUaSkpI0q18IIYQQQggxdPho3QABOp2O8PBwrZsBBBO/MYL67afJy2zuRrlwFLB4LImzTMoPeQWk/66CAXfVkqOZOz8Ya0YOR940D7z2i15jv7/LPz3GiU/c3RkmRq+OIzrMS/mxh34HAhaPJTGivJ//PgUTvzGa8KoSjm06T1VjDx9+QiRTl0ZS95mnaz9IqX+PvAAqe+nadkHEsslEVefK30YhxIAkQSBQX1+v2Yvi+5OAxWGEny0l3UOA11G5+30cAiHo+j/cydHMnWsjS+N/7Luj5t0zHHjX/tCqdWsGoAHc99rT/gubgMWjiPYu5djPu9F/0vcXQfu+7zVp50hPO6feH1o3RgghBjafwFUvANDwxRos6Rbl05gl+C2ag7frYNGqDMzbttGYuIKAlPF4uR7t3B6q39rZ223ucQ0NDeTl5WlWv81mIzs7W7P6FSZCxnhRuKvSwzeaHZW7kRzNlFk2ch49w/mGHmuo6Ev2hy4hXNi/5PDEFGLE8k0R1UMyiKvk1COVnOrVOuqwFvVqBUIIIQYxn+rnVqpB31oMZRuoP2WD/O2Yn9/uvOHCzZgMpTQ2AP/5LTX/cSydhGHpMvQXCvqy7YOGzWYjKytL20YkhxHlXU1WtocQr6NyNyLih+GVV0hxOwGgc6awipxH85WAUR3u5K9+0zD5lxFtt+moftehOi7ZhYhlkwn9Jhfz9DHqkLU6Cl/v7LfnJkavjkK3qxTDkmjCdV1rm0IdMmb/ssVhuFzA4rEkjqtxypq2/cx5f4vTkE17NuAcTQvsQ/K60j7noXxthvwlRzM3oZZjJaFMUfvPqf4OytsM6ZsQydSlRs6vy+f82Ivve1qO2Xoc5+GILkMVHY+dHM3cBBuFAeFEhdVTuOcCw66NxP+CPYvdmb536VunDHgw8RuDqHrdyvC71Pa1yZB31Lee9nc5rzsnM0o9oudhm13l2DZPvzMmjMFAdRcP3YXf+4hlkxk71v39GbFsMuPUMtdr23LvZfszRx1a6Hx9L24Ya8fDwC/23gBOFPP12mKXmnum711Hbzjt29HvvX0b+5DNLv1NdVd/1/bvuG/bvzfaXMOOygFLhuN568h1vE/dfSaEEP2EMhw0v5im5ontbJaKT2wNdX/f7b44Zjo+IWep336451vYB7y9vQkJCaG0tFTrpmjExOjZw6j4KsvD0KuOyt0rOXWBsfOjmPsT3D9EuWQKAxaPJfHh4Vg2nafK/pDTy8PCQq+Ng0+PceCTZqX+GyOpyO5sXb6MujOCwtePcSCzWXm4WBZCcScfGCOWBVL1WCanGsD+YDj+O5Wc+KSZmqPV1M4cRkhCMVWZzSiZWMfMihKI+H+dQ/qbZpoJJn5jHOPLHB/2fBl151jKPz3GgU+MjF4dx8jFfhR3av6KhbObjnFWfehxu2xSbBRTKCB9TQXNydHMnR9O5LsODzuO5RMimbo0ipjMTjzQ9UTfO8yZ+trNw2/EsjiiawpJ36T0VcSyyYyz33sAsRGYPj3G6UsmMS7VSM6j5wh6IkLtD2i/7137RrmGk++td/g9CCLuh5DzaCbnG5S+H5lSTNUnSl933Lee9rf3W28OCbRnuZQ6nLkEOGFxzJ0OnX6Y72zfx0YxKiOH9DVm/BePJXFmJEGfKdsGLB7LuLDWYagRyya7XHtl/7nDSjj280yqrnK+d53vDaXvpt1e1+l5Xx0NA49Y5ti37rR3b7SnB/redfRGcjRz548jtsjhWO393k+IZOr1JopeP6ZsnxzN3DtHY+1sEDQhklHeRaSvcfiyqEt/k2m3bzu6NwIWh6PblcWBTPvvYRxxt1a39L27vxtR9nrTaii7Lprga7w4r/ZVZ74IFUIIrSj/VM+YgE9tLo25NvcbpcxDX3RQyRK64TNzFl7Zadjqe62dvcrX11fT1Tl1Op2mq5MyIZCQ0Goq93p4YOio3JO0c6SvOUfp6CjmPj2FeU/HMNxhFmpE/DAqPj3b8nBQ824ZpUFBhCS0GWjcaywZOZxU/8GuOVpN7TBfTF2ovvzT1oejklMXaB5mINC7c/uWvHzW4cGoksrcZkxhJuUb9BPFFOUYCJmi/qz2QdG76oPjhEBCdKXkvGN/kKyk6LCF0HHBTsO0W8/PQkWuFVOIb+dPriOVJRz7g/pgnVZDWZMvxole7stPVFNRbsA4sueqb0/E1RH45xe09K2TCZGMjKun8J+tQ5tLXi5wvvcqSyj6TCm1ZJS6fYjz2PfJYUSFOfQVFs5+UEJtTCCRLfd/HYWv2/vfpe871bft7K+pSk49ksmBNWc4V9aMJSOH9DWZHFhzqmeD0byClgdz599bddj6h8UtQUPJ567XHqCKnGfVwMLp3g0meEw1OS9XtPbdwQsYLwns9O91Z5jaPZ5Wfat82Wd1vN/TznHmjMPfIWj39z4gMRCvIwXk2/s6rYyCskCCr+lk608Uc/Kt1uC4O3+TPfdtx/dGzbtnHe5Tl7+ZEyIZGed4b7hy/T0NJniM898ZIYToT5zmBDa6/bYqFcNUfTtZwCUYLjlH/W8HZhawPzAajSxYsIAdO3ZoUn/E1RHojuR6/Layo/L2tc6NiVg2mXFPxmN8/TR5mUaMwRB67WTmXeu4fR2F3ammx6gPDN19YA1WHliqOrOt07ApRcvQItRM6txAAr3NNCUG4nWkqLUPRhrwCwl2GC6ncpraWkdFpqX1gerdMxzo4un0NOVh1tzbtWAMBsvZuna2qcN6vIcfzRz7vrIOS3cP36m+Fe75YgwxEu4wFFLh8huZV+3w90z5GwXABAMmryDCn5xCnOP2lSU91sKSl3Mwro5r6d+eG6bbMyxllm4HLaYQI35j7dnfVuWdP0Kb4Zad/GvaylPfdubecB1CDl36vas5Wk3t0kAifSo4f2UAYWdL+fdgW5xHCDFoKHMCmYRh6Ub8g/9M7W7nYE6XMg99bS5mD1lCn5mz8C7ci3mAZgGF8m1lxXZP//B3VN55JS8XELwxWskGZSqf9bcHoIsODjr78D8hkqnXB1PhcP5OQ4tAHV4UQUhCFU1jvKjc5dIH/WCJ9K66mAfMLtSCtbKjbVyC/QkGTF5wUX/GHPve9cuAkQb8uqP/zkcAACAASURBVJLNGIB92390fR6as67O7e0q+7BN1KBjMhPoP38H7V/U2OdHdnVuZ5s5gl0QsSzOeUVZda5wz2nv3ggm/u5IdEdah+p2eWXnE9VUlEcQfI0XTZcMo+J0gWQBhRD9ljpzI4uG/HJ0w6JcilMxTA2n4eib7rOEMUswXFJD3WEPWcIBwmq1smvXLq2boQn7ax/yO3gthKfyLkkOIExnX9FOGWoTeu1opyGibRTVYx7W/SGijkN5pl4f3M6QKhOjb47AP7+6mxnPYOKvC8b6TXUXVkN0WN0vObplkYtWlRQdbmLUjVGEVpU590FaDWVBEcTd6tcPhgB2LGDxKKLDXIYUtwydVR6+/F1P5CL6vuTUBYzTo4iZ4mZfdWjqqKta7wdl+Gh373OXvk+roawpiJGL7X3jZphde3qkb+uwVrgM43MRsHgs856ewvTb++E91O2+r6Qy18CoGyMJ6s7wzRPVVJQHErcspG+uyYn67meMPeq4791Thz9OD28dOttmaHP72v2966wL9a3znm+OaPt3ods6d2+0fFE1IZK4mQ6vNzpRj6U5qGVoa8Disa0LzLTuzdmDFwiZOZZRoaUtQ8qdJEcr0yN+0kf3mBBCeKD+qVeDvfQ9ToVKFjAD8yGL+53tWUAPcwUHiqamJszm3h6i5pl2Qaiy2Eh5RnuvhWivvP1jtx3W4/wtbM27ZzjKWBIdh165ZkBOFJPzVSCJLUN4Ov8tvT3zOPfpKGW/TyoZM9ulldMdhi5142XWjsNZ211hkCilHfY6ThRTlBPBOPt5VZZQkNNMqMvxlQViIqn7yrUPKjn1CMRvdB561WOZVddhUep5dun4wREeV3esebeQcy1D4uoo3FNM7bUu3/hfRN+Tdo50opnrOPSrpX8tnN2UA6vj1HsD9b7rqb530zd5Be0sBOKqJ/pWmYcYsrT1GK77K/eWCf8QX+jKEF3XYcx3TmbURWffXFzU7/0xWDbZeThtp3+33dwbdCW71cHvvevCOfZj92gWsOO+96Tt32SlXzudFXX3e9eVvvu8hJFLo1quffl/SqgNbZ3H7LSyJ+rqsV3Imrd/b1RSdDiMxJbf6yoKD1vwD7NvWMmpjwOYO18tzysg81Aoca5fYqbVUHZdMP5fFw7R16MIIQYKr8kvvNcMLu8JhJZ3BTYfcPncbsYKAlKGU//BBo8LxvQHl1xyCcuXL2ft2rVaN6X/6WgFvkH+wuY2r5DoEnXVzIys3h3G5fjqhIG0wtygvnf6qO97nRKQ+H/d/eF7QghXvbkyrxBC9Bx1TqAbbt4V6KTNuwIHLl9fXxITEzl06JDWTelbaedIT7uIctHLlOFQ3V+URwj37BmVi5m/JYRoK2JZFOFnC0mXAFAI0c+1NxtryPD29iY2NlazIFCv1xMfH6/9C+NFP+EwpKxLwwiF6JySl4/Rc+tdCiFahqp2Y2i5EEJoQYLAfkCv15OQkCBBYB+7uAdhZYW/3uGweuBANaizyL3Z90KIgUi+WBFCDDS6jjcZ/JqamigtLdW6GUIIIYQQQgjR6yQIRFmdc9++fZrV39zcrOnqpEIIIYQQQoihQ4LAfsBisQzZ9xQKIYQQQggh+pYEgUIIIYQQQggxhEgQCPj5+bFo0SKtmyGEEEIIIYQQvU5WB+0HTCYTycnJ2g0JvfJldl83ngtHnuYHO3bh7pV0/7N0L7fFqd8ZVH7Jpi2r+aSpK5VM50cb7yTw801s2X2+BxotRPeZFrzGtNmRADTk7yTzld9i7UJ5r0v+f2y+/Dy/3PgOZX1ZrxBCCCGGhEEfBH7zzTesXbtW62a0y8vLCz8/P62b4dmVL7M47hvef+IetnbrpeXR3PzwD0ko/phNDgFgwh1X8FByqPNNWJ3P6+uP8Gn1Rba5k669/zpu5ijrXiyiyt0GydPZesdoTABYOLp9H5v32fqmcVobH8+TKyM4uWE/r32rdWN6lmXXD0nfpQR7k4d3vbxj04n6yXoCstZyYl83Xv2S9gkHr1rB6p8UsuF3X1DbnSYIIYQQQnjgE7jqBQAavliDJd2ifBqzBL9Fc/B2HSxalYF52zYaG9xs41imoaeeeqrDbSoqKnjmmWdafq6vr9fsRfH9wr+WMf9fnouvDg/FK++f/LGbfRt98+0kj8jn4027ccwBZr/xBcveUIPBmTW82YfBX2coQaqJ7O271cBvGD98aCLXHj7ar9opBqMTvLHhr4RtvokfXpHB776QMFAIIYQQPcen+rmVakC3FkPZBupP2SB/O+bntztvuHAzJkOpGuSlYvz+RBo+fBjzKRswCcPSZRhTL6V292EtzsPJ+vXrqa+vd1tmMBh44IEHnD5raGggLy+vL5rmls1mIzs7W4OaU/jFg49xeagXADl7r+fHe9sOehsfHIpXt+uYzvVzR5C/ZxNdHQWacMcVLAvP4TMSWTTFF4CCtD08+obyZcW191/HNaUZnBw/i2tGeeOaqWuT5UueztYbm9mx/giFNzpmIWfxwktqpQXH+fkTpyhkJAvmhHI+bY9D5u8Cr20+6tDCkTy0ZRaJJvVHhyym0vZKisfGMcFUxt5/mJl7w2hMDsd/aMsYSt8sYfxdE4nyoW0WdHw8T65Uy5zappb9tx9707xYtFDNVDqWu9nf8dqRPJ2tV9ey/VQkd6vXoSrzkHqtnM8rav1NXANtrq92oghb8izhBW9RM+nHjI4AqKLondvIy7aX/5rRlpfIeO9jAPSXPU/i5TWc3rLOfca3K4LvYuwPr6AmLY+IW5IIAKg6SNaWdVSpdceP81e2TdrM3CTlf61HN6vtsWcJN1Ma9YC6rWP77dL45OBVrEi6gbAvZFioEEIIIXqOksfLL6apub3NUvGJraHu8G7lx5hIdF6VNOfZHwazaLrQ7gH6VH19PU1NTW7/8xQcaslms5GV1Y0hYxftM36xJZnrHlvP/nLX/kvhFw+m8fET+5S5gLEL2fnEPj5+Yh+/v8bY+Sqmz2Ss4RzH/9O9eYCBU2bxHY6ycvlOnkkrZ/jM8Vwb2FoelTyH8Sf3cs/ynTyTZiHhpklO5Z5kv/EFy5bv5PXMOqoyD7Fy+U7uWb6Te+xBVPJwxpnKOLnX4uEIw/jh4zOIPWPf93P2Vkdx50/jGdXS9pHUv7efvYXBXHNVMzt+f5yC4RGkjrAfI4xr7ong5IbW/W9eOpIgAEby0H0T4V97lHYtP8TR0In87/32ciAwhjtTm9nx8E7uee44BcNjuT1Jrxa67P/ccbjyCh5qKQeiJvKj+GIeX76Te944i37KGG4ZAVDE5gfVYzaUsfdx9dos39MPAkA7AyFJ9xCQ9RDpT/yIU6e9iZizgi7cmRdZ/SWMWRBLyR/mk/7EGs7WzSZu4XVAAWXbFymfldRRse8h0p+YT/oT81sCUoUvIUlrGW15qd32nzh8mpIR8aSE9dWJCSGEEGIoUHIEMybgU5uLJdf9A54uZR76ooNUn1LL8zNoqFiG8e57aNq2jcbEFRjjaqj/4Kjb/bUQGRmJTtd28dPi4uI2n3l7exMSEkJpaWlfNG2A+IxfbPkMUBeF8f4bN/1xC3VdPEp0TAhGczG53V0LpuA4v1IzeVVfFXP+ygii/AE1W1aVeYhn1OxWtpvyXpM8hrmjKkl/yT6X8AKvvXGK8SsjSB1xioMABXm8ua+B1GQo+Ookn9ZGqxk1OwtHtx9U59td4ODJC1wVH0AAEHVHHAkN+bz5oT0ILWLz+2fZemMkswOL+BSAMvY+q2YOq4s5WRzP+FE+gE0JYsuP86Q983fyFHuPj+HmqeEE7VPbXJ3P68+rQW/aeU7fMpnwCXr49uIDveQVm7ltsmtIU8XR7U/yu3/VdFjeGdajv22Zb1d1Op+my0dggD5awKWKog9+zPlvATIo/6aYkcPjMfJxp+tvyN/JcTUw9Nj+E0VUNEwjfKI/yJBQIYQQQvQQpzmB7ufzpWKYqqfu77sdPsui/pWf0pCyDv+VLwB5WF98DFs/SrJt3bqVESNGtPn86quvbvOZr68vSUlJ7Nixoy+a1oZOp8NoNGI2mzWpvzeFR4RipG3g3Xv8eiyQ6VB1LQU9/Vwe5EdCIEpgVmUmu5vBbMJIf/RRo/nlSxOdPq/KvOgWdkrabx8i7SLKByKf4K4EoXVU5+5t2db25U85/KW77Yooq/BjzCgjyPIwQgghhOghypxAJmFYuhH/4D+3mdOnS5mHvjYXs1OWUJkD6Gv5jOrndqJLWYf//S/g47i4jMYWL17s9nN32UGtGf8/e3ce3lSZNn782zZJ031voYWWshTKvhQVRSmILKMwIIMLooIzvIzyIojogO+4jfMqKuswoA7vyE+HQdBxYEQtYmVxRSmbIIVSwZa1O93StEnD749z0iZpCi20PaXcn+viukjOec5z5ySU3L2fxWhk7NixmiWhzSk/rxBzXEv2aCL/WBMkgGfLKbR2JGG4D7xXz2c6wM+56hjtR+jVrrerJn5BUJsQqtdPbO+HnoZVyYC6cwRbUEtUAlsb64XzNP3vwdoTFmKi6GyLblAhhBBCiDZO/cp6BGt2Id4RMYBjEjgSQ99wrLsXO1cJBwzHEHYK88otANi2v0Q5z+LX5z4896zFVt1S4YvW7nR2EebbQomPgmPNuj1gEA/d342YnOOsdtjOIDBEGV5ZktCNP0/uiE9FtlOrs/nl+A5Sh1g6Vt3U4ZNTkwfw0A77FglBPDQvljNrDvHFzhwyJyQxaHJ7Nq88RwlBPDQsGsvh/Ww+DzGNDT+hGw8MDSXn632cBc7uzSVnaA+G35XBF+9VgH2hmu/3KXG2v/Tl0tX2j91/unYxmMbKKKPQ0uPSiXA9WkMlUBekDs/ssJDuYxIxlOxpno46LKTL4CBKd+1wqALmYS620j5+OMZdR658iGr39oToSjh6VKqAQgghhGg6ahJoT/ZSnQ4qVcADmNLcfQEMxiNOD+rqoLrYUCg5cE0mgCaTqU1W4S6r28usn3oL4falP4d/xrbh9a8SekUO7OXne/6Lm0d3Z+u7x5wOOe8TGMrUxbFMbeQ+gYG93a3sqfhi5SH6LU9Sh0QWsOPTU4Te6tw+/b3DfJVwi9K3yzW+WLkNZo9iqsvqmO+WgrJ4Shrzlrv0r85fbFgS6EOfKWNYO0Vt7rh6Z8Zx/rgC/jxnJGuTladKDqfxbEOTMTftG7+6pzoP8X77NVrL6qCXc4aCTzcT/LsH6P/cOKj8hexv0jH0sR/vT8yji9RVRQHG0f+5cQ6bwl/uOEAg7SdvVXPxSop2ue4H6BIDjquDNlz3gV2JOH+U1bI0qBBCCCGakEevFZsugss+gVCzD+DF79wP8fQc8Sx+A8JrnzidSunGLc0e8OW88sorDdoiwnGfQK215TmBAB3Gz2febVa2vb680dtEXMplN3pv1dozb3kv2HQtJFXCSfCDdPndOKyfuG7p0NSS+e+lY6j+8CXZJ1AIIYQQTUqdE+iGm70CHdm2v0Tp9maK6io9//zzlzxeVFTUQpE0jM1ma7MJIMDpjzawM2EeI+8fw/7lzhvGCyHc6c79z95Nh+MbeUkSQCGEEEI0satdxqLVWbhwYaPbeHt706dPH9LS0pohIgGn+Wjxu0S8PJX7x+xneVOWA4Voi5LvYHD1V/zvG9/ImqBCCCGEaHIesbGxrWeX92bQp08fpkyZcsnk0NfXV9PVOfV6Pd26ddNow3ghhBBCCCHE9aT17ZdwHdLr9SQmJmodhhBCCCGEEOI6IEkgypy8/Px8rcMQQgghhBBCiGYnSSBgNpvZtWuXZv1fvHixTS8MI4QQQgghhGg9JAlsBSoqKkhJSdE6DCGEEEIIIcR1QJJAIYQQQgghhLiOSBKIsjropEmTtA5DU30efolVq1ez+uXfMtBL62iEEEIIIYQQzUUX8OQKAKzfLKBid4XybOwUfCfdiJdrilhyANPatVRb657j1F40io+PD8nJydoNCe3zMPfc4MW+/5vN3/dVaxODEEIIIYQQokXoSpfMURO6hRgKXqLquAWy12Natt75xIlL8THkKwkgIzHefSMXv1tA6e6Kuu1Fo3h4eODr66tdAB3DCCn+mU0HJQEUQgghhBCirVPqeNm52C65ZfxIdHFlVO7bqjQaMQR9+QGq0tTKX/Z6qn7xR9+lT/NG20yqqqpIS0vTOgwhhBBCCCGEaHZKEjigO7ryk1SfdF/F8xwxBP25Pc5VvhJ7VVBhKy7CMyimOWNtNlarlaysLM36t1gspKena9a/EEIIIYQQ4vrhGfDkCgJGJFB9aINTUldrJIa++poqIIAt82eqowdj6KZXnoidgrFfeIsE3BZZLBaOHDmiWf99IkLwKMrjkIwGFUIIIYQQos1T5gTSE8O0l/EL/gflW/c5naAM/TyJybFKmL0e88Fn8Ru/GG+AkgNUHMrHoDvTkrE3GS8vL0JCQsjPz9c6lJb1q3n89a6ulOz9Px5/fR+SAwohhBBCCNH2qWt7HsGaXehmOOdIDH3DsbqpEtq2v0TpkjnKnzVrISCEixeuzSGN3t7eDBs2TLP+vby8CA/XoJL66VL++7HHeM86kb88NR59y0cghBBCCCGEaGFqEqgme1mpzgddF4Cph7Jy6A7ZIuIKaZ2EHsor4mJIBH1kf0AhhBBCCCHaPPf7BELNPD/rd4vdzBUciXHuOPRq0mD76R1KN+1zPUkIIYQQQgghRCujzgl0w81egbVSMS9PxdxsYbUsk8nEhx9+qHUYQgghhBBCCNHsPLUOQIDZbCYlJUW7AE4VUBQUSgf5NAghhBBCCNHmydf+VsBms2EymbQL4NA7vP9DIKNXrGb1y79loMwNFEIIIYQQos3SaR1Aa+Dt7U2fPn1IS0vTOhTNHHrnWWa9o3UUQgghhBBCiOYmlUCULRri4uI061+v19OzZ0/N+hdCCCGEEEJcPyQJbAX0ej2JiYlahyGEEEIIIYS4DkgSiDInLz8/X+swhBBCCCGEEKLZSRKIsjrnrl27NOtfyyTUy8uL8PBwTfoWQgghhBBCtDxJAlsBLZNQb29vhg0bpknfQgghhBBCiJYnSaAQQrQoG6vuzCbrkWyyHjnFD4OsWgck2qTuPPTiUp4a39H52Yde5OXfDtAoJiGEEK2FLuDJFQBYv1lAxe4Kh0MjMc4dh75mz7gszCuXYqlyf9z20zuUb93XMlE3MV9fX8aOHcuHH36odSjXlcT7b2FecqjzPiWl2ax78SBflLZMDLfPHsV4DvHsynOUuDshuT+r7++IDwAVHFq/i6W7LC0TnNYSuvHnORFkvPQt757XoH9fE9/el08MAB7kHGzPDXtbalcbG6vuPMPg81fQp1PcisqT7UjYYVAfeTLrk1hm2ftoqpCbSOf+BewYWO78ZFUQq9YF8VoLxvB5rJFZH/mx1d0Jmn42NOZr4tvJ5aSnRPDb3PpOimT03Bn0L9vJso9OOR05tvVbcp9+kKfG5/O6yzEhhBDXD8/SJXMo/eB7PIYsxNBNrz7dE8O0O/HYvYDSJXMoXTKHihMdME4c53Tc6+g72NtfTHwYn5t8tHod1zQfHx/Gjh2rSd9ms5mUlBRN+k5/7xtmzNzCazsLsZZms27+FqbPb7kE8HIS77+FNfeHk7l+K9NnbmH6zD3kD+rB7QFaR9b2hcWXcPi+AnQHo4l7O5a4tzvwjk8Zf4/UOrKG8uLIV7FK7OvakR5xnozhVZdv1gqcOBBG3NuxDN/npyR/b8cS14IJ4OVc+5+N5hc5egp3xOawc8NH1Enzcj9j+ZoD+Cffh0uRUAghxHVE+dVpdi62iz0cno7GM7iU6oLaYUq24iKIUB8MGI4h7BSV69XKX/Z6qn5JwiduJOze0jKRtyEeHh74+vpq0rfNZsNkMmnS9+Uk3n8LM8JPsJ0+TOrtDcCZnan88T2lYn377FEMzz9ARkISw6O9cK3U1anyJfdn9V0X+fDFg5y9y7EKmcSKt9ROzxzlf/50nLO0Z+yNoeTsTHWo/BXz7tJDDhG2Z97yJPrYf/fhUMVUYr9AbpfOdPcpYMenJm76VUd8HK4/b3k8+RvySHiwBzE66lZBE7rx5znqMafY1GOP+LJjpweTJqqVSsfjbto73juS+7P6tnLWH4/kYfU+lBxOU++V8+uKeXEcw6HO/W0+Nv7U8wKGk+3oXVPd8WDV18E1Z9grRQsPVfPc8AsE4Fpts7HqztPcFaU8suaHuVSVnI/XVrouMuu28zzdVX2NUWfJ6qf81en6hir+M+E8/f3dHHNVZeCJDD929K7gaQwNS6Zcqom111fimxcc6PB66j4XFl/CLvW+KAlpDGOPO1x7cjnpnwcRPlR9DY2o9HXuX8DWEH9WVBeq98m5Enfp40qsc7zCau5XWHwJu265yLvrgvi7U9zlvPVIgXoP7fFd/rPh+t44vraw+BK29/Eks7qQpCgvjnwfQtCN+cTYzzFU8Z/xxeT/4EfiSPX+u94bl/fG6bPV6PYuVUxfE9/ebWHbNx78Rr0PNdd3eV0xd2WT5e79pTtjbo4lZ+cy6i30HdvKt9lPM2zUAD76+36Xg5GMnvs0v47NYeuy1+u/hhBCiGuaMidwQHd05SepPmn/cpeKNcsf7/Gz0RuA2CkY+4VjzUpVGoWE4nH6eM3QUM8Rz+LT2QsCw/H0qttJa1dVVUVaWprWYQg3AnoncQeHmKNWDKMGJThV4mKSbyQhYwfTZ27htZ0VJI7r2aBKnb0Kue5wJSWH05gzc4tS7bMnUclRdPUpIGNHRT1XCOKh5wcQ97O97ZfsKI1h6hPdiK6JvT1Vm75lx9lght96kQ/fPMqZqAhGtrNfI4zh0yPIeKm2/fhp7QkEoD3zHusBX6eqVcg0DoX24A+z7ceBgFimjrzIh/O3MH3JUc5ExXHfMHs136X9kqMw9Bbm1RwHYnrw2265PD9zC9PfO4W+dzwT2gGcY+lc9ZrWAnY8r96bmaktMxTW18yAKC9+Pl1PUqXShRfw+i0XefftWAbuCKYqtlitBl1k1m05jPEKY6ZaKdpaXcBfHCpxnftfoHNGbE0l6eOiYn43vArwYNWX7ZXncjzIqak2xTonmHecJzGvnUOlL6cJ5/bZWDXUwma137gN4eTH55HSDcCDDaf8qAgxMdle+TJYGNXOSsEZbyUR8TWxZXgpp9RK5MAdAXS8Oc+5UuZVwcgxeRj2K/EfqCrhN42I3zs+hzle9oqhL1GJ5Txdz/GBO4Lw7V3UoEpdwclAeqtVSGu+/f1zqERe9rPh8t6o7+3M8eWMsb/08CI6no/mtUxPeiaVk761HQeqyhjeTT3Bs4KRw8tJ/9j1s4GS5N3lUIVc147DRufPllN713vr2n5DGNZ+Oep7qzIUM139XMdtCCcn/AJzugFVBn79vvLcmWofUj+2f34dE0Cg+410CTjHsf2Xyt5y2Z9+GkOXgcjsQCGEuD55Bjy5goARCVQf2kC1w3cA66Z5lG6vxHv2CgIm98D68XyXOYPAgFn4P7kCvy6nMX34PdX+IXheg0vNWK1WsrKyNOvfYrGQnp6uSd96vZ6ePXtq0neDnDnKq2olL31vLjk+fsT41R4uOZzGa2p1y93xZpMcz03RF9j7gX0uYTHvvnfcOck7k8WGXco/qjN7M/ii3PUiFRxav0edb1fMnoxifEP88QcS7+9MojWbHR/b/82dY+nmU+jjIhlck+QWsGOxWjnMyCUj10BotFpRSI6ia+FRVtsrfxnH2XHUk7i+4bVJZGk265apSe/OHDIrfAnv7pAkXs3tmbWU1atXu/xZxKND/S/fuKGqfUjdpiQHBWeM/FxRRXQQSlIUqWPnbnulzJPnjgRTFVNRk6icOBDq8MXZkyVn/PAKsNQkCpfka2ZASBD/Z08Kqww8keFLWEyl+/a+JtYNNJGT7tfAIZWezNrmUDkyGdmfYyMsUPksFZz0Z1e+mT4dlcdhMWa6GAL5l70Sl1BB+MmImtfner7Cg5yDUco5VXq2ndcRHGhrUHSgVKceV1//iQwfznhV0T3S/XGn96aZhcWXMSzch69+cph/uSOcHMekuSqQf+1VfltZmR3Eb+vszuPFkW/t8+2cPxude5bS3+FeU2XgkT3Ony2n9i73NizGTCdzKM/Z25t8+GemJ106OCSRDp9r1/e+ISI7heJnLuTUZSp4ub8UUm4MpWOdIaG5fLZ8Po/NkyqgEEK0ZbrSJXNQ5vi9jF/wP2oWd9FNXIpP+CFMK+ZQ3WcW/uMXo3dc/KXDSAICDyjHrcCAWXiWFWFr+PcIobJYLBw5ckSTvvV6PYmJiZr13/TUROZ8C1SsSss5Uyexu0qBviQGoCRmJSbSr3B+ZGJ7P/QxHfnft3o4PV9y+KojbJCdq+axs5n7sBb58oF9YYwqA79+Xx2g52slIrCC/jXD5eznOGQhbhZvseYbG9RvWJSVQEMxsx4pZla97avpeWs2WbfClSxcUndxFg9yahbn8WTJGV8+j61kzF4vunSswJQepiaNFxkbWIV3/Hmy4qmnPVBt5NAph+GUX7ZnVYOjuxL2RKYFhopUGzhW74IpV0YXaKUvkAFYS3T8eIXXCQqyEBx+oXaYq6ry5NVGWCskKgRfGvCDoyiHIlsPIsKh7sRBIYQQbZ36LeAI1uxCvCNigH0QOwVDpzIqP16nJHj7V1HGLPxHJKPfvg9LUSEXKafynbU11UPPkFA8SrKxVWv1Uq6cTqcjJiZG02qgaCom8o81QQJ4tpxCa0cShvvAe/UMCQ1Qq47271vRfoRe7QKFauIXBLUJoXr9xPZ+6Clr+LVc5wi2oORZS7mnl2tSVcKh9X/mja8v8xqsOvLKqknsUAXHLz0ktF7VPqTWt3qioYr/3JVP+Ml2xKnVKmWOYSOuf9k5dK7ztBouLL6EjwaaOfJVrNq+7iqiJzJ8yOlXzuRoPeGRnhz60vmDd8k5/9rd5QAAIABJREFUiprwpKBEmRN4VRry2bBXJdX3PizKWlv9vtJuHRI/e0Jon18aFGQhgIb/w687P7VpFeUUYepx+fMIiSLEs4gTdSqhQgghrgfq4M2RGPrWzvlTBOEVVvsfm65TFzxK1Erf/mNYq+McVgt11/7aYTAYSEpK0qx/Ly8vwsPDNenbZrORn98WvgUE8dD93YjJySPVoeIRqA6vJKEbf55s3+qh1tn8cnydhliqMo6z42glMckDeKhmDl8QD83ro8w53JlDZkUYgybb5+gF8dCwaCyHT7L5SrZTSOjGA0NDyTl+mrPYh7bGMvwue8TqQjV7Mxq0emr63lxyonrw2P1XsWJvRhmFljAlEW6knavm8dhjj7n8WXD5BBBqFlLxrpkHB3CRWUMvNGwFSJOR/fkVJN9UfonhnR5cKFF//PmaWOe6JQIeHCnVuR3iWXDGyM9VDvPEmkO1gbPFyl879y+qXcDGzuTDP09aSb65iI4FQQ7JrjJnsMrp3mnpIrNuKqC/wZ8dDglxzdBbXxNbahaCqVVcrHee92h3mc+GMvS0glt72d8bdSGZ7KBLbKdwCepQXvt8yxMZPpwxOM/xW5bQ8KG+JzJ8yAkv5E9XM3/UqiOvwnV4b636h3k6q3/YaCSj5y5m9eqXke0EhRCi7XK/T2D2ekw7Q/AfsYiAW9QzSw5gWmuv/KViXg7MHUfAkyPrtheN4u3tzbBhwzTZp9BsNrNr164W7xdc9wkMZeriWKY2cp/AwN7uVvZUfLHyEP2WJ6lDIgvY8ekpQm91bp/+3mG+SrhF6dvlGl+s3AazRzHVZXXMd0tBWTwljXnLXfpX5y/G0BA+9JkyhrVT1OaOq3dmHOePK+DPc0ayNll5quRwGs/WV5V05aZ941f3VOYhrr7ffo2W2yfxxIEwhlPADtchlQ36Iu/JrE86sOrO007D7mqqY+ocvh0D1ZU/q33YneFHVKjjNTxYtTuMURPO11zDsf2vN7fjPxPOk/VI7fkNHvLpOhQ16ixZ/WrbF5z0Z1fPC9ylDme15oeSlmPC+Tu9kuw92rWUnIPOFbGCk4EMA3YNt987Ll0ZdeE6FHXWI8XMauQ+gbrwAjcreypxO93Xah++TAsmsK9zhbDgZABvdCznafuQXodrXPqzUfe9seaHMatRVdFLDOU1+XLzBvj2PpdVYxs61NdN+0ZXjasMPLIniF3D7ddwaX/se34uncNNblf+tItkQGIHqn7+J3XPyOWXwnIggi4DB8D++q4hhBDiWuYRGxt7leNzWrc+ffowZcoUFi5cWO85Wm8Wr3X/16rLbvTeqrVn3vJesOk62nxeNCnHrRVayx5+0ICN3lszQxX/mZCHYf+VDeVtLSJHz+Xp0Xq+rG+Lh+4P8eLMKPbWczxy9Fye/nUk6Wueod48UgghxDXtGlzLs+mZTCZJwIQQ1w5DFW8PLsbU4BVHxfUk97P1fJ4dRfJ946kzKjRyNHNn9Kds54a6CWDkaOYuXs0LkgAKIUSbd7XLWIgmYDabSUlJ0aRvHx8fkpOTNetfCNEIDhuGN2oYorjO5PLZ8jVEvTiT+8bv53WHbK/7mJuJTP8Hz7grAeZ+xvL5n7VgnEIIIbQiw0GvczIUVQghhBBCiOuLDAdFWZhFy9VBhRBCCCGEEKKlSBKIskVDXFycZv3r9Xp69uypSd8Wi4X09HRN+hZCCCGEEEK0PEkCWwG9Xk9iYqImfVssFo4cOaJJ30IIIYQQQoiWJ0kgUF1dTVZWltZhCCGEEEIIIUSzkyQQqKysJC0tTbP+bTYb+fn5mvTt5eVFeHi4Jn0LIYQQQgghWl6bXx1UXFprWB108v1bmZFo4eDmaTy1r8DNGfezeOHv6eujPCpNf5MZ771HYWM66fwAzz/egR+Xv8qmX5ogaKGxrkx94bf4fLyQNdr9/kYIIYQQ4pqkC3hyBQDWbxZQsbvC4dBIjHPHofeyP87CvHIpliqHU2Kn4DvpRrzOplK6cUsLhXxpr7zyymXPKSoq4rXXZIvla8Xk+x+m74Vt/Ncr/8sV5W9hI3n80cGYdy13SAD9mLzgVn4Vr3c61ZRxkJeWZHP+KmNumHBmvTqQwJ1f8UpKhdszBs8YwWNJfmpwZ/n3or1syWmR4DQXN+EGFgwuZeX/pFN31momn31znqcfeJoJea+xWUZzCyGEEEI0mK50yRw1mVuIoeAlqo5bgJ4Ypt2Jx+4FlKqJoW7iUnwmjsOiJnueI57Fr8tpKrOr8Wpl+xW/+OKLVFVVuT1mMBh4/PHHnZ5rDdWw69kH743hg3qP3kCnYB2nT7x3ZQkgYYx8YDSd83ex3KkEWM4Hi7bygZoMJluOtGDy1xBqkhqVx7+f264kfh3jmT85lj1/bU1xaifv8xW8FfUCs+6dwP7XNiN5oBBCCCFEwyjpW3Yutos9HJ6OxjO4lOoCa80ztuIiiFAfxE7BGH6A0jVb0E1c2nLRNlBVVRU2m63eY62Nj48PycnJpKSktHjfZrNZk34BiP0f1k4bRYwO4AzbVkxhcZ3RoF2ICtbXbdtQncdwS+d8di3f1Mgk0o/JC26g68FjlCQPIikYoITvlu3ib0dBqeL1wvJJNlGTetPZiEulrm6Vb/CMEUwLzOSlJQXc6liFnDCStROUv+bt/oqn116AgZ24Ob6C75Y5VP5OnWTxXx1CHNiLZTM7E6w+rK1iqrHnXyBycAeC8zP5+Jf23JXk53D9XiybZGPLngAmj43CSN0qaNyEG1igHnOKTT02p8t5tpZ05X61Uul4vG57x3un3IvJ1nT2RPVT70MlGZvVe+X0uqJ46q2u6gusWwnN/Owbfnl6BKOSNsuwUCGEEEKIBlIWhhnQHV35SapPWtSnU7Fm+eM9fjZ6A0rS1y8ca1aqcjh7Pab3W8fwz7bAw8MDX19fTfq22WyYTCZN+ib7f5n+p2GM+r9tnLG6HIv9H9Y+t4ttf1LmAna4ZS3b/rSLbX9az/ywhnfReUhXQs5lsP+KyojeJEzoTeDOVKbP3M6nJ33od2cs7WqOBzLkgVhy3tiiHM+JYMxUx+P1UaqQ02d+R9qFSjI2pzJ95hamz9xSk0QNHhRFcH4uXx+t5xId43n24Rhy7W3/fJjzsf2YN92eEnqT0MuT7W8e5oR/V0YEZvLXlBwCuranZkfK8K48OLiUlTXtezB9rDrxcmAv5o71Yf8yJa7pb51Af9MNLLQfB3wS+vHrwEwWztzCCyk5BPTtwrgo3LZ/IaWCATMH1R4HIm5KYnDObqbP3MLqNCsJQzspse37iSfUa5rzM3ldvTfTn3AzFDbvAEdO6+g8IOmyd10IIYQQQig8A55cQcCIBKoPbaDa4Yu4ddM8SrdX4j17BQGTe2D9eL7LnMHWLTIyknbt2tX5405VVZWmq4MKN+wJ4nNv8mMFnP5mOqOeG8ao59xVC+sTRucwf8xFZ65wKCnk7f5BreSV88PRQjxD/QitOVpJxuYf1OqWu+PNZ/CYeDqXneI/9rmEp07y7g7nJC/vx5/Zkg9QwsFPsqmz/qzpLP/+izrf7lQuR895EtLOG/Bj8qiOGDJO8pE9Cd33E+vTrHToGVGb5OZnskqtHGbtzeOspz/tQ9T4BkVh2X2wpvKXtfkEh6vC6D2wNok0ZRxkqZr07tmbwwVfX7o4JIkNk8fJgnKMIR2Ia2xTIYQQQojrlDInkJ4Ypr2MX/A/KN+6TzkwcSk+4YcwrZhDdZ9Z+I9fjP6nd2qOt3arV692m/TddtttdZ6zWq2a7hNosVhIT0/XpG+9Xk+3bt3a6IbxQUSF+MG5FuxSTWSOtMDiLabC8satkNoAfqGBtEPJsssLS65w7qEfncIMRMTfytqbHJ+vJOPqQ6yjOKcIa68IIkDmBQohhBBCNIC6pMsRrNmFeEfEAPsgdgqGTmVUfrxOqQ7uX0UZs/AfkYx++z7nFUJbqd/85jdun/f0bH1bI1osFs2SML1eT2JiYhtNAovJKSqnT0t2aTLxcxMkgLl5ZZiTIhnaI50j9QwJ9VWrjvZELTLCHyOlV9WvY+KnJIQX1MdKYoel/rauXOcINpegqBB0RVnkNXtPQgghhBBtg5oRjcTQ12HOHwBBeIXVLvup69QFj5Ii6llv5Zqm0+mIi5PBZG1PAScKyjCGxNCpubvqGM9Dw6MozTznsJ2Btzq8Ulkk5RH7Vg81Ksgt8nQeYqnK2nyCwxcCGfJgYu0cvo7xzP9vZc7hnr05XAjvyK/tc/Q6xjOmt46Mr39xs53C5cVN6MWI+Aoyv7tAzdDWhHjG29eLUheqOfhJQ1YmVdoH3NSP/+px2ZPrlZVdjjk8kqGXvEYE8WF+mItOSxVQCCGEEKKB3O8TmL0e084Q/EcsIuAW9cySA5jWrlXnDbruITiSgCdHwunWsV+gwWC45BYR7p5LSkrSbEiol5cXISEh5OfXmbXV7Gw2myb9Agwa8x4v3RxtL0cTM2cXo+pdJfTKnPguk6L5NzLqhk387QfHI677BPbjlbf6NXKfQG8S3K3sCUA+qzaeYNlMdUhkfiYfp/kzItCxfTkf/PMYPeYrfTtfI59Vf/iOWa8OqbM65nlQFk95C5bNdOk/pQJwTTbr4RvN3X+K5m7AdfXOrM0/sIgbWPDEONYC9tU7/1bfQjUu6ran8fsc7vuJ9WkjeOyJcQypr31Ef3p2sHJio8zpFUIIIYRoKI/Y2NiLWgfRlK5ks3it9wnUuv+2LYyRjy/gLp9vWf5qY7eJuJTLb/Teqg3sxbIHjWy/xjef7zr1BWZFH2C57BMohBBCCNFgrWyb96u3cOFCrUMQrUoBqf/8jJ4L7uLeift5dVPTpYFCWxF3zGHmIBO7lksCKIQQQgjRGK1vlZQmNmTIkMtWB00mk1Th2rKCVP7yxh6Mw+5lYrNPDhQtoyujb2lHxj9fY7NkgEIIIYQQjdLmhoO6GjJkCOPHj2/VFUJPT0+MRqMmm7b7+PiQnJxMSkpKi/cthBBCCCGEaHltvhJ4LbDZbJokgAAeHh74+vpq0rcQQgghhBCi5UkSCHh7e5OUlKR1GEIIIYQQQgjR7CQJRNmiQct9ArVMQquqqkhLk+X1hRBCCCGEuF5IEtgKaJmEWq1WzfZHFEIIIYQQQrQ8SQKB6upqSYSEEEIIIYQQ1wVJAoHKykpNh0TabDby8/M16dvLy4vw8HBN+q41mIX/2Mb27dvZ/u4C4jWORgghhBBCiLZMF/DkCgCs3yygYneFw6GRGOeOQ+9lf5yFeeVSLFXqwwGz8B+RgAcAxVR+9BJVxy0tFXebYjab2bVrlyZ9e3t7M2zYME33SRy88HGGx5xn228fYtFJzcIQQgghhBDiuuBZumQOpR98j8eQhRi66dWne2KYdiceuxdQumQOpUvmUHGiA8aJ49TjIzEO86ZypXKsfL8F7/Gz0Ru0ehni2jWYkT2j0J0+wkZJAIUQQgghhGh2ynDQ7FxsTlvGR+MZXEp1gbXmGVtxkcPxVMzLa6uCtsyfqbYF4xGn51rk6+vLpEmTtA5DCCGEEEIIIZqdkgQO6I6u/CTVJ+3DOVOxZvnXVvdip2DsF441K1WzQNsyHx8fxo4dq0nfZrOZlJQUTfoWQgghhBBCtDynOYHVtYU/rJvmUTpgFv6zV2CkmMqP5tcz568nhhGD8Tq7HZPMCbwiHh4e+Pr6atK3zWbDZDJp0reiM1GhOkozTlCiYRRCCCGEEEJcL5Q5gUveorrHy/iNGVhzQDdxKQFJJipWzKF0ew6G8Yudjtee9zu89T9i+nBLS8bdpCorKzVbmOV6du/yT9i+fSahX/2WXz/xPgVaBySEEEIIIcR1QN0i4gjW7EI8g2KUh7FTMHQqo3LnOqU6uH8VZdsz8OiV7LT4i27iUnw6n8b8zlqnKuK1prq6WrMtGgCqqqo026LC29ubpKQkTfreOPdORox4i8Jb/85/lt1DmCZRCCGEEEIIcX1Rk8CRGPq6zvkLwitMV/NI16kLHiVF2GzqY3sC6LhthLgiVqtVs83qvby8iIuL06RvxQlyCq0EhHUmUMMohBBCCCGEuF643ycwez2mnSH4j1hEwC3qmSUHMK1VK36xUzB08gLiMM5egdF+tdOplG689oaF6nQ6YmJiNEvEhBBCCCGEEKKl6EqXzHF/ZP8qyvbX0yp7PaZl65stqJZmMBhISkrStBoXEhKiyZBUm82m6VBYIYQQQgghRMvy1DoAoczLGzZsmCZ9m81mjRfF2cOJAgt06Mm98RqGIYQQQgghxHVCkkChuY1zX+DzM+0Y9fftbH93AZILCiGEEEII0Xx0lz+l7TOZTHz44Ydah3Ed28MrD47iFa3DEEIIIYQQ4jogSWArYDabSUlJ0aRvHx8fkpOTNetfC15eXgTF9QUPL61DEaJVsZYVUJJzUuswhBBCCNHMJAlsBWw2GyaTSZO+PTw88PX11aRvrQSFhHHz1Oc4k1umdShCtCp3dLVxau9W3nvvPa1DEUIIIUQzkiQQMBqN3HjjjRovkCJa0tncEg5k5modhhCtyuTe7SkPDdU6DCGEEEI0M1kYBvD09CQ8PFyz/r29vUlKStKk76qqKtLS0jTp285oNGq2OqoQQgghhBDXG0kCWwEvLy/i4uI06dtqtWq2P6Kd1kn4tamY1yN/zy+x9/JL7L3sDZG9HkVzSGLGK68z544IrQMRTeSGGYt44YHOWochhBBCYzIcFKiurtY8ERJaOMv70U9wg8O/goLSVQwqamhCWszrkX9ghOXPjWjTQMatHIxcS5DDU86xBfFU7ps8ZY+haXu/aoMD17AuOBVvxyer7+L/5TzIC9aWiWFK6EKe9XqQu/N6ku7uBKd7HElG4SJGlfm1THBa0x9gR9QWTuc9y4OV9Z0Ux4SnHyDh/Ke89nlezbM9pw7liVtDnP/zKMnmnRcOsrO8GWN2MGrOGO60HuCZVedx2+XtA3jzng7q58/EwXW7WP5VC33wtNYjgZdnh3Hk+e9Y5+Z3Qz98/j3D5z7K4zmL+EtqQcvHJ4QQolXQBTy5AgDrNwuo2F3hcGgkxrnj0NcsoJiFeeVSLFUAPTFMm4F3mL2QWEzlRy9RddzSYoE3pcrKSk2HRNpsNvLztankeHl5ERISoln/oFUSfoHXI/9EH8vzjD1bT5Kgud58laN+SdcfYEfULPbSmCRVO3tKZtC9ZIaSDAYYea8Fk7+GUJLUH8kqfJt+ZX5AMa+Hf8YL5rtbVZxaiptwL8MifuHT1z4nz+H5I+u+ZsY6NRnsV8o/WzD5awglSfXmp3UpauIXzPQnE0ned6hVxamZXzbx6vpwFk1+gJH7/4LkgUIIcX3SlS6ZA7FT8J20EEOBPZHriWHanXjsXkCpmhjqJi7FZ+I4LBu3AEeo+n9PUGW/yoBZ+I+fzcWaJFE0htls1mxRGm9vb4YNG6bpPomaJOEXM0gy6Dl1Ie4SCaBSZZtsLFIeWn7PzHPD+QylyvSy/wnleeMsfglQ/lpR8bxaeTrL+9GvEFxSW11yqkzpD7Aj4hC7iiOYGKZWoxyuX4elP2tMnXnZeIjR1HOOK5dqYm0lUXldd1183KFK5ua5S1XKjFs5GJbHpoI+DAt/hXjPy8TvYkroQp68+F9s17+q3l/n6zfkuFOVzx5PzoN84utYhXyRlFj7PbTHd5an/FMpK13lUPkL4qn8ux0idKkSO1QxBweuYY13HGf0f6eXrjdfFQ2mb8haghyu/37036m8MI4Ooeq9ca2Curw3tZ8blIT/cp8N/QF2RKnXxqVKbNzKwRBv/l6eySz1Pjh/LmtfV3zUvfzi8P7uqXn9SYy6MYJftr3G544ZYAP0nDqU3wVlskPXn7t76gE4tf1znttoBpQq3tDzezmZeAO3tffEtVJXp8p3+wDeHGNjwwsHyZ3oWIUczF/fUjs9nc7TL2WSRwy/GhzCue2fO1T+LrB2yQWHCGOYv2IgvYzqQ4cqphJ7EbkJneluzOeLT80M/VUHvB2uP39FLOfXF9Dzoe6011G3CtojgZdnq8ecYlOPTfNh2y5P7pugViodj7tp73jvuH0Ab95cyrsn2zFdvQ8lP+5R75Xz62r/v+O4HercXwB++Jzvh89l6JjOpP7zRJ338IYZi5g2wMw3i1/AzWEhhBBtgPIVIjsX20XHp6PxDC6luqD2Pw1bcVH9VykowmZrngCFaBYeCaRVWUgIXcA2f/flgSmhi5jsdS8zszfSKftvfFC9keURR0gE1he+ojxnDqGgdBWdsjfSKXsjifUNPXTH82OmBeex6exGOmUv4wePN3m5yeb2neX9QG+eVuPqlDsdXcAb/MMbIIj3zYPwNOzlXvsXVf1JJSmuiKtNRMI/IafwbbX9nUSFLlXbq7w+ZlrkFk7nbaTTuYWc9Po3T9ZzL90JC1jACMuf6ZS9kWfK/EkI+IHR9RyffKEvcUH/5oUGDGDfUzKD7tkbeaasMxUVzzPWfg/sSZTxR7rrenPEVF9Ftbi2Smx/7y3fMC1iR018Pj5b0Jcs5wPzGW4NzGNT7kJOen3N1Jr7c5hbw9V7o7a/N0T57NS5t+cWct77RdY5vveOn4069/Ys70e8QmD5qpr2JX4vOn+O9W8yz68rj6vvfZXPhzzjDRDNPfZr2nrzVY56b7JXOg+FTRpAZ91pjhxoZAaoCug7mJHWA/z3zC28/lUR7ZO6k+xw+Y4jbiI+/Qumz9zC619V0mt8L6fj9Tmy7mtmzNzCe0cslPy4h/+euYXpM7cw3Z5E3R5JV2M+GV+Y67lCMNNf6E/HDHvbr/iyvAMPz+uKfdZjQN92mP/1LV+eC+X2oTY2vHmMc+0iGF3zcQnn9kfCOPJ8bfuJ09qhhB/D/Ee7Y/3ycyWumfv4KTyRP86yHwcCYnl4hI0N87YwfdkxzrWL44Fb7R9sl/bLjqG77Rbm3urwwe+QyIz48zwzcwvT3z+Nd994JoYDnGHxHPWa1ny++B/13sz8ws1Q2F/Yn3GO4G5DkNmBQghxfVKSwAHd0ZWfpPqkfThnKtYsf7zHz0ZvAGKnYOwXjjUr1f1FunbB6+zxa7YK6Ovry6RJk7QOQ7SoYJ7KfVNJLkIf4ZfYe0lXEzzFWSYYffmq0F59CeKpkglUOSZOV603X+Xbq0PRbDZ3xleX6xCDA+NW/uBfRkbpDQ2rAhLNPbkOlSNzX45Zc4nSK4nCnpI7OXjxB242Ko8H++whuvpulqiJwGCfPYRUPsoce2JgHsI28xl6+jomqZFkFM5Thqta4kmrshCmdxxSfmkVFc8zVa1erTcNo9jzNEN07o/vqRjMWY9f6OLl7kpNzPgdo4wxpJXYE/ognir6vXOSZ7mbJWXK/poFprG8UO16EYd7Y0+6dTnEAlMCNhLvcK+x9OfpkpH4Gw85JMEOnw3Xe2v8ke4Xf88z9sqfpT9rTP509Mmq/exU38X/y1Pff5f3viHiOoRgLC/g5JXlgHA6nT+rlbwjabnk+frSwaf2cMmPe3hVrW65O95sbo/nxvaF7Nlon0t4gbUbjjsneaez+OdXyht6Ku0YO+t8pE0cXLdHnW93ge8zi/EN9ccX6Dk1nu5V2Wz/2J6EnmHxR6fx7hTF4JosMJ8vXlUrh0dzOZ5nJDRa/eDfHknX/HRW2it/RzPYmaEnvm94bRJZks07S9Wk94tcMs2+hCc2/ofSL2cKMfuF0Tms7rEf1izgscekCiiEEG2Z05zAaodfFlo3zaN0wCz8Z6/ASDGVH813mfPnOGewmMqPtrZk3G2KlvsUms1mUlJSWrxfR76+vowdO1aTIan2uWvK8LoXSWmvDrvT5xLhedhhuJyq+q5mjcdHl0Ms9uTjMLe6DNdrzMIlTkNW7deo+Xs0m83+POuTRWJZDPcYs8gqnVKTNHbTnSDYJ7V2KKWqwPFHQPUNfGt2GE6Z+2aDY7syaiJT2QKLt1R34uc6id1VUpPcDKDCGkX2FV5msOEURn0qb8U63++KhufflxUREYI3Z5vugpelJjItsXhLiYnTTXivAAj0o5cf5AKUlPPTFc497NneD68OHXjtLedfBZX8eNUR1pWbT5G+H1FBgMwLFEKI644yJ5CeGKa9jF/wPyjfuk85MHEpPuGHMK2YQ3WfWfiPX4z+p3dqjkMq5uWpKL+vHIlx7mJ8drsuLiMaQsstEmw2GyaTSZO+WxW1GrMuQPmiriRDDguztBDn5ODK+x8cuIbn/X35Kmej2l6do+hwznrTMP4Qtpd7jVUk6bqzy+ycXDnNU2sVIsmxNEECWN2OQtthpapZWc+/Oy+16mjPSbzOE+oJp6+mX1sHvrNCGK7JvpJ0e9O14ddqxPzLK5GXV0RlTDNd3C0T+elNkACeKafQ2oGE242wsZ4hoYFq1dGeqMX4EXq11X018YuAmoTQPkewZ3s/vCht+LVc5wg2l8hwQiyF7C1u7o6EEEK0RuqyAkewZhfiGaT+rx87BUOnMip3rlOqg/tXUbY9A49eycrw0DpSsWZV4xnsdiBbq1dZWanZwiyitSjmHuNevNUv6soQvDPcGrrDaZ6asyD2W0MIcxrG5yi3ZgifkpRdYmyVOtyzZk5eU3CoZk0JXem0FQagDPG0fMO9of/Cu2Ks06qY603DqPJ5gxWNmOPXfIp5PeRN4quHss4hIfZRh1cqc+yct9MAOG7t7Dzv0U5dZCesZo6k2ke4OufQ3Jdj1sMkBdqHBxfzeuBmDBWTePlKfiGgP8BrgamUmfvwGerQV73DHD/9AWb4Nnyo756KwZz1usr5o5ZI8uyJsBtZp4sw+4UR3+zbAwYz/b5utD+fx2cOoQSqwyvpkcDLd3dw3moEOF1Qhq/TEEvV0Qx2ZljoOGIAU2vy+2CmP9lHmXP4RS6Z5nAG32ufoxfM9FujqfzxJJuu5Hb2SGDqkBDOZZwmD/vQ1lhG3GVfdUZdqCbtWINWJj3R1LP0AAAgAElEQVSSlkteu0Rm32u8/Mn1OVpOoTVcSYQvoVNMKMbyAk64qQLeMGMRq1e/zuMj3YwVFUII0SaoX49GYugbjnW345y/ILzCdKAOAdV16oJHySH3C8CoSaPl40PNHnBzqK6u1nSLBIvFQnq6NvUWb29v+vTpo+kWGZok4bZNHIz9i3Pi4FRdCeKp3Fch8g9Ow+5cq2PrC2czIfqJmnNqj0dzT+F0DkaqK4dafs+GshP82mlO21UM93RZHdK+Qql9lcg9JXdy0P8JpkV/zDSgouK3/GTdgt7pIspctfHB5/nZdZEU8xj65cLByEf4JdT+ZMMrk677BE6L/phpjdwn0MfH3cqeCuf73puviqYTGuhcO9lTcg8fGf9Qcw8cr7G+8BVgIS+73n91fuY9Z5fxfvQTLv0r7/vgBkWfS0Jo7b1zWr3Tzb0tKF3FoIa+95b+DM9ZyI6o2lVpGz9c2OXz6bo6aNp+Tkx6hFtGd+XzdZlOLZ33CQzh4aWxPNzIfQID+7pb2VOxbcUh+q4YqA6JzOeLT08TOtS5/ZF1h/m26y1K3y7X2LZiK8wZw/0uq2MqsZ1h8RyYv8Kl//r2G3TLl35Tx7J2qvLIafXOoxk8sxJenn0Ha9XNO0t+3MMz9VUlXblp3/h9Ds+w+KNI3rzHfg137TsxIKE9F45/gLtfTeXmF1FFHB17DiAsNVVGiwohRBvk0WvFpovgZp/AAbPwH5GAh/1xyQFMa9eq8wZd9xBsvfsEDhkyhPHjx7Nw4UKtQ2mVtJyPp5XQ8Eg6/eZ19mfmahdEgzbrbn6DA9ewzq8rjzfj0MIrcdmN3lu1utuDXCv+d0J7zqR/x6pVq4ib8DRzb6nk09dWNHqbiEu57EbvrVoM81f0wPqva3zz+RtmsGiyD6mL6tkn8IYZLJqWwNl/y4byQgjRVqlzAt3Yv4qy/fU1c5wPeO3T6XTExMRosGG5EBrSH+C1wB/JujClVSWAonXI2ryRXQlzGTXlDg6s+Lz556iJltFpIn+YksDZjxe5SQBvYMaiaQwILOeoJIBCCNGmNdli99cyg8FAUlKSZkmgp6cnRqNRkwVabDabpkNhQZLwFucwlLRRwxDFdSaLza/9k4hX7mXKHQdY0ZTlQKGZG+64EZ89b/Cq2wTvB9Ys+KHFYxJCCNHyJAlsBYxGo2ZDMs1ms+aL4midhGvC0p/hp/tr2PdGbfpuoPWFr7Be6yCuWDT3nF2pdRBNJI01C5t2vvC2FVvZ1qRXbElnWDznjNZBXJUf1ixA0jwhhBCelz9FCCGEEEIIIURbIZVAZIuI61GAnw9R4a6bCghxfdt+8Aypa1ZpHYYQQgghmpkkgWi/RYSWSaiPjw/JycmkpKRo0j+AyWRq0aGw5WWlXDiaSqSn/vInC3EdOfXLJfayFEIIIUSbIUlgK6BlEurh4YGvr68mfWul0lzBwU/+pnUYQgghhBBCaELmBAJ6vZ6ePXtqHYYQQgghhBBCNDtJAlGSwMTERE371yoJraqqIi2taVf/ayyj0ciwYcM0jUGIJhdh4vuHs8m600SC1rGIKxIx+Rn+8ux9zu9fxGSeWTIL+YklhBDiWibDQVsBexJ65MiRFu/barVqvjWDp6cn4eHhLdyrH5MX3Mqv4p3nBZoyDvLSkmzOt0gM4cx6dSCBO7/ilZQKt2cMnjGCx5LUffxMZ/n3or1syWmR4DQXN+EGFgwuZeX/pNO0/zKsrBl3nlERttqncsK54xNfMpq0n6tRxacPFGD9th3jT3o0w/Vd7kGre/3Na37yGabbIkj+0kB9ux/6D32UJ2/14tu/bnC+L3kpfJn5R+559j7OvbThurlnQggh2hZdwJMrALB+s4CK3Y5fREdinDsOvZf9cRbmlUuxVLlcYcAs/Eck4HE6ldKNW1og5KZ38eJFTTZqF1oq54NFW/lATQaTLUdaMPlrCDVJjcrj389tVxK/jvHMnxzLnr+2pjhbqUG/45Xxlbz9/D84Xs8pZ/d3YMh+T5SE6zybbmt3yaSg0fJ8ufGd2Ka6WhNSXm+vC+Hc8baa+HUtZscAG8P3y+AQAPyH8uBdiZR/+1c21Mnyyvj6jSW0f+ZZ7r1vHy/VPUEIIYRo9XSlS+ZA7BR8Jy3EUPASVcctQE8M0+7EY/cCStXEUDdxKT4Tx2FxSvRGYhwWhTWrwCFZvPZUVFRoujqmlkmol5cXISEhmq6OWl1drXk1si4/Ji+4ga4Hj1GSPIikYIASvlu2i78dBaWK1wvLJ9lETepNZyMulbq6Vb7BM0YwLTCTl5YUcKtjFXLCSNZOUP6at/srnl57AQZ24ub4Cr5b5lD5O3WSxX91CHFgL5bN7Eyw+rC2iqnGnn+ByMEdCM7P5ONf2nNXkp/D9XuxbJKNLXsCmDw2CiN1q6BxE25ggXrMKTb12Jwu59la0pX71Uql4/G67R3vnXIvJlvT2RPVT70PlWRsVu+V0+uK4qm3uqovsBGV0L3b2H37XJ54PYzNry1n2yUzO0/OlHgS5/TcZSplESa+/1U+7Zx+7vnyycZwHitXKk2zO1cDUJbpJrl0bV9zfZd+h58ia7jy19qktW77usdM7P1XIJ0mnKeXN1AWzOLNgaysgtGDiuluCWbx5w6vJzOI4Q7hjR6Ux+p+FTVDRZwT5hLMJy7SL7ECc2YEe4MKGBbhxcEdStVy9KA8XvML4t+eeTyi3gOn+OpUYmvvGyj3blJxJIc75Kjn6Guubed4fx1fm3LtAqIOB6O7OUd57Q7Xd35d50nr6nr/1Vs49jYSy7/lr/UmeHmkfJnOoIl3MGxDBq5rO/sPfZQ/Tkmk/Mu/SpIohBCiVVL+V87OxXbR8eloPINLqS6w1jxjKy6q01g38Vfoz+3BUnixzjHRcFomod7e3prPx6usrNR8XqJ73iRM6E3gzlSmz9zOpyd96HdnLO1qjgcy5IFYct7YohzPiWDMVMfj9VGqkNNnfkfahUoyNqcyfeYWps/cUpNEDR4URXB+Ll8frecSHeN59uEYcu1t/3yY87H9mDfdnhJ6k9DLk+1vHuaEf1dGBGby15QcArq2p2b2aXhXHhxcysqa9j2YPtZHOTawF3PH+rB/mRLX9LdOoL/pBhbajwM+Cf34dWAmC2du4YWUHAL6dmFcFG7bv5BSwYCZg2qPAxE3JTE4ZzfTZ25hdZqVhKGdlNj2/cQT6jXN+Zm8rt6b6U80ZihsNv95bR5/PxbFhBdf5MFulzg1ooq+oTZKSnU1idr85BxG2UK54+1Y4t6OZptnIZtuqyICACtrbirE/2Q7kt6OJe7LICrRc3BHWE0is3hnDHFvx7LyhLvfjintbT92IO7tWOVPTQKiY8aWDsS93Y6fKvUc3NGx5pzaJKqKT0fl17bfEo5n3xw+inf8OWziznsLsH7bUbmW/gJTetkAK7+JrsR83sgG11Eddl2LWdnPg882qrF9GUTYAMfrmxgU6sfYL4PQd82j2+loVp6w0aWjRb0/4N/1PPfYImruT9iAQlb7ubu3saw8Ucmdd5Yw21AbQvSAc/Q+Ha0et9GvZ0XNvLzRg/J4NDKAxevU9rmlzL/Dcd6lhX7DC9XXHs22PDPDBinv3Wd7I+iivi9lmer753T/ASJI7taOvOP7LjnUs+zAIbIsnektkwOFEEJcg5RvFQO6oys/SfVJi/p0KtYsf7zHz0ZvAGKnYOwXjjUrtbblgFkYO5/GvGkLkgKKtipv9w9qJa+cH44W4hnqR2jN0UoyNv+gVrfcHW8+g8fE07nsFP+xzyU8dZJ3dzgneXk//syWfIASDn6STZ1ar+ks//6LOt/uVC5Hz3kS0s4b8GPyqI4YMk7ykT0J3fcT69OsdOgZUZvk5meySq0cZu3N46ynP+1D1PgGRWHZfbCm8pe1+QSHq8LoPbA2iTRlHGSpmvTu2ZvDBV9fujgkiU1h7/8tZNFn5Qx44nXmjopwOhY94DRZj2STNa6YnC87OiVZI2K8+WSnQ2KWHoC+nZn7DKhJoxc/n9IrSWOmD5mVFiKCG/eTMDrafGULxnStoOuFcB62x5vnywdZzkkYwNn9UWr1zMD2M14EBliJcHc9J1bWJJZiyQzkeTWhJTOIvzkleXoOHvFR7k1ZMOt/cjOENCecifbqp3p/OkRehAgTk+M8a9sDi3dG8JO+nDtiau9fWWY7xquvb/Fpfyr9rIw2KPH9JtrGT3sC1MofLP4phPPhJub6uXvtOv511htjgJWQy752lX93wgMtFJ67TAWv7Bj5JXpC29d9F8u+foMFjz0uVUAhhBCtltOcwOrawh/WTfMoHTAL/9krMFJM5Ufz1aGiAD0x9OtK9TfPYKm69pcYNRqN3HjjjZpt2H698/T0xGg0to15mWoic6QFFm8xFZZT2MTX9AsNpB0FAJQXllzh3EM/OoUZiIi/lbU3OT5f2XSLaETcwZynJ9K95ot/MfvfXsiaegvKfiTcMoZu22rnCCpDFG2sGXeemztaiDipJi0RVsJ0Jnrdm43TIOUytcqap6PAalGSopMG8rpW0NXbl9SMhv4k1DFjSySfPnCezx8Bd8MdL2V0UBVeUcVqW4fwMh0f+bLfIZ7FO2NYDICVhnCsijYNNUkuA9BzOvdKF7uxERNYSS+HYbKKJtzr1Kc9IYFQfNkTKzhXZOKmsPYgy8MIIYS4xihzAumJYdrL+AX/g/Kt+5QDE5fiE34I04o5VPeZhf/4xeh/eofyrfvwHDEJ74rtNfMFr3XarE5ZS8sk1GQy8eGHH7Z4v46MRiNjx47VPI4mYTLxcxMkgLl5ZZiTIhnaI50j9QwJ9VWrjvZELTLCHyOlV9WvY+KnJIQX1MdKYoel/rauXOcINqm8z1nx1OeXPW3Q717htwOr+G7ZY/zD7QoxSpUv47YSXtxbOy/NdZ6aM2UOYa+utXPKzu7vUM+59THwq3+qi8Z0LSZj+Hk+ohErgV7xap46jpV6MKqdmfsMhppqmiulamifx2ile8DFhmRFl6An74L9talVQftrjbASpoOG/7NpXNLcaBXnKCppyC83fWgf4suFE+eaJw4hhBCiGan/zx3Bml2IZ1CM8jB2CoZOZVTuXKdUB/evomx7Bh69ktEbeqKLDYUOIwl4cgUBT67Ab0C4+vhP6GNl14nG0joJFU2gYzwPDY+iNPOcw3YG3urwSmWRlEeS/FwaVZBb5Ok8xFKVtfkEhy8EMuTBxNo5fB3jmf/fypzDPXtzuBDekV/b5+h1jGdMbx0ZX/9yRdspxE3oxYj4CjK/u0DN0NaEeMb3UE9QF6o5+ElDViZV2gfc1I//6nHZk+uVlV2OOTySoVd4jUG/e4Xfds9h8/PP15MAqjL92OUwb4w8Az8WmrkzuZ79/bqWM8wnsGZOmvN8vStQrKeo2vVJT86UVNcZ4gnwWbYf+eH5vDPA5tqoQRb/FMJ5nwv8/qaq2murq4PWDJ/sWsKL9o9r13KGRRjZtffKVk6dn5xHL4sfn5/xUO9ttdMcv/m9imiXH8T8BiV1BrafsdFvcKnTHMLGOlRqwGgf3uvqEsM8nVxi2Kj/0EdZtHo1S2bJhEEhhBCtk5qxjcTQNxzrboc5fwThFaYDdQiorlMXPEoOYbMdofr/PYHjL5A9RzyLX8SBa3aLCIvFQnp6utZhiBbluk9gP155q18j9wn0JsHdyp4A5LNq4wmWzVSHROZn8nGaPyMCHduX88E/j9FjvtK38zXyWfWH75j16pA6q2OeB2XxlLdg2UyX/lMqANdksx6+0dz9p2juBlxX78za/AOLuIEFT4xjLWBfvfNv9S1U46Juexq/z+G+n1ifNoLHnhjHkMa2H/Q7ftPxCMueqn+LiFr2amABfz/VjvEndczY0o41487z+SO1MylrVvnM9GNX4nnmT73AfIeruG45oaxMCfZVKGvau1lZ9Oz+Di6VLR0zdofy/a+cq41D9nsqW098Gs73vzpN1gD7+Y2ojtW0d10dU0lkP9sbwWPksbpmOKxy7UZVOqPya4erOq3e6ebelgWzeHPDq5qLd8ZA8hnn+9/Iyuhne0PYHu3wHjq1z2Pn8fMMv8n9yp92/v37EKc/QYqbE8qO5VMCdOjcm2HsqvcaQgghhFY8eq3YdBHc7BNo3//P/rjkAKa1a53mDdq15iRwyJAhjB8/noULF2odSr30ej3dunXTZLN4b29v+vTpo+nqnK1hm4rGu/xG763awF4se9DI9uto8/km07WYjIEerKxJbNTnbrOQWu8Q0uvH6EF5rG7nx9hrefN5/6E8+sd7CD9Q3xYPEUx+5ll6nKjnuP9QHv3jFLqe2siTqyQFFEII0fqocwLd2L+Ksv0Nu4ht+0tXORPp+maxWDRJAEFJwOLi4jRNAqurq6+xBFBcz0YHVeGFt9Nz8zuU4V0WQHoj5kyKVqzsa/7xcR/+eM+93LfvJZcN4/0Z+uiT3Orlbh9Bf4Y++kem9Amk4idJAIUQQrReMoGPNrY6pRCiWdUZSgguQx5FW1D29Rssaf8Mz957H/te2lBb1YwYy21dT/HhkxvcVDrL+PqNBXzdopEKIYQQjecRGxvbprf5a8hwUF9fX01Xp9QyCW0N22PodDpiYmLIysq6/MlCCCGEEEKIq3Ktb/HXJti3SNCC2WzWfH9Eg8FAUlKSpjEIIYQQQghxvZAkUAghhBBCCCGuI5IEApWVlZpXw65nFy9elPmYQgghhBBCtBBJAtF+dUqz2UxKSoomffv6+jJp0iRN+rarqKjQ7PULIYQQQghxvZEksBWw2WxSCfv/7J15eFTl+b/vTGYyk5XsgSQkgEQIoIBEIiiymELQgiKKSFUWa7EuVdwAv1oRNxYBqcpPbQtKrQUtWsFWsJSlKouGrSwBQSAhiRDInkkyyST5/XHOrJnJIiQHyHNfF5eZ85z3fZ9zTjLOZ57lFQRBEARBEAShTRARiLJZe69evbR2Q9CEUbz05Fa+mvUeU8O9nNJzAR/P3cpXc7fy1dwvefP6ri1eJeyO2bz5+0n0PD9nLx/6msnYkE3Whmyy1hbwRm+tHWoF1Gs8+m4lg89rolreX5nL14/Uuhztfk8xhzZkc+AV2ZxQaCNiy9k3LZusadlkTStivtb+nAcdJzzH0ufuIklrR2wEV7Fxku3enmZ1nIa++N3KM2+/xOSrXA5y6zNvMcNbDzv9AH79ivuYFtgFQWhzLnsRuH379ka3hwBFBCYnJ7eRR57X10qEVldXa7pRPCjdUYcOHaqpD94ZxUu3pFKTMYuRvx/KyN+P5tFvT7RoBv/BDzJzqIHtH3/EYfXYsGfzyfqkjKlO57kci7Ow4VNVJNn/NRQCrUpfMxkeBVot7690862lQm5fICmjEkh8JoKzF9Dl5lPHc2/k/TwB5eHZnL/Qu7yYP9L2YVb9N7JKa5daxPyR2ewbZP0ZI6vYPM3t2qdls7ktv+SILWefR4FmZfUd7r61UMjlBdF3eQKJ68MpvmAOt4wJg86c9+9T8I0PMeN62LZ6NUddLHXMTctz3J9fFbKwQ0smrmLjpMYEnNv8d5Yx0WYqM5H2UQKJn0RzVMs/F/0Afj1nJMHffcwH+50N1fzzP3uJ+qUXIWfdxcrvykidPgOPOrEpuyAIbY4++MmlAFi/nUXljkonUxqmx8dg8LW9zqLqzcXUqJsh68ctxr+br9P5JVjWvkT1UW2/lX7ttdeaPKeoqIgFCxa0gTfNwyZCDx061OZrW61Wzffn0+l0REZGarT6Bp5ftMG7OaYnUcZzHP7f9p83vf9gJo/tTcX2t/nocNOn28k1Mur2BEVwvHmOgE0dGfKWb9Pj2pCyjE70+T8DiqA6zQOvFcDsCB4/qLVnbYEv2evUZ6I+o/mPuD2jfYGkjApsNQ+OfRhKrw9DW23+n8uEQWeYGBLO08uD+FhrZ9ocE8OXJ6CIwXzYmcDwi+zvoTgzlr7b9YAididOA5aHMVNbt9qO4Bu595YelG17i9UuCtDKh+PyGKIPY+byYFYBBFexbkAVKVtMnP9XpR7mjy5n82Arq7bpz3v2C4OeAVPG07/2O95xVYAAWHf9iTnxz7BkwmR27/8A9zOqP1/Mn6PmMnXGaL5c0rDOvym7IAhti75s0WOQMImA8bPxK7CJuF74TbkFnx2zKFOFoX7cYvzHjaFm9Tr74IbC8eLgxRdfpLq62qPNz8+P3/3udy7HpDtl+6THsBUsHNENE0DB1zy39Dm+cz8pLI5wE+T+zDXCbhlK74rtvN0iBdgM+prJeK6Ov39ey333lhIIVJ+MYvJ0f7Y1w979nmLW3urLwjuDWQGqkCmk/L1OjN9vYcObZ+ip6pdxi82MA8BAxpJOjF/v7oyOlx+PofvKXNImhcD/GQAlsvnBUPUrbUsgn7VQIDY+XkmRHB7jPMJJmNmEabK1wXiXefmJLPU7AJf75za/q82NXANfZ/swsVMd0HBth1hWibOwYVE5matM3PDbAqIASsOYY3sWtnOcngH4km2fwNk352tWaep3w/3e4vkaUx54jWn9LWxbPIcPjzW8bM92K+PjLBTnRngVgBMGnWFhcAcSvzIpB2LL2Zdew3pViMwfmc3A3Fjyk/O4LgTAyI71MdyVp5zelN0mwLrZXpaG8/TfHYJ0/shs0stieYUCFiZbADiuirUJg87Yj0EeWbYEkZxoh79NzN84VWyeVsl36w2kpxcS6j4+tpx9g+GVzGoWppY3XNvtXinRvTyiMxMYftDVr4nTbFEm9/vjYOZXsXS5I4/0QcHMVIWhT+9CTtrWbmSsN1zvYTCr3ATm/JHZTIx3HdNAmNrtjvGufuWTNU390eX+K/dD+b3A7bkpdBx9Iz3KtvGWqwKkV88yUgKC+PgLVaABlJkYs8XppOAqNo7JJ0mdsuRwLFdv02MXeGHK8aRR2Shfrfpy4rtODDug8zx/fhDD8z3eRo/06lnEp4PL8Heb27Pd2T+F0an5vNPb9nffcDx+t3BT/1q+e6ehwLNR/c//sCd1KmmjP2B/Ax1nZdfKndy0ZDCTr/qShjqyKbsgCG2J8tefnU9dvfPhWHShZdQWONJh6kqK2taz86C6upq6ujqP/zyJQ627U2opQn19fTWMwinU1tZqEo08smUqY38/lEc3Hcc9+6bHsBWsnbuVryalEkokQ6apNYGPvczAZq8Qxk1JsZw9tpsLLAEVQor47a2+LFTTKku6FPNkuhf7tBiORxUyvznppGoUMvGZCM5aAvnsiQQSRyWQOMqTALThw7FCPcZIK4NRROay63ztYyfvqGXcHNf018ZoavywZwsY7h/GHPXaDpuhLCPaLoa631PO9cdiVL/j+eNxC7f8TknZ3PJqtHIsU09ZRif1nASS7AKojufeOMP1lVHcPSqBxFFxfOt/lve8pY7G1TAkwYcjX9uEno6XH4+1r+ERPzPjplXxzROq/76lTLM/m1ref+0McZk23+LYfMZ5sC9T7vN03InGfjf6mnl9aC0ZSxIcPpaG8ao3kdsi9KzJNRKanPcz0ykVuqUqwiZxeQJPZ8J1g8uZ0Cy7ldV35BOeGUvi8gQSl8eyg0IWuqUPhibnKUJ0eQJPZxrplqyM/3h7DInLE1iVowgTZY4EFyExf6Tz/AkkNlsA2ihjYnoN65cnkLg8muMhhfzWOV00pJCFyX48bbPH5zcznVSJQiqpmsGssvm3vDERp+dkKYQGq88qtpy9qTXsWK+M7bLTwHXpzU8Z9emt+G5b++nMaibe4Xh2Pr0LmRhv8y2WHaVATrRdAPr0LmRgboL93q7KKWOi+uzqD4bbnxc50R7v//yReVxXGu149iH5br+HHbnxyijOHt3dIA10YnwlunMBrC7xdnVWPkzLJ/qk+uw/iSa/yxm29KkD9NzzmS2V048dG2zXEKeKrObM3wTBVczv6M896nWP3hZAx77FjnTV4Cr+cI2FfRsc989ZABJdzivd9Xy8xt03B36je5BYeIzdjYkz6z72HC/lip5ekjqrv+RIVjjdr/FS/NeUXRCENkN5B+jfA735BLUnbB9yNmLNCsI49lEMfkDCJEx9I7FmbdTM0ZYSHR1Nx44dG/y7GNFShBqNRs3r8SwWi+Z1ie7YBOLIj3ZSzDm+Xj5UqQn0FC30hn8ykR2sFJ1uFQmoRLfmqNGjfSYOnKkjunutZ7sarQrrVNc6vqDjm3zbB446JqZYKPgq1B652/JBBw77lvPLdK8TONHU+Fqm9Kyi7AeT07U5BCjAsQ9DGG2PjulYlRFATbiVHs1ZPq6GIR2N/PMPNlHky8tfhaC7sspJxNaSMCZXqQlcfoa4zMhGBLInDGQsUyObbs+m+z1lDPQPY5Fz9LClNPK7MewWM1GlQXyxHmz3xmyspq+b0Mj442weeshzFLAx+8fbY0hcHw7Jau3THa4CrjkUZ8ba0yg/zgqkOKSGAc2w+/Qu5bqQYNZvt/0u6rlrWzjF8ZWuQqY0nKdVYedp/qYIjatq8TU5MLJjvS06ZuK7HAgPcRYqwayyCxtP9gvLrjKj/ecJiWbIjLCLxvqDIewoLWNgM2sa58WVc3ynI/L38fYOHA8xMz7WYSfHX7UrXxgQYrXfy/qD4S7ps7Nyg1zsjVPFwPhgVtkFu56JmUGuzyr4SiKDrRT+dNTLHAq9ehZxWK3b+2FUFSkA0VX00ofxqk1YlZlY9KOB2Lhqxd7alJkY45SWeijXn5z6ahKCnE+qJjmxkd8VYyXXdvb2/wA9V0WFUl+Y7zUKqGBl/9lifMKj8Szj6sgpLCEsPN6jtWm7IAhthUtNYK3Te4f1syco6/8wQY8uxUQJlrVPNaj3018/j+DrlZ/rDn6Aef3utvK7SZYtW+ZR9N14440aeCO0S0yxhIVAedNnthmKUDLQggykZlLHDdG2N5B6uodbFJE0xvkcQzPrapoar0Qdh19ZxVQMrIirYUhCPac3+SLv/18AACAASURBVDkiWQ3SKYHSsOZdSqSViDCzUxqsp/HOaZhKeubRdxtJGb2IyMn2wzy0nF+mB7NifR0TUyow/BTGxxeydi0viL7Lg7Cl5y2cVsOA86o7q6ZLLOA1oqXaAUoN7GpituJckyN6lxdE3+XN98SWQrlwWiELcaSStiZKpK516sYGBFtcfg6Nd0qDVTnerJmsdAmBbvHZZKU6Hzfa3292lRmZmFzJfEzM9Jg67JZqC1DqrW2zG7FWwilzSoP1MD6wI+HBUNjEVIcOh9HzcBijU/NZqpbd9gqvISC4jPluzXQsuSEe57jw1DE37TSTE5xFnh8Fth/LTKRtDGf3L/PI6glYgvj4i3CetkUe84O4Z1sNnw7OIWsgUBbGzE+cUlPRER8eCs1o61CXU0jJL8KJBw+CURWJiYpIbLldEIS2QqkJpBd+U14lMPQvdiGnH7cY/8j9VCx9jNqrHiZo7OsYnISe9bMnKLNPk4bp8ckEwkUjBO+44w6Px3W6hg1RTSYTqampbN26tbXdEjyg0+kwmUyXX11mVR5FpeApnpOT7Ye5f8Pj1YV6jrSiS5ZzeqUm8EJPHFfDkAQrlkxl/t94qlVrEY2NV6KODyQXMWdDEXNQ69ns5yrplN3ORnH37c41kC1YvkU1jEqkcO2tSqTxYheBx/YbqKCUlBnZZM1AvdbWEq9KJG5furkJEdcUfpxsdKxqDwPUqJ5NWPiEVROKz89d2AN67vp7gvJjbDn70rPZTOsKweKy1mocUsXAeCh2Slt2rs/7OTQmij8pNbDQWaiVhvO0fS0llbebUx2fT+9CTraocXfDGkQXzKcpLPNk0LG9TM/k7hXc1cFEhreUzQbCqbk0c/5GGJ16jskxJj5eowq74Co2jnHr0ZofxDXLg9Tz83nnl4XgJARt4tYmKOffCdivp46cwmIIbsbVxIfToegMOR6ttojifi8Crym7IAhthaqIDmHNLkTXQe1rnDAJvy7lWLZ8qEQH97xN+aYf8Ok9TEkPbcBGrFlt2Lr+AqNtd0rw9/dn9GhtmiZXVFSwZs0aTda2YTKZNLv+VqUyk3MlesI6Ntwd8Nh+AxUhTumRcRZmp9Rwer9fq3wY735PKZOSnevWAHsKoCKaero3sjynp8BaxYDhTf1tq+NrbSmMvrx/2EDCyOKfuf9fE+PjLMxOsdW0udfzObAJXuIsvH270iDFgSIkg11SPFX2mThQbLbXEDZNLc+NLKXOlp56nrj+bij1ia4NcM6HOp6bWoLJqRYycaxnsZvywGssWzaHe7x8Y9CU3caERDOh7iLOnuJXxWZbgxSPWFk9uJBQewph4/b6gwEcp4x0ex2YlVXJ5RRnBrcoCrmrzNi8lM88fZNRpfNBqaEzcjjLWZQ5op7zRzo1QXHxqTkpnKroKg3nFVWIzcoNIjS5gNWxTQz1iJLe2S3VWw2h8iyO70xotJ7SIXir2JTaMI/ik1IDuKf3AuSZOFzqqCH0SNkPnCvTE96p4e6AXx4K4Wh9ObdeV+UxvfNQrj85hiKeHdxIumWZntOVnlMyPc6vdgdtNtUGdpUA1DE3tdDeoMYTWSUGvLftU0SpK02ledpoKm1UR3x4B4oKPUvEpu2CILQV6rtAGn5XR2Ld4Vzz1wHfCD2oKaD6LlfgU7qfOk/p5P0fxtStnOq18r3Oz8HHx4eAgACt3Whn9OKh+5dwW6Lt/6LdeHnuVu9dQn8WRfznaB4jrv8FIz46zCZn075AJv6lhrW2aAxqF0lbNMs9nXFMLlljWhhdM5q9dvY89mEIH6Wc5oHF2YzDl+zNkRwOcvt6OtfIw58GsvZeW1qm6xzBKa6dNe++zyHEtrwazeRn8/lgcbYjpdKpA6Z7d8pxi82Mc4q+NTo+18hrGb584HTvbD4o6ZhqZO5em38GDu0Iwey2FeeWVyPYvDLXNZqojp9yXxzvr8zlb067h7h2+ax1SVetPhnFZJutQSqq4keDLqHe2BfIU1vN9usry4jhj5nFjLLZ+5rJWKB2FYUW/m7oeHlFB25b4Hh2wM/q3uoZD+l8btGZj7dHMN6eTmlkx85wwlNdc9BCk7115mzKbmL48mg2T3OztzCy5eqj8xoNr684M5a+9vvmZk9VUiNbljJa5r2zZ14Qr2SaWZiudJ8szoxmR2k+0S7jTYzYGcTJVFtapuscjd3b+oPhdKGQk+m27pbg/PxcO3/aOpA67B9vjwHOsHBatiMl0969U6nRc/jlzW7zz8iOzCC6ue25V38wnFVx2a7RRHX8XX+PZfUdeY7OobhHNk/z3x/OMiz1F9y4+ij/dbntJtI+iuXDcXmscRpvT/csM5G2LpqNY9R0S6Bhh00993zrlJLpbLePz3fMXxbGzE8U39w7eyodRv3YsaEjd+WqIvKKfHs6asnxcI5WOUSy+3jUsbYooGtnUNR0UdeoZvWXR8ga9QsvnT9tl9iX/t1C+PFrLyf4jaZHYiHHvvTyebApuyAIbYZP76Wf1YOH7R76P0zQiCsdSTSle6lYsUKtG2x8D0Etee2115q1RYTzPoEGg4GkpCRN9ukDCAgIYPTo0ZpH5LTisr5+/8E8+MLdRP/vbeZe6G0iGqOvmYyXqvjmcty3z3k7i/XOxy7O/RQvLpTtKyaao5wEqXJssn/YRVHTaNvCwVtKYlP2S5oGW0BcTjhvZ+F6rGduGz7P4Bt56LnxhO9+i5dXN94gpv2hZ8Cv5zIt8QjvPO95mwi/W59hScoZL3Zl/NTgr3nE4z6ATdkFQWhL1JpAD+x5m/I93oZtpOqNjQ3a6l8svPDCC43ai4pct7uoqanRTADa1s/MzNRkbaPRyFVXXaVpd06LxXL51mNWbuODtVfzwt0TmLR7bss2jBc8E2klItC14U734ZV0DtSReUwEYOPU0z3cCmanQ271nILQOliJdk9dja2iZwgUettKpTUo+y9/+Wcfnht/F3ftfhnRgc5Y2fX+GvrPncaEybvZ77aRn37Ar5kzMpjv3lngRSA+wf39zrLuEc8Crym7IAhty2X3Vers2bO1dqHFaClCfX19SUxM1FQE1tbWcu7cOc3Wb20qt73D/NjZzJ0wid1zP2qdPQPbE27pkgreNrIXXPFlyqIIMtzSQZudqioIPxv3NFWFtuiu6k7Zf5expONzzL7rLna/vBrRgU5Yd/GnOfE8s2QCk3fvd9rQ3Y9bburH2S8e8bzJu34A9w0MZue7z+NR4jVlFwShzfFJSEiob/q0S5ebbrqJtLS0RsXhZdudshlc1qmYgiAIgiAIgiA0oOF+Ce0QrbtT6nQ6zRrD1NXVaR6F0+v1JCYmauqDIAiCIAiCILQXRAReBGgpQquqqjSvx/Pz8yMlxVNTbkEQBEEQBEEQLjQiAgVBEARBEARBENoRIgJRomFffimlylpRX1/fLusxBUEQBEEQBEELRASi1MVpKUK0FKEBAQGMHz9ek7VtVFZWiggXBEEQBEEQhDbistsi4lJEaxHa7uk8lqdnpNPVVMEPny/gjQ35WnskCIIgCIIgCK2GiEDAYDCQlJSk6YbxglZ0ZuzEYcRkf86cNzYg8k8QBEEQBEG43NEHP7kUAOu3s6jcUelkSsP0+BgMvrbXWVS9uZiaaqdTEiYRMD4VXx1ACZa1L1F9tKZNHL+QGAwGkpOTNROBWorQ6upqTTeKB6U7ampqqkZdSiOJCqsjZ+seEYCCIAiCIAhCu0BftugxVczNxq/AJuJ64TflFnx2zKJMFYb6cYvxHzeGmtXrlJH9HyZoRAzVa5+i4hIUfhcTWopQq9VKVlZWm6/rjE6nIzIyUlMfBEEQBEEQBKG9oDSGyc6nrt75cCy60DJqC6z2I3UlRU72Xvj1jaL6Eo38uSPdKQVBEARBEARBaC8oIrB/D/TmE9SesAm6jVizgjCOfRSDH5AwCVPfSKxZGxVzQj/0YaXQdRbBTy5V/j0wFd9LtMJQ6+6UWopQX19fzaNwNTU1ZGZmarN4586Em8wUnpRkUEEQBEEQBKF9oAt+cinBI66kdv8qah2BP6yfPUHZJgvGR5cSfGdPrF885agZjAhDp0vEoPsnZYseo2zRu1hqriZg/BhtruISR0sRajQaGTp0qCZr26ipqdEgFbY/97+6jGWPdeN/815g5ZE2Xl4QBEEQBEEQNEJnE3G1PV8lMP0au0E/bjHBKRVULn2Msk1n8Bv7uoud0r1UbdytvjhE9b5j1IdEovNFEC4B9vDnZx/ioaXHuXrWi9zXQ2t/BEEQBEEQBKFtUDeLP4Q1uxBdhzjlZcIk/LqUY9nyoRId3PM25Zt+wKf3MCU9tKCIuqAwdJfJVvP+/v6MHj1aazfaLTqdjoCAAG0WP3WKwqpAwrtEa7O+IAiCIAiCILQxqoxLw+9qp5o/ADrgG+Eo8tN3uQKf0iLq6oDsvViLOuM3whYZ7IVf3+7Un9pHXW1buX7h8PHx0U6EoK0IraioYM2aNZqsbcNkMokIFwRBEARBEIQ2wvM+gdkfUbEljKAR8wi+Xj2zdC8VK1aodYOHqH7/n+gen0xw78kA1B38APP63Q0WEJpGaxEqCIIgCIIgCEL7Qdkn0BN73qZ8T2NDN1L1xkaqWsOrNkbT7pSCxpzjbJGOhJgwkO3iBUEQBEEQhHbAZVLVd35o053SdX2tRKjRaCQlJUWTtW1YLBa2bt2q0eqnWLtqC+X9HmPZstd5fJTUBgqCIAiCIAiXN5fozn6XF1qKUF9fXxITE8nIyNBkfYDa2lrOnTun2fqcWsvCJ9Zqt74gCIIgCIIgtCESCUTj7pSCIAiCIAiCIAhtiIhAtO9O6evrS2RkpCZr19bWkpWVpcnaNgwGA7169dLUB0EQBEEQBEFoL4gIvAgwGo0MHTpUk7UtFoumqaCgiMDk5GRNfRAEQRAEQRCE9oKIQKFdI1FIQRAEQRAEob0hIhCoqqriyy+/1NqNdkt9fT0VFRWarC1RSEEQBEEQBKG9ISIQqKur00yEgLYiNCAggPHjx2uyto3KykoR4UL7IrErL/zhRn595XnMcW0f3lg8gF+2xq4mrTn3pU5MZ2YtGcHDA85jjh49WbA0lTsTLphXbTO3IAiCcNmgD35yKQDWb2dRuaPSyZSG6fExGHxtr7OoenMxNdVA/4cJGnElPu6z5WykbPW6Vnf6ckNrEdqe0SwKGRnPM8/2JznQ+WANWV99w5w15W3jwxU9mfdYKHsW72D1SU8nhHD/3KHcEKO8smQdZMGrxzneNt5pjImbZwxhVOVeHnvn7IWfPjqQMKuZXcVe7IldeeHJPnQxOg7lb9vKzA9K7a+7dg7EZC7hWP6Fd6+pubvensrMUdEYnQ+a81gzbxdftII/nkidPoJ7A4/y0uJTnGmbJRVCAwnXmfnR269FTGdmzepHD6eG08W7tjPjPcc2OB27BRJQZSYr+8K719TcHUcP4LnbYnF566nK51+LdvJJK/jjiV5ThvK7jtnMm3cCj289giAIQqujL1v0GCRMImD8bPwKXqL6aA3QC78pt+CzYxZlqjDUj1uM/7gx1KxeB3vepnyP8zS98JvyAIaSXC2u4bwxGAwkJSVpumG8oA2aRSHP5bDgiRxVDPYh4Ns2FH/NQRWp3c4d5KXpivCLGtmXKeODWHgx+XmR0v2eOdxvWsfsP+3yaG9SZA2IppM1jzUvK6JKEV39+PX2//KnHwCCuLZHGNaiPIpawf/oqMBG5z7x6U4e/FQRYg/G5zH/+cMcbgU/vBNEYrgf5rySthWANENkXRNNvC6ff72iiCpFdF3NwwM28fYuAH+u7RWBvugoraGXw2OC0BcVep379Je7eOTLXfSaMpSnkwv4fzMP8F0r+OEdf66IMFJZWCYCUBAEQUOUzeKz86mr7+l0OBZdaBm1BVb7kbqSIojyMktCP/Rhp6j+aHfredqK2OrCtBKBWorQ6upqzbuDmkwmUlNT2bp1q6Z+XFRExvPMU/Fk/bOY/vckEQNQepI/Pr2fbaBE8R40sOXfBn45Po5A3CJ1DaJ8Idw/dzCd933DnK2hLlHI9NljSAeggt3L/8ObOyHp5q4k157kj06Rv7Nf7WOhk4tJ9w3h2etD1VdOUUzV97JTBgZeHUrpnv38L/Yqbohxmv++ITwScJwN/r24s6eJhlFQJRKn2Fx9U2yDGJidyam+16qRSme7h/HO944Q7p97LQH/PYL/zep9sJxlvXqvXK/rOla8q/zUkkjosQ3fcvqZ+1nyTDxvLPgc901YFJFVwKDZ6czsYgBK+HaRTeCp9pyjfK9+kj9xykyV2cppe+TQn+gwA+aD3kRQEBNm38DoLgblpYconXs0zxFpVAVWaQgP/mGMGo109c+2RmK4H/nH8lwF4LV9eONuIxv/aSFtQlc6AOQfdQjFpuyJXXnhyc7kvuUQvBNm38CAvG3M/MDIIwuuY0AHda0uQ1kxGKCKI599zbz1Vd4fygVCEVll9HhyJL+90giYyXjPJvBU+0/ZfK+KxNPHzVRU6cm3Rw796BhmpDLbmwjyZ8yTQ7j9SvXJeIjSuUfzHJFGVWBVBjBxyRg1Gunqn22NKyKMFP942lUA9ujJgoc68P2aEq79VZLyv/ziEw6h2JQ9pjOzZiVR9qFD8I55cggjynYz470aHnj5RgbbP0cMUv+2ajix/mvmfmZWjw/kN/Om0K/yW15/8a/tJPNAEASh7VFqAvv3QG8+Qe2JGvXwRqxZQRjHPorBD0iYhKlvJNasjR4n0Q9IwSdzi5IqKrQYLZuTWK1WzfcJ1Ol0mu2TeFHjF0X6naHseW0dU/9vD5m+cYwcH+Swh3Thrl/U8NF0xX488kruc7Z741wOC55Yx9QFRzljOcv619Yxdfo6pk63iagQbuweSumPp1XR1JCokdfwWEqNfewza/KJHJnKo6kO3/t2yOWtNbn49u9J533b+OSwju79Hd8khfS/hlGVex3jh/bhri6KLem+a7kz9jR/nK7M/+q31Vzzq+vsdtCTOLIfnfdtZur0f/PJYR29b+pGNzyN/zef5HXkvmcddgjgmjt7ULl6HVOnb+Wb4igGpyu+HV35tTpnFaV7dqj3Zh0PtiQV9uy/Wfr0YnYFjGLma7/GtXxMEU+BPZLpmbeNqdPX8c5uPdff25OeTnZzgU3gRfHInV3R5+TbRSGJQUSYSji6vZSGRPHIguHcaDnIrOnrmDp9M1+ejSL9ns6omb2kTh/B72+w8sXz6+zXZ081TYwiuZOB6Ktjsfzr38r4kwEkDQpxW8ef6LBais64vvF37RyIKTCW8bcY2fj8Oqa+eoCTHaK54UonOyGM+IWzvTO3pauCXU2VdRW8tnXO8tYz6hhLCd8usvn/7zYRgDbxZOzag2vKdjN1+joWbq8lZUIfBjrZHVGuDjxwbxIhP+XbRSExIUQEmjm265yH+TvwwMtp3GI4yovT1zF1+kY+ze7ATZO6YvvV7zVlKK+l69n6iuPZ2VNNYyLpHW8ktFdn/P67SRn/g57uA9zfX/3oGKaj6Gyly9GO3QIJMEVz8/gOfP/KOqb+fi9H/KK5doCTnQAG3exsjyd9nCpH1VRZV8FrW6eEPz6njqkwk/Gezf/1TgJQEARBaCtcagJrHYE/rJ89QVn/hwl6dCkmSrCsfUpNFXUjYRJ+XXKofvvSjAKCtt0pBW3x9/dn2LBhF2ljmgp2/9UWyTvHgVO1jIryB9RomeUs699Wo1vnPNhbjRDG3hBH7SFHLeHZrw7xr95DGNU/Cn5UfD/4n+Nkd7gGSnP5ao2Z0Bmus1iyDrJUrbc7uzuf7PQeRMcA5fGM6xdI1rd77CL06Mp9fNN9MMkDguCk8kZVumeXPXL4/cECbv5FIB2B44RwY3c/dv/dFvmr4l9rT3HjY9Fc2+U4x0+CEnncqYreUv57rJhr44PpxtkLGHk4xodzXuDMY89w/5JniH9jAZ9ngT2Kd2Qvi1XhlX/WjCXeNk6xR9ujXEqU7hGnesDGagq73t6NPpajvGGvlSvn+yNFjOgfSBhw5to+3H2NlW8Xeanfiw4kzAj523Yyb30VXW9PZUSXCjLWuAnOxCAiTBZyj3sSXyV8+446f6IHc2Ath2x2yimoAtvXFw1SZa+NoXsHCwec1lHSZRupqfSGzxieenu005cBKoXf885zK/hfkxMoUTzLiQMsVYVX4ZlyzMmu9tArB9kjyMW7tvOgUz1gYzWFHUd3p6/hBMvttXKVfH+ogFHDAokGTvboyZRBvmS856V+LzSQ8AAo3pXB3M/MdBw9gFFXWsl8z01wxoQQEVhNQbYn8WUmY6U6f4wHs8mHH212SikwQyeb/+6psj06kRRVTZbTOkq6rJmtXkttv+O9WW2boCoIgtAeUWoC6YXflFcJDP0L5vWKmNOPW4x/5H4qlj5G7VUPEzT2dQwHP7Db7RMMSME3bzMVl3AUUOvulHV1dZw75+lb4dZHr9cTFxenaTSwpqaGzMxMTdb28fEhICCg6RMvEYzhF1rIeKOmQRTh/DEQER+kisgaCnJ+ppiNDCEiKIDkaWNYMc3puOXCNXgJvP63PP+rq7DHxqoO8ckTb7HZ2wBjF677xQA+/9MuVdSUsPdPjoYmLjV4qt2RfhnFIwuGMn+yozGM95pCpVaw5FimS4qm8/yp10TTIT+Pb35wH4vT3HkcCU1hxbuBmI/s5YXpDZuveBNi0VGBWI8cZd0PTueV5LP6B892T/471yMq/jhHBhumyzab+nW8/tB5NC/r0YmkKDP7P3M0NHGpwVPtjvTLDjzw8o0s+Y2jMYz3mkKlVrDmx90uKZrO8/caFENUcT5/91xqqs6dz0G/3qx4NwTLiQPMm76rQdqpNyEWHhOE/sQJ/rnL6bzqfFbu8mz35L9zraPtWvOd1nFPlxUEQRC0QakJ5BDW7EKMUXHAbjW6V47liw+V6OCetynnYYJGDMOwabcj7dN+3nqN3L88qKqq0qwezs/Pj5SUFM1FoDTluTBYCssugACs5qeiKm64oiODOeslJdRAmEvU0Y9OYSY4L11oE36h2AXhTnX+yBAimpHp6sC9RvDCYv72/zHr26bO6s49c55gsHE3f37oT9g+N3ftHIgpP99JhEVx7RWB9vq+hqKnkvyiGnpGdCCGUs7QWOMWJYpInvOxKK69wpecTWc5A3QBzEVmr01fbALr038UEn1FHwIKPNcdRkcFYjTnuQlR12uxz2f31UNDl2tj6K4vZOPuKiCK6LBau68QxS3XRWM0H3Va5zyawpxnJLBjt0ACivP53i6COnB99xB7fV9D0VPN6SILA8KD6cI5TtJY4xYlikiZ87EOXN/dn7xd+ZwEegGWIrPXpi82gfXlJ1Y6XNGPGC/NV8JjggisKnAToq7XYp/P7quHhi49OpEUXMT3u8xABzqG6ey+QgfGXB9LYNUJp3WkKYwgCMLFgrpPYBp+V7vX/HXAN0Jvf6XvcgU+pUXU1TnOUKKA33tOExWESwAto5AXkqiRvbi5Zx3H9jh95W4MVNIrMXHzjFT7Vg92SsoptIYqKZYuKOmTZ0K6cNeDjhq+qJF9eXp8ELb0yZBeV9hr9KJGdqd/6Fm2rf850TYTN9+bTHJtPrt2Yk9tTbyuK2o2pNqoJpevmtOZ9Nw5DpzScc0dV9nHt5wqjhZUEXJFx585hyIAB1RsYP5shwAEmyhyiLDU6VcxwHKUFWqUTxFhjvq/rrf3ZkSXCvZ+YYvGKSLITmJXXphn29NPEYyBER3UTL4gJswewADLKf6h1szlnzWjj4/mWo97ADrVI2adYOWWfDr0TfKwX6B6nruYbFCr6FbfmBhFcqcKhz2xKy/c2xXLvqMeUlNV3zt4Fq2Oa2wB9et4/aGHeMj9X7NSQW2iyCHCek3px2DDCf6mRvkUEeao/+s4uhejrrSy/9+2yKEiguzEdGbWPNuefopg9A8PVuv//BnzZCqDDTmsV2vmCs+UY+0UzbUe9wB0ElhnTvH+V3kYel/hYb9A5bwGYrJBraKbYIuJpHe81WGP6cysB5MwHPzRQ2qq6nuUZ9HquEZPDOQ385axbOHvSIvwepIgCIJwnnjeJzD7Iyq2hBE0Yh7B16tnlu6lYsUKR91g/4cxdSvHsvbSjwJe3HVhlz86nQ6TyaRJXaZmUUj3fQJHDmfFyBbuE2iM8tjZE4AfD/Pnb6N4Vk2JLN2zn2/O9KSz8/hzOaxYH80L44ezYqTbHD8eZtYCmPeMe3dMxbejK7/mVYbwrNv6q08CzezxY0zszfPv9lZeuHTvrOJfS76GGUN44N0uPABq9879XhvVuOJhPC3f5/Doyn18M3eofY6WjO9+zz30zvkzM7xsERHYox/z3u2nvHDujGlrGtPFyW7OY83zO51EklrjN8p2jpI6aquv+/ijIyQ/6RhvPrKXWa850jlPfHqQTT1uYPxLYxivHnN0BlWbsOypVs89zoHrrmP8o2aOPX+Yw0S5dudEWcc+vkGtout8Sr1hB7o8OQblfy1VHPns37xob+pylu9/rOXBcb9gxTjI3/Y9X9KPAS7RyHI+3pjD4F+7Xv+fvKS3XmiMXfvwwrt9lBfOnTHtTWOc7FX5/OuVTU4iSa3xu812jpI6qtgrWfdhJr1n9bOPt5w4wIszHamnp788xIZeQ7j9/8Zws3rM0RlUbcJyvFI99xj7rr+Rmx/uQ9bMA3ynpqY6unMqPtjHN6hVdJ1PqTcMpMdvxrACULp6bmKGvalLCd8eq+Tp9BGsSIfiXbv59IfejChzjvpVsu6LbIY84Xr9rp1L8zlbVA2JnenVP4KNGwt+xlMSBEEQmsInISGhXmsnWpObbrqJtLQ0Zs+e7fWcgIAARo8ezZo1a9rQMwftXYRqff8vSZrc6P3iJum+ITwZn9uONp8XQN2Won8Jb7T5voLC+dJx9ACeG2ZhZRvsKzjwN/OYkpTHp/P+gGhAm754fwAAIABJREFUQRCE1kHf9ClCa3O5NSe5lNAyCikI7Y2mNqEXLl6a2oT+gjDwN8yb0o8Q82ERgIIgCK2MiEAun7owoeWYTCaJQgpCm3AeDV0EjWmjhi7fvYfsDiEIgtA2SDroRYDBYCApKUmT2jSj0chVV11FRkZGm69tw9fXl7CwME22yZBUVEEQBEEQBKG9odPaAUHbLRJ8fX1JTPS0m3PbUVtbq9k+iYIgCIIgCILQ3hARiCKEIiOb2dJQuKyoqqpqtw15BEEQBEEQhPaJiECUlMihQ4dqtr6WIrS2tlbTjeJBSYft1auXJmvX1dVJUxhBEARBEAShXSEi8CJASxFqsVg0rQcERQQmJydr6oMgCIIgCIIgtBdEBArtGi2jkIIgCIIgCIKgBSICkbowramvr9csJVOikBrR10zGhmyyNmSTtbaAN3pr7VAroF7j0XcrGXxeE9Xy/spcvn6k1uVo93uKObQhmwOv1JzX7Foxf2Q2WdPOsDr2/OaZMOgMWSOrLoxTFz1WVt+RTdY05d/my/HvxsbA3zBv4e9Ii9DaERtWVtx6yn7vv+2rZWP1ZCbPXcxTY+Jdj06ey6vT+mnkk3Dx4s9tz/yBx0dp7YdwsaEPfnIpANZvZ1G5o9LJlIbp8TEYfG2vs6h6czE11erLhEkEjE/F1yYjS/dSsWIFtda2cfxConVdmJYi9GLYIqGysrLdifBhz+bzQX9/5twZzApPx+IsbHjzDD0DnUf5kr2uI0Pe8vUwYyvQ10zGS1V8MzuCxw86GxRRMjzG6ZAlkM8anNcI+wJJGRVoX6PtqeO5N04z0RxFn/8ztGyoh2dTfTKKydP92XZhnbwkmT8ym4kun02DWbU8jJltsrqV1XfkcV2I69HizFj6bm+rbXEVH6IzExju9vcwYdAZFiZbXI4d39nwPO/ouevvCY41LoS7LcSndyEnk/14+u9BfNxai3QZx8xJSeR9Ma/BhvE3p5zlrasrUd4F/dizKYbbTvo0c2IrK279iStPxnP9Ps9jXOcPZO3fIni0EkDP1M87O+b4WRd2IehI+oz76Vu6mcXrclwsmRu2cfap+3hqzDled7OdHwbSHh3Kr/r4uxytyT3M4rlHOXwBV/JOAPe9MIwrj3zDc6tKPZ4Rd/f1vDwsXHWugE1Lt/GXo23inOaEDuvH3Fvr+ceMfWxqYK3kn5v28+KUF7kv9wVWHtDAQeGiRF+26DFV0M3Gr+Alqo/WAL3wm3ILPjtmUaYKQ/24xfiPG0PN6nVAGqbbe2L94ikq7Oc/gCntGszrd2t5PZckWovQ9oyWUchGyTUy6vYEVXCcI2BTG4q/ZlKW0UkVUIqgeuC1AmiJELykcRLk6jOa/4jbM7IJ3Vbi2Ieh9PowtNXmPy9yokn8ygSoonCkPzPV1zZmfpXQCsLQVST1zG1L8ddMSsPtAsqndyEnU7PZTEuE4OVOF8bdNZTI418wz00Bzh6ew4Nd/Vn7twRVmFlZkVbOg7nBvHMBAuIN57ewfmQlCV/5k33+018QOqbfTVrn02xevI4GMu/0epb8OYa5D0xkzJ7XuXA6sIaNb25koyoGJ4RltaH4aw6qSO1RwabX1ynCL6QTv7s/iZ5LLiY/taMm44+8FP8MC++8j90HViI6UABQ/u+YnU9dfU+nw7HoQsuoLXCE9epKiiBKfZEQjc6nmNos27vuIepKLt0957XcrF3Qlks2CtnXTMZzdfz981ruu7eUQNyiUU3Yu99TzNpbfVloi0TGWdjwZiHl73Vi/H7XSNe4xWbGAWAgY0knxq93d0bHy4/H0H1lLmmTQkCNrA17Np8PhqpRvpZGCpsc7yEa6RIpVYVpsrXBeJd5+YmsDcpPrtE81/kbjfTlGvg624eJneqAhms7xLJKnIUNi8rJXGXiht8WKG+rpWEuUeGG0UZfpw+hzr55iA439bvhfm/xfI0pD7zGtP4Wti2ew4fHGl52U3Ybs3KDmJhsZQIokaPYcvalF6LI14ZRwvkjsxmYG0t+si2iZ2TH+hjuynM9xyXa2OwPu1ZW31EA2zoQnZ5PtwY+NGWvYvO0EvKd/Jk/Mpv0MkVsuviVmk1WqvKjt0hk/cFwng6pYWFyORMOBnm4Py2NFNqEZbn6quG98xSNdBbtruOd1nfza+G0QhY2uD/u8zd8vu7rN7i+gSNJjTzOhnkbcZGA0WZuT9CzZ1O4KtAA9EzdGOx0khKlGxGhfh45HcWQfykCThF4dcrxiFNkDVB+LDvaiSFfGyjyOL+R9K9oPtFmvh9dQLSv29xe7M7+AZBUzNEhpfjhZTzJjBrcmdObF3sXeJkb2HbqKW4c2Y91y/e2wPnzwUDaozcw7OxBfuiRyvBYAAv/++tXLPkvKFG8G4jYsR/dL1LoE4xbpK5hlC/u7ut5ISmfxXNPEu8chYwdyorhyo8V+zN4+K2fILYLw/ro+N9fnSJ/pT/xhyVOLsYm8fILPYlTXzqimKrvlQVwbSJxFdl88V0QvxwW7jR/Ei8/HcD2z30YdXdngmkYBQ0d1o+5qs3FN9X2+xvNfHo0mvvVSKWzveF453un3ItnI7L5zKeHeh9qyd2s3iu367r33QTuxf3+KlT+cxP7Bt5H2qiVHNjg/gz9ue2ZRYyM/4HPf/cGDczCZYmSzNm/B3rzCWpP2ETdRqxZQRjHPorBD0iYhKlvJNasjYo5ey/Wos6YJk/FVw/0fxhTt3JqftyvxTWcN1rXhWnZnKS6ulrz7qAmk0nTLTouWUKK+O2tviwclUDiMxGUdCnmyXQv9mkxHI8qZL5bXZlH1Chk4jMRnLUE8tkTCSSOSiBxlCcBaMOHY4V6jJFWBqOIzGXX+drHTt5Ry7g5ZUxt5qU1NX7YswUM9w9jjnpth81QlhFtF0Pd7ynn+mMxqt/x/PG4hVt+p9TmbXk1WjmWqacso5N6TgJJdgFUx3NvnOH6yijuHpVA4qg4vvU/y3veau/iahiS4MORr21CT8fLj8fa1/CIn5lx06r45gnVf99SptmfTS3vv3aGuEybb3FsPuM82Jcp93k67kRjvxt9zbw+tJaMJQkOH0vDeLWV0lnnxZVTnGtypA7mBdF3eQKJ68Mp9jKmW6qSTpm4PIFVORau6+MQrBMGnWFiSDhPL1fsT2caW+iRhevSS8hfn0Di8lh2lJaRPsjqxZ7AqpwyJjaz5nDmV7Y5FXGTqPrYWDTyk1IDhNSgaJIqNqcXUmgbuz6c8NQW1E3GlrM3tYYdqu9ddhq4Lr2I+U72/0vGbl+VgxKZtEdpq9gUF2D3u8vOILqlquPV59ZlZ5AyZrnt+hwiz6d3IQuT/VhlfzbVTLyjnAku6zvsicsbCtyB/brhe+oQe9zTQBMqiKgMYH2u99TP2cNPM6ImkiHLleewyXCOfw2pIQx4bXO8cqzAh5xdne3r91FFVnPmbxwrK66u488fqdf2RQSV3QpY0aXeYR9USPVex9qJzgIQC+uvq+Lgpoa+2UkeyBVBeRzZ09i3HqfZm5mLX/draNvqQF/ihqdw5ZGtTJ2+nr8eqCN5WBKO8IKRq2+/irq16xT7kQCG3O1s94YShZw6/T9szqsld/NWpk5fx9Tp6+wiKm5oNHEVZ9j3Xy9ThHTiySeSwDb26QyOhPTk0Uc6OXzvF8SRdzI4UJvAqKR83vrbKWqviGaEbY6ABO64tZ5/2Mcncc9ENe88Nomn7o7mxF8Vv6a+eJiiq/rz8kRHXro+rif3JeUzf/o6ZvztFLU9u3JvEh7Hz/hbPl0nDHbYgYCr+jGu/iBTp6/juS0lxKV2VXzLO8pz6pxlFdn8Rb03Ux/xkApbs489J8rplizFgYKCLvjJpQSPuJLa/atc6vmsnz1B2SYLxkeXEnynkvrpqBk8RPX7MzD/GE/AY0sJHmHE8ubv1VRSoaVoKUKtVqvm+wTqdDrN9km8pLEE8tkcNXq0z8SBM3VEd6/1bFejVWGd6lrJGR3f5Ns+6NYxMcVCwVeh9sjdlg86cNi3nF+me53AiabG1zKlZxVlP5icrs0hQAGOfRjCaHt0TMeqjABqwq30aM7ycTUM6Wjkn3+wiSJfXv4qBN2VVU4itpaEMblKY5vlZ4jLjGxEIHvCQMYyNbLp9my631PGQP8wFrW0VtGZRn43ht1iJqo0iC/Wg+3emI3V9HVrMpLxx9k89JD3KF+j9vh8ewONiSHhvNLClMzizFi7OJiVGwQhVlVIVPHbZNix7fzq0Y7vtEXH9KzJNRIabPVid1//wlNf5GcXwz69K+iWE+0QRnlBrM+x0DOxecX2ExLNkBlh973+YAg7SssY2NthDy0NZI3LtdkEKICJ4U5pu/UHAzhONV2aKULnxZVzfKdDFH68vQPHQ8yMdxnv8KchXYgLM1FecJwCb6eAElGbrDbImVDKgwYAC0Pj/Vm72Sas9Ew9FIyxUyV3ncefUvNRopL2tNR8IweKa4jq4HpWfFwVCV7nqKZ7ZythXqwdE8MJqCrkVBOR79NZhVSYwukc3/h5F5qK/XvUSF4NGfvPURUWgOPR15K7eYca3fJkbz3ibulGH99cNtlqCUt/4s9fuIq8isMn+MuPABYytxzlR/dJagrYtEyttys9x76sasIiAwEDaeMTic49wZc2EZp3lP+3pYToK2McIrcim1Vq5LB49xmyqoKIVDVo3NBowvbvt0f+irf8QMbZUHoMcIjImtzDvKmK3tyt+eQaAolzEonNo4aDZ4vRhcXQp4Gtkn8seIiHJArYrlBqAumF35RXCQz9i72mTz9uMf6R+6lY+hi1Vz1M0NjXMRz8QLUrNYDGyk2ULVqHbsTzBD66FH2D5jKXBnV1dZw7d05rNwQN8Pf3Z9iwYZdmSujPQBFKBvIv+Mx13BBt+6BaT/dwiyKSxjifY6B5MeemxitRx+FXVjEVAyviahiSUM/pTX6OSJanxjql3j5auRFpJSLM7JQG62m8cxqmkp559N1LozlMTrYf5qHl/DI9mBXr65iYUoHhpzA+vpA1aU7phRMGnWHhtBoGtFlzmFZAFUqt0QjFJ6yaUJTo050hNaqAdj2nOLN5cw0IthAan0eW23eKx9X/flJqYGGymfGxQXycp4g2cqIbpOO6NvYxNvP9wkqXEOgW70iDbTA+L4h+O6s5aUuVdaqPVIgmKsyv6fTe/ECu/SBQSZ/sbxtqJUJnJvluM2Odzy1vu7pZ16YyCjknbT/pmfp5NOvvPcPX06BhUxsj6Rsi+H70T+xNAtemNAphMWEEUNK0I0VnKKrrQVQkLUiV1gCbkGmD5i01RRXkNX1aizCEB9ET5bNjTWH5z6w9NJAc6U9AnxRWvOt8vJbcI+fvozvWnCJKR4QTB1IXKKg1gRzCml2IMSoO2A0Jk/DrUo7liw+V6OCetynnYYJGDMOwaTc1vYfjF3GKqjfXAVC36SXMPE/gVRPRfb+CumZknF1MVFVVsXXrVs3W11KE6vV64uLiNI0G1tTUkJnZzE85FxgfHx8CAgLafN2cbD/M/Rsery7U0wrv+3Ys5/RKTeCFnjiuhiEJViyZyvy/Oe9Opo2NV6KODyQXMWdDEXNQ69ns5yrplN3ORnH37c41kC1YvkU1jEqkcO2tSqTxYheBx/YbqKCUlBnZZM1AvdbWE68fb+/Ab5NLlGjShf4U1laUGtjVSlPPiyuH0nDH/E4C+ufQWCdUJepYznXp2Sjv+MGsWu5Ya8KgM0yMb1gD2RKaqmGsPxhO4kGlLmr+yGwW3gHYhWA+Z4uq6eRh3L9KDNQGVZAeF8w7XruBNhROzaV58zdCUjFLr67lf5s6q8LOUxdRI+l/SbCff3TEGf7hLARt4hZVUN5dAE7XU3SmiIrmpDOExRCmK+TYxf7ddo2Z3AsgAM0/mSkLiKHvjbDJS0qoQY062oRaYKdAgin3fHIzsQm/eGyC0Da/IuxagnuNYGuhjw8jpOg0ua2+knApoG7wkIbf1U41fwB0wDfC8T8SfZcr8Cktos6eTRaKT6Itx6IX+oRwKD13yQnAiwEtRaifnx8pKSmarG2jpqam3TXlObbfQEWIU3pknIXZKTWc3u/XKh/Gu99TyqRk57o1wJ4CqIimnu6NLM/pKbBWMWB4U3/U6vhaWwqjL+8fNpAwsvhn7v/XxPg4C7NTbDVt7vV8DmyClzgLb9+uNEhxoAjJYJcUT5V9Jg4Um+01hE1Ty3MjS6mzpaeeJ66/G0p9omsDnPOhjuemlmByqoVMHOtZ7KY88BrLls3hHi/fGDRltzFhUAndnFIQzw89+aWO9EilBs3SxJjzoYpNqW41jViIVoPCimhq6OPJUugW13QdoTLeaE9v/TgrkOL4/J+9/9+s3CBCkwu81hDO71MImbGOmjRP0VknwTt/pK05joP6Ij+KG6R4gi211l5D2Ax2lbnXc54kt6iKoIhuNNge8GgQ3xTU0H9gmZr+6Ua+kQPFFYwdXtlIuqWeH0p9PKdkepxf7Q7azOsBA6fOKILu5pQihkY00jCvxEBxI2+t/yox4G5ubpqn97TRZCbPXcayZa+i6XaCIZ24/5ed8f0x32k7A181vVJpkjLTttWDnRryCqtdUyxVirf8QEaekavH9XXU8IV04nczlJrD3K355AbEMcJWoxfSiYkDOpC784SH7RSaJnRYb8b20XHsfz9hT22N68roG9UT1EY1mVua05lUGV971VXMuLHJk71S/IOZUlUIe8dA76hQ6orOeIgC+nPbM8tY9taL3NcwV1S4TPG8T2D2R1RsCSNoxDyCr1fPdN4HcM/bVIQ9T+DY17G/hedspGz1ujZ2XxDOD82ikPsCmfiXGtbaojGoXSRt0Sz3dMYxuWSNaWF0zWj22tnz2IchfJRymgcWZzMOX7I3R3I4yO0b/1wjD38ayNp7bWmZrnMEp7h21rz7PocQ2/JqNJOfzeeDxdmOlEqnDpju3SnHLTYzzin61uj4XCOvZfjygdO9s/mgpGOqkbl7bf4ZOLQjBLNb76Utr0aweWWuazRRHT/lvjjeX5nL35yKI1y7fNa6pKtWn4xiss3WIBVV8aNBl1Bv7Avkqa1m+/WVZcTwx8xi7KX8fc1kLCiwN2tu2e+GjpdXdOC2BY5nB/ys7q2N4pLSGMyq5Y6UP/fukBOnlTGx2XsJ6rlrWzj70tWUx9Jwnt4ZxEJbazz3fQJDlPNauk9gN6+dPU2M2BnkSGfMiWZVTj7upa4zv4pm4DTHPXCZI6TQa2dN8oLoux72pTunVDp1+HTr0GnrQGqLvtUfDKcLhZy0R/pc15h5IJz0dPd0UYf94+0d+O20fLt/xZnhHMfsenF5QbySaWahSzTRNj4GOMPCadlMtJ3vlPLZsDOp6+8GwHd7j3P7lOtJ77aRvx53Mqj79M0ensPse4uZbTtsT/fUM/XzTqy49Se+nuYQX+4dNl/bHMVQe0qms90x3jG/ElnMhoadPdUOozm7Oit7Dh4N4ptePzHWlo56OowdBVXY9Zr7eJSx9iigW2dQW7qoS1Qz8zt+LH+UQY12/uxIv+Q4qo9tpuEZmXz34zlSI4MI7xwPe5ubK+q+T2BPZr7bs4X7BPoSN9xDZ0/lFSv/eJgrX1BTIiuy+WJLIaNcat5q2PjBQfr+PoWZ7/Z0m6OClS/+B164qUF3zMOgNE95EV5+wW39VaVAMwtGDRGMeGqMKjJdu3cWb9nL7+nH3F+NYcWvwNa9c4m3RjVuNBxPy/c5zDvK/9sSzcu2OTyNN/Slf9cgjm/1VPVnJaeoGLpEcMU1feCAJIu2B3wSEhIu3b0dmsFNN91EWloas2fP9npOe6sLc+Zi2Cxep9NhMpkuzv36LlW8bvR+GeC8ncV652MX536KFxfK9hUTzVFOglQ5Ntk/7JKoaWxdvG/0fjngvJ2F87GJnF8K6oWlC+NmPs7gyi+Y94eNjTeIaYd0TJ/BUyN92brYyz6AyZOZ+0AU33uxd0yfwVNjozj03rO02Q4Szdjo/aImNomXn43iyCW++bz/bc+wsP9p3nnB8z6B/rc9w6K0QHa8IxvKtxd0WjtwMaBVXZgNf39/Ro8ercnaFRUVmgpAULaI0Or6hUuQSCsRbqmr3YdX0jlQR/4xEYCNU0/3cLdOk7Z6Tlv6rHCZojRucaWKgfFQXNay7q2ty0k+W72Vc91G8au0Bkmh7Z7T6//GxlMdGT5xDA2yQjumM+P+vpRuXtVQAHZMZ8bry/h9mwtA4WLAkPIAz6cF8t0nHgSg/208s2yZCMB2yMX0zt9u0VqEtmd8fX0JCwuT7rCXEm7pkgreNrIXXPFlyqIIMtzSQZudqipcwril0qq0NFW2TTj5GfM/imLenb8ibc8f2CjhQCdOs37Jn4mZ+wATx+zhdSe1lzxqMFGHVvKspxDg6fUseUreINsn/twy4iry1/3Os8Cr/AcLHvpHm3slaI+kg6Ls05eUlKRZc5KLISVTS7S8/vZ+7wVBEARBEIT2h6SDon13Si23SDCZTAwdOlSTtW1UVVW1y3pMQRAEQRAEQdACEYEXAVqKUJ1OR2RkpCZr26irq9OsKczFUBMpCIIgCIIgCG2JiECUujCthZAgCIIgCIIgCEJbICIQMBqNmqZEailCa2trycrKavrEVsRgMNCrV6+mTxQEQRAEQRAE4bwREXgRoKUItVgsZGRkaLK2DYPBQHJyctMnCoIgCIIgCIJw3lxkfaEFoe3oPPZpZqR3xVTxA58veIMN+Vp7JAiCIAiCIAitjz74yaUAWL+dReWOSidTGqbHx2Cw772cRdWbi6mpVl8mTCJgfCq+aiyx4fhLB+lOqS319fWaNIY5tXYhT6yF/ve/yq8mjWLPGxsQHSgIgiAIgiBc7ujKFj1G2Sc78Rk0G78k22bBvfCbcgs+O2ZRtugxyhY9RuXxeEzjxqj2NEy3p1K/XbU3GH9poWV3StBWhAYEBDB+/HhN1rZRWVmpqQjfs/tHqsNiCNPMA0EQBEEQBEFoO5Q4XnY+dS5bxseiCy2jtsBqP1JXUuQYNGIQBvNeqjPUyF/2R1SfDMJwxVVt4PLlh9YiVBAEQRAEQRCE9oMiAvv3QG8+Qe2JGvXwRqxZQRjHPorBD0iYhKlvJNasjY6RpeeodWhE6kqK0HWIazPHLyTSnVIQBEEQBEEQhPaCLvjJpQSPuJLa/atcRJ31syco22TB+OhSgu/sifWLp+w1f3XHfqQ29lpH+qcqEi9VtO5OaTQaSUlJ0WRti8XC1q1bNVnbhr+/P6NHj9bOgXNnKQq+gtQe2rkgCIIgCIIgCG2FUhO46F1qe75KYPo1doN+3GKCUyqoXPoYZZvO4Df2dYc9+yOq9tVgHPs6wU8uJXiUker956gtydXoMi5tfH19SUxM1GTt2tpazp07p8naNnx8fAgICNDOgVNrWbhkFzHTl7HsxfsQLSgIgiAIgiBczqhbRBzCml2IMSoO2A0Jk/DrUo7liw+V6OCetynnYYJGDMOwaTc11VC36SXKNjlNNG4x9T9lanEN501dXZ3mQkjQkP738+qvgtk67yEWSntQQRAEQRAE4TJH3eAhDb+r3Wr+6IBvhGMbQX2XK/ApLaKuruEk+nGL8ffbfElvEaFlSqSWIlSv12sWhbRRU1NDZqbGXyCYCzkpAlAQBEEQBEFoB3jeJzD7Iyq2hBE0Yh7B16tnlu6lYsUKtW7QdQ/BuoMfUPbZ7rb2/bJBSxHq5+dHSkoKWVlZmqwPigg8dOiQZusLgiAIgiAIQntCX7boMc+WPW9TvsfbsI1UvbGRqtbyShAEQRAEQRAEQWgVdFo7cDGgeXfKdo5Op9O0MUz/a67Ar+gMRU2fKgiCIAiCIAiXPCIC0b47pZYitKKigjVr1miytg2TyaTJ9Xce+zSLly3jgQE1/O/LDUhJoCAIgiAIgtAe0Dd9itDaaC1C2yun1i7kibVaeyEIgiAIgiAIbUu7EYFhYWH2n+vq6igpKbG/vii6UwqCIAiCIAiCILQBPgkJCfVaO9Ga3HTTTaSlpbkcKyoqYsGCBRp51BC9Xk9cXJwmHTpNJhOpqamabpGh0+kwmUxUVFRo5oMgCIIgCIIgtBcu+0igTVjMnj1bY0+8Y7VaNduiQafTERkZqcnaNurq6kQACoIgCIIgCEIbIY1hAF9fX82FkCAIgiAIgiAIQlsgIhAwGo0MHTpUs/W1FKG1tbWabhT//9u729iorvyO4795HtsMZLBpXjjFFDYGXEFwZBQQlaxMpmmcCKQsq42UbYSl3UQRKGtSqy5+4d22UQm16k1GFNqEtombVZQUkWrXVUHRxKojUbCgdgQNAdLEa+PdbujEU3uwPR7PXPfFjB9jNknDzLFnvh8Jce859875++VP9zxIksvlUlVVldEaAAAAgEJBCFwCTIbQiYkJXbx40cjY01wulzZv3my0BgAAAKBQOH2NIUlS8uwhjZ8fn9MVlPfgbrkc6Tvrw3aNnun5Gv0AAAAAgKXGHmtrUOxkt2w7m+W+15VprpK7/jE5rrYr1tagWFuHUpv2qWhH0eL9J7s1tXlu//ISj8d1+vRp02UUrKmpKTaGAQAAAHIkPR104KasuQdFVD8od+kNJTqnv+yFlbgUkbMiuHj/wJtK/CI127/MmN6d0mQILS4u1t69e42MPW18fJwQDgAAAORIOgRWb5RztE+pvsnZnpGoLGv21ooOaWplmRxOye5fLdvgx5pMZH4k0KKi9Q5pZZnsjhxWnydMh1AAAAAAhcPuawzJF6hU6vJbSiUzrb3XlCzZJnfN9PTOoLy1lbItfLv6gFY0hlSyYVBjp7qVWuGXfRluNePxeFRTU2O6DAAAAADIuvSawLZXlNp0WCWP3J9pDivedV2OXUfkawzJ17hVqbPXNTUSmQ2K9wTlqxnTeKhBsROvKeX3y35r/tfD5cLhcKiiosLY+CZD6MTEhLq6uoyMPa2oqEj3Zk9HAAAOQ0lEQVR1dXVGawAAAAAKhTP93xUlB4bkWVMuKbPOr/eYbvXOPmgPtMgaPicpMzVUo5pof20mFNr9q2UbGZCVyl3x+WI6hJo4qiGVSikSieR83LlsNpuKi4uN1gAAAAAUiszkzaDcW8uU7A8v/lCgRSUbBjURng6I15RMVcj7+G59lfeXOsuyjAchAAAAAMiF25wTWCV3/dPylGYy4mBYsRMdc14LK/6ypIO75WsMLvL+8hKPx41OiTQZQp1Op8rLy9Xf329kfEmanJzURx99ZGx8AAAAoJDY1q5dO/Xljy1fO3fu1J49e9Tc3Gy6lCWpuLhYdXV1OnXqlOlSAAAAAOTAMtzLEwAAAADw/0UIFLtTmuZwOFRWVma6DAAAAKAgEAJlfndKkyF0bGzM+FRQj8ej2tpaozUAAAAAhYIQuASYDqEAAAAACgchUFIikTByRh/SlsLXSAAAAKBQEAIlJZNJo0ckmAyhXq+XqZgAAABAASEELgEmQ6jdbmdTFgAAAKCAEALF7pTGbG/WG+92qrPzZ3rpu6WmqwEAAAAKAiFQ5nenNBlCU6mUuamwF17UUw8H9Molp+579iUd+h0zZQAAAACFxO5rDMnXGFLRjqIFXUF5D6b7fI0hlTxy/xffXvukip8PyffE7pwUm69MhtCJiQnjm+K8fe5jjWuV7t7O10AAAAAg2+yxtgbFTnbLtrNZ7ntdmeYquesfk+Nqu2JtDYq1dSi1ad+8oGgPtMj3Bx4lB1JmKgcAAAAAfG3p6aADN2VNzWmtflDu0htKdPZkGsJKXIrIWRFM3659Ut6yDxQ78ZosK6f1ZkU8Htfp06dNl2GE3W7njEIAAACggKRDYPVGOUf7lOqbnO0Zic4LeFZ0SFMry+RwShp4U2P/1JHbSrPIsiyNjY0ZG9/kOXler1d1dXVGxp7x6WcaSvq0fudDYkIoAAAAkF3pNYGBSqUuv6VUMtPae03Jkm1y10xP/wzKW1spm6kqkd8uvKinHv4TnS/7gU52/iMbxAAAAABZ5Iy1NSi9BvCwSu56Q6NneiSFFe/aqBWBI/LtkqR+xd+/Luf6yGxQzCMej0dbtmwxvkFKwdrerDf+4vc11fl9BZ7qM10NAAAAkNec6f+uKDkwJM+ackmZdYC9x3Srd/ZBe6BF1vC5nBeYCw6HQxUVFcZCoMkQOjExoa6urpyPO8/6u7XaGdP1T0fM1gEAAAAUgMw5gUG5t5Yp2R9e/KFAi0o2DGoi3LNoP76Z6RBqQiqVUiQSMTI2AAAAgNxz+hpDkqTk2UMaPz+eaa6Su/5peUozGXEwrNiJuRvBBOU9uFsux+y9rzGYfu7t5bdhjGVZBCEAAAAABSGzJnChK0q8/rwSt30trPjLYcWzV1dOxeNxo1MiTYZQp9Op8vJy9ff3GxlfkravL5VLw/rswufGagAAAAAKhdN0ATAbQt1ut2pqasyEwMyGMOVOafDd7+sIe8IAAAAAWUcIhDkXXtRTD79ougoAAACgoNhNF5Arfr9/5t+qVavm9RUVFZk/MN2QqakpjY2NmS4DAAAAQI4UzJfApqammetoNKrW1taZe5vNpuLiYhNlSZKKi4tVV1enU6dO5Xzs8fFxnT59OufjAgAAADAj70PgrVu3JEnNzc2GKwEAAAAA8wpmOuhvkkgkjB0UDwAAAAC5RAiUlEwmjR6RQAgFAAAAkCt5Px10OTAXQrdo3wvP6oFSm/73P/5OLX/fo5SBKgAAAADkDl8CJTkcDpWVlZkuw4DLam85oP37/0WR6u+o/n6H6YIAAAAAZJnT1xiSJCXPHtL4+fE5XUF5D+6WK5MLrA/bNXqmZ7a7+oBWBCplkyQNa+LnLyjx8WSOyr6zPB6PamtrjezOKaVDqN/vVyQSMTK+9K+6+umj+t177FIP3wIBAACAfGaPtTUodrJbtp3Nct/ryjRXyV3/mBxX2xVra1CsrUOpTftUtKMo0x+Ut9ajiaMNirU1aLR3Up49z8nlNvVnLG/TIRQAAAAAsi09HXTgpqypOa3VD8pdekOJzukvf2ElLkXkrAjO3Mdf/okmE+k7678+Ucq6S7YKlwAAAAAAS1c6BFZvlHO0T6m+OdM5R6KyrNlbKzqkqZVlcuThVjJjY2PGpoIuFTc+j2rdxjoR4wEAAID8Zvc1huQLVCp1+S2lkpnW3mtKlmyTu2bu9M/p9X8LVckd2C7Hry4s2zWBpi2FEHq5vUV/e3O7Xj5+XH+8hygIAAAA5CtnrK1B6TWAh1Vy1xuZzV/Cindt1IrAEfl2SVK/4u9fl3N9ZDYoTv/A4z+Qx3VJYz/tyH31uGMe/aO/1u8N/4N+uJ9jIgAAAIB8lpnceUXJgSF51pRLyqwD7D2mW72zD9oDLbKGz81/+fGfqGj9oOJHX/tCOFxOPB6PtmzZUvAHtkf/5zIBEAAAAMhzmXMCg3JvLVOyP7z4Q4EWlWwY1ER49oiI2QA4u0HMcuVwOFRRUWFsfI/Ho5qaGmPjAwAAACgctzknsEru+qflKc1kxMGwYifmTPdc+6Tc6xySKuR9LiTvdPtgWLG3mRb6dU2H0EL/EgkAAAAg+zJrAhe6osTrz+u2H/gG3tTYS29msazcsizL4EHtS8Gj2rR+REP/Zn35owAAAACWtTw88OHri8fj6urqMja+uRC6RfteeFYPlNqkvjNq6GFFIAAAAJDvCIFLgLkQelntLQfUbmBkAAAAAGYUTAj0+/0z15ZlaXh42GA1AAAAAGBGwYTApqammetoNKrW1taZ++LiYtXV1Rk/sB0AAAAAsi3vQ2AsFpMkNTc3G64EAAAAAMyzmy4AAAAAAJA7hEBJiUSCM/oAAAAAFIS8nw76VSSTSfX39xsY2asHnvmx9m1bJevmv+vYn/5UHxmoAgAAAEDh4EugUXF1v9qs/fsPqTO+Q0/84WbTBQEAAADIc05fY0iSlDx7SOPnx+d0BeU9uFsuR/rO+rBdo2d6Mn1Vctc/LU/pdIYc1sTPX1Di48lc1X1HORwO+f1+Qwe2S9KIwtcHVXtPucS3QAAAAABZZI+1NSh2slu2nc1y3+vKNFfJXf+YHFfbFWtrUKytQ6lN+1S0oyjTf0WJ15/P9DUo1vmZ3Huek8tt6s/4Zjwej2pra02XAQAAAABZl/6UN3BT1tSc1uoH5S69oUTn9Je/sBKXInJWBBf/lc+jsqys1gkAAAAAuAPSIbB6o5yjfUr1zZnOOTI/2FnRIU2tLJNjka1k7N/aIMevPtZkIsvV5rHEL4c0tqFKt4nZAAAAAHBH2H2NIfkClUpdfkupZKa195qSJdvkrpme/hmUt7ZStnmvBuU9GJKvMaSSapcmes7ktPA7aWxsTKdOnTJaQ7z7Vf3Zm3E9dPy4Qj8kCgIAAADIDmesrUHpNYCHVXLXG5nNX8KKd23UisAR+XZJUr/i71+Xc31kNigqrPjLYcUlpQPhX6no/MLNZfBVrfz2IR3eOqhj+/ezNQwAAACArMlM7ryi5MCQPGvKJWXWAfYe063e2QftgRZZw+du8zNhJfsfleeuzbPv42tLDf2aAAgAAAAgqzJnPATl3lqmZH948YcCLSrZMKiJ8G0C3ton5V53S5OfXM5Smdnl8XhUU1NjugwAAAAAyLrbnBO44BzAwbBiJzrmvDb/DMF8OCewoqJCFy9eNF0KAAAAAGRVZk3gQulzAG+/2efc9YD45lYqWHmPooM/M10IAAAAgDy3yIEPhceyLEUiEQMje/XAMz/Wvm2rpMmreucIKwIBAAAAZBchUFI8HldXV5eJkdX9arO6DYwMAAAAoDAVTAj0+/0z15ZlaXh42GA1AAAAAGBGwYTApqammetoNKrW1laD1QAAAACAGXkfAqe/+DU3NxuuBAAAAADMs5suAAAAAACQO4RAAAAAACggeT8d9Musfug5Hdq7WSsSAwqHjuidPtMVAQAAAED2OH2NIUlS8uwhjZ8fn9MVlPfgbrkc6Tvrw3aNnun54i9UH9CKQKVsg2HF3u7IfsV32NB7R9X0nrTuez/SwSe+rd4j74gcCAAAACBf2WNtDYqd7JZtZ7Pc97oyzVVy1z8mx9V2xdoaFGvrUGrTPhXtKFrwelDe2ruV7P8813Xfcb84+4mG/GX6LdOFAAAAAEAWpdcEDtyUNTWntfpBuUtvKNE5/eUvrMSliJwVwXkvOx9/VK7/vqDJoSkBAAAAAJa+dAis3ijnaJ9SfZOzPSNRWdbsrRUd0tTKMjmmVxFWH5B3/aDi/9whIiAAAAAALA92X2NIvkClUpffUiqZae29pmTJNrlrpqd/BuWtrZRt5rUque/7llJn/0aTiZzXnB0jv1bUtkH3PWC6EAAAAADInvSawLZXlNp0WCWP3J9pDivedV2OXUfkawzJ17hVqbPXNTUSUSop2QN75RnvXLCRzDI39J6OHnlXnr3HdfwvnxFZEAAAAEA+ykzuvKLkwJA8a8olZdYB9h7Trd7ZB+2BFlnD5yRVybl2tVQalK9x7hrBoHyN2xU/+eeaHEhq2Vn3Pf3o4G/rP0P7dZTtQQEAAADkqUwIDMq9tUzJ8+FFH7IHWlSyYVBjr6UDYuL155VY2L/mg2V5RMQ8E0P6JQEQAAAAQB67zTmBVXLXPy1PaXrfGA2GFTuxzAMeAAAAAEDOWFvDIs1XvvC17zexOl9Q7E5WBQAAAADICrvpApaKdbs2aHU0opumCwEAAACALHJ++SP5bfVDz+nQ3s1aoZg+aH9HLAkEAAAAkM8KPgQOvXdUTe+ZrgIAAAAAcqNgQqDf75+5tixLw8PDBqsBAAAAADMKJgQ2NTXNXEejUbW2thqsBgAAAADMsK1du3bKdBEAAAAAgNxgd1AAAAAAKCD/BzTYqNNDMJ3EAAAAAElFTkSuQmCC;" parent="9x4F-eVVfo7EvnVQn5qE-1" vertex="1">
                    <mxGeometry x="160" y="-900" width="897" height="606" as="geometry"/>
                </mxCell>
                <mxCell id="9x4F-eVVfo7EvnVQn5qE-4" value="Pawn" style="whiteSpace=wrap;html=1;" parent="9x4F-eVVfo7EvnVQn5qE-1" vertex="1">
                    <mxGeometry x="570" y="-90" width="120" height="60" as="geometry"/>
                </mxCell>
                <mxCell id="9x4F-eVVfo7EvnVQn5qE-5" value="InputComponent" style="whiteSpace=wrap;html=1;" parent="9x4F-eVVfo7EvnVQn5qE-1" vertex="1">
                    <mxGeometry x="1410" y="-200" width="120" height="60" as="geometry"/>
                </mxCell>
                <mxCell id="9x4F-eVVfo7EvnVQn5qE-6" value="InputSetting" style="whiteSpace=wrap;html=1;" parent="9x4F-eVVfo7EvnVQn5qE-1" vertex="1">
                    <mxGeometry x="1241" y="-330" width="120" height="60" as="geometry"/>
                </mxCell>
                <mxCell id="9x4F-eVVfo7EvnVQn5qE-7" value="GetDefaultInputComponentClass" style="shape=step;perimeter=stepPerimeter;whiteSpace=wrap;html=1;fixedSize=1;" parent="9x4F-eVVfo7EvnVQn5qE-1" vertex="1">
                    <mxGeometry x="1410" y="-350" width="120" height="80" as="geometry"/>
                </mxCell>
                <mxCell id="9x4F-eVVfo7EvnVQn5qE-8" value="" style="shape=image;verticalLabelPosition=bottom;labelBackgroundColor=#ffffff;verticalAlign=top;aspect=fixed;imageAspect=0;image=data:image/png,iVBORw0KGgoAAAANSUhEUgAAApAAAABvCAYAAABb7vC1AAAgAElEQVR4nO3dd1RVd7bA8e+FS5EmCEjvEBRjjSX2sa0kjqPBxDqOTtqLRmdhW5bEUcdnfNE8y9NkzJiX0dEJGoWMMVHnqVGjEjH2iliwISBFQeot5973B4sb0HsJFzGA7M9aLBfn/M7vt3/nCOy7T1OFh4cbsUBRFKZNm8bKlSuxtbW11KxOBAYGPtX+hRBCNG6ZmZn4+fnVdxhCCMCmvgMQQgghhBCNiySQQgghhBDCKpJACiGEEEIIq0gCKYQQQgghrCIJpBBCiEZBbqARouGQBFIIIYQQQlhFXd8BVCgpKanvEIQQQgghRA00mATS09OzvkMQQgghhBA1IKewhRBCCCGEVSSBFEIIIYQQVpEEUgghhBBCWEUSSCGEEEIIYRVJIIUQQgghhFUkgRRCCCGEEFaRBFIIIYQQQlhFEkghhBBCCGEVSSCFEEIIIYRVGkwCqShKfYcghBBCCCFqoMEkkA8fPqzvEIQQQgghRA00mHdh5+XlYTQacXNzQ61uMGEJIYQQQohHNJhMzWg0UlRUhEajwcamwRRGhRBCNBB5eXl4enrWdxhCCBpQAung4ICDg0N9hyGEEEIIIX5Bgyn12dnZ1XcIQgghhBCiBhpMAimnrYUQQgghGgfJ2oQQQgghhFUkgRRCCCGEEFaRBFIIIYQQQlhFEkghhBBCCGEVSSCt4OXlxYIFC4iPj2f69Om17ic0NJTExMQn6uNp9CWEEEIIURMN5jmQT1tAQACrV682fa/Varly5Qrx8fGkpqbWqI9x48bRrl07du3aRWJiIjdv3iQ0NLTWMeXn53Pz5k2mTp2KSqXiX//6l9l2jo6OjB8/nu7du+Pg4EBWVha7du1i3759j/X1JPEIIYQQQtREk6tAXr16lYULF7Ju3TqCgoJYtGhRjZOuwMBAAD744APOnj1LixYt6iSmV199ldjYWO7du2d2fVxcHC+99BLHjh1jzZo1FBcXM2nSJLp161Yn4wshhBBCWOOZrECuXLmSadOmmV2Xnp7Otm3b8PT05Pz58/ztb39j1KhR/PnPf8bFxYXo6GjeeOMNgoODyc7O5h//+AenT59m1apVBAUFAXD69GlWr17NDz/8QNeuXRkzZgy+vr7k5OQQHx9PcnIy3bt3Z+bMmSQmJhIfH09ERATLli0jKSmJr7/+2hTP/v37cXV1BeDIkSO89dZb5Ofnm9YHBwfTtWtXjh49ysSJE3F3d+fo0aMkJiby4osvsmnTpirzsxQPwJAhQ/jd736Hq6srN2/eZMOGDVy5cuUX11naJ7+0nRBCCCGeTc9cBXLlypW/2Mbe3h5vb29yc3MpKioiJiaGrKws3N3dmT9/Pl5eXnz22Wfo9XpmzpyJvb09CQkJZGdnA7BkyRK+++47nJycmDlzJmq1mrVr12Jvb8+0adNQq3/Oy+/du0dmZqbp+/z8/Crfr169mtLSUsrKyli4cCHHjh1Dp9OZ1lckrceOHcPV1dVULR09ejSTJ0/m4cOHprYhISEW42nbti1vvPEG9+/f57PPPsPPz485c+ag0WiqXVfdPqluOyGEEEI8u56pCmRNksdHabVaXFxcKCkpoWfPnjg6OhIfH8/OnTtp3rw5f/zjH/Hz8+PAgQMMHTqUli1bsnnzZtzd3dHpdMydO5fk5GQKCwsJDg4mNjYWJycn9Hp9jcbfvn07cXFxqFQqvvzyS/z8/LC1tTWtt7e3B0Cn0+Hs7GxartPpiIiIICAgwLQsPz/fYjwV/Zw6dYqvvvqKK1eu4OTkRHp6Or1797a4LjY21uI+qa7P8PBwVCqV1cdDCCGEEA3fM5NA1iZ5BHBwcECr1WI0GvH29gbgzTff5M033zS18fDwoKioqEpi5+npiVqtZsiQIcybN4/c3FzTNZFqtbpKFfGXVCRaKpXKFEOFikTU3t6+SkLm7OyMoihVlun1eovxHDx4kNDQUAYPHsyoUaO4fv06//znP/Hw8CA5OZn4+Hiz66rbJ99//73FPo1GoySQQgghxDPqmTiFXdvk8bnnnsPZ2ZmUlBRUKhX3798HYNGiRURERJi+NmzYYLaiGBsbS58+fViyZAmvvPIKO3fuNK0rKioCwMnJqUaxWEq2MjIyAOjcuTNGoxEAb29vNm7cyPTp003LAP74xz9ajCcsLIyMjAxGjBjBqFGjMBgMzJ8/Hx8fH8LDwy2ue/DggcV9EhISYnE7ebe5EEII8exq9BVIa5PHwMBARo8eTXh4OC+//DKKorBixQqaNWtGUlISo0aNIi4ujqCgIJo1a0a7du1YunSpKSGszM7ODoCXX36ZTp06ERsba1p+48YN9Ho9v/vd79DpdPTq1ctiTA8ePCA4OJjZs2ezb98+tFqtad3169c5deoUPXv25C9/+QuZmZn06NEDgISEBFOCCT+f7jYXT1hYGDNnzqRdu3acP38eBwcHjEYjN27coHv37sTFxZld98MPP1jcJ506dWLKlClmt/Px8THtHyGEEEI8Wxp1mag2lceoqChmz57NsGHDuH79OuPHj+f48eP4+fmRl5fH/PnzSUtLY/To0fTv35/MzEzS09PNViC//fZbTp8+Tffu3WnTpg0bN24EIDw8nLy8PNatW4fRaGT48OEkJCRYvLlk8+bN5OTkMGbMGDQaDQaDocr65cuXs3nzZjp06MCoUaOwsbFh8eLFbN26FRcXF1O7L7/80mI8//73v/niiy94/vnn+dOf/oSiKEybNo28vDy+//57i+tyc3Mt7pO9e/da3E4IIYQQzy5VeHi40dLKioRg5cqVVa7/exrc3Nyeav8AZWVlXL582fS9SqXCyckJPz+/KolYcXExGRkZlJaWYmtri7OzMwEBAdjZ2ZGamkppaSlt27bF1tYWnU7HzZs3KSkpoVmzZri5uZGVlYWfnx8+Pj7k5uaSlZUFgL+/P+np6bi5ueHj40Nqairu7u6EhoZSUFBAeno6iqIQHR2Ng4NDldgVRSEzM5P8/HwURcHBwQEvLy+8vLwoLS019RUQEFBtPPfu3SM3Nxe9Xo+joyO+vr40b94coNp11e2T6rYTQoi6kpeXh6enZ32HIYSgiSWQQgghGi9JIIVoOBr1KWwhhBBCCPHrkwRSCCGEEEJYRRJIIYQQQghhFUkghRBCCCGEVSSBFEIIIYQQVpEEUgghhBBCWEUSSCGEEEIIYRVJIIUQQgghhFUkgRRCCCGEEFZR13cAFfz8/Oo7BCGEEA2YXq+XvxVCNBBSgRRCCCGEEFaRBFIIIYQQQlilwZzCFkIIIayh1WrJy8tDp9PVdygNnp2dHS1atMDBwaG+QxHPCEkghRBCNEp5eXnMnz+fQYMGYWMjJ9QsMRgMHD58mDlz5hAQEFDf4YhnhCSQQgghGiWdTseAAQPIy8tDUZT6DqfBsrW1pWfPnlJ9FHVKEkghhBCNllarRa/X13cYDZper0er1dZ3GOIZIwmkEEKIRstoNGI0Gus7jAbvSfeRk5MTL730Env27KG4uLiOoirn7OxMZGQk4eHheHt7k5uby7179zh//jwPHz6s07FE3ZEEUgghRKNlNBoxGAz1HUaD9yQJpJOTE3FxcQQEBLB79+46jArc3NwYPnw4np6eaLVatFotvr6+hIWF0b59e7799lvu3LlTp2OKutHkEkg3NzeWLFlCZmYmAGVlZXz77bdcuXKl2u26du3K0KFDuXz5Mv/85z+tGtPb25vp06czd+5cAHr16sXFixd58OCBxdiMRiO2tracP3+e7du3P9bHr2H16tXMnTu3Tj9tWpo7gJeXF6NHj8bd3R2DwcChQ4c4cuRIvcxdCNE4VK5A5ubm0rt3byIjIwFQFIX+/fszY8YM7ty5w5gxY0hKSnqq8cTExJCUlISHh0ed9bllyxb69u37RA9Rr20C6ezszMSJEwkICKCwsJCysrJax/AolUrFK6+8gqenJ+fOnePw4cOm/rt06UKfPn0YMmQImzZtoqioqM7GFXWjySWQUH49yIcffgiUvwFn8uTJrF27lrt371rcpnfv3iQkJHDmzJknHr93795kZmaaTaIqx2ZnZ0dcXBydOnV6Zj6BWZq7ra0tkyZNYufOnZw6dQpnZ2dmzJhBVlYWBQUF9RStEKKhq1yBNBgM2NnZ8c033wCg0WiYMGECu3fvJiYmxtTmacWhUqlMY9TlOFu2bCEiIgIfH59a91GbBNLBwYF3332XsLAwAOzt7WnTpg0ajcbU5uHDh2RnZ9cqptDQUAIDA7l48SJ79+6tsu748eM4ODjQrVs3IiMj6+Rvr6hbTTKBrCwzM5NDhw7Rp08fNm/eTLdu3Rg4cCA2NjYcOXKEAwcOMHLkSAIDAxk+fDglJSVcuXKFvn370rt3b2xtbTl79izbt28nKiqK119/nf/6r/8CYOTIkTx8+JCTJ0+axhs7diwtW7Zk/PjxfPXVV1y6dMlibDqdjhs3buDr6/tYAmlu/LfeeovMzEx27dqFWq1m6dKlrFixgrt375qdV0REBGPGjCE3N5e0tDT27NljNo6IiAheffVVsrOzCQ8PJzc3l88//5ygoCCGDBlCaWkp/v7+pKWl8eWXXxIeHm52P7Ro0cLi3ENDQ9Hr9Zw6dQqA4uJivvvuO2xtbR+Lx9zcAV599VXatm2LSqVi7969HD16tNrlQojGz2AwmG6iefRfW1tb2rVrx9WrV3nuueeqrIuPj2fr1q3o9XoGDBjAtGnTmDFjBpGRkUyaNAmtVkvfvn3ZsGED0dHR7Nixg/Xr12MwGBgxYgTjxo3j1KlT/Od//ieBgYG0b9+et99+2zTGTz/9xMqVKwkJCeHMmTMEBgayatUqLl26xKeffoqLiwvXrl2jQ4cOLFy4kDNnzrBs2TK2bdsGwJIlS/Dy8iIjI4O0tDTmzJnDvHnz6NmzZ633kzXc3NyYOHEiwcHBpmUODg5MmjSpSjuNRsOaNWu4efOm1TFFRkZiNBo5d+6c2fXnz5+nc+fO+Pr6Wt23ePqafAIJkJWVRevWrfH19WXYsGF8+OGH6PV65s2bx7lz59i6dSuhoaF88803XLlyBQcHB6Kioli2bBlGo5EFCxZw4sSJGo0VHx9PSEgIW7du5fr164+tV6lUpk+Znp6evPDCC6xfv75KG0vj//jjj7z22mvs2rWLmJgYcnNzuXv3rsV5Abi6urJixQpKSkqqjdvb25t169ZRWFhIXFwcHTp0IC8vDz8/PxYvXkxpaSlxcXG8+OKLFj+NVjd3Dw8P7t+/X2VZRTLp7e39i3M3Go107dqVefPm4ezszHvvvceJEydo2bKl2eXy4GEhng16vd5UEdNqtRiNRlJTU4HyAsG///1vFi9ejE6nw2g0otFoKC0t5dixY/zjH//AxsaG2NhYBg4cyNChQ1mxYgVvvvkmP/zwAwEBAYSGhnL58mVWrVrFli1bsLe3Z8SIEfTo0QO9Xm/6QO3q6lolDr1ez61bt1i2bBktWrRg4sSJ7Nq1i8DAQK5evcrWrVtxdXVl4sSJJCYmEhwcbIoPyk+/K4rC3LlzuXDhArNmzaJ9+/am9V26dKl2vxw/fvyx/WRNFfLtt9+ukjxa4uDgwNChQ1m9enWN+668raIoFk+L63Q6FEWp8jdANBySQFYSHR2NoigMHz4cKP/0GhAQQF5eXpV2Go2GHTt20KNHD5ycnIDyT2t1kZTY2toyYcIEAIqKikhISODq1atVfoAsjZ+SkoKDgwP+/v507NiR5OTkaudVXFzMw4cPfzF5BCgsLKSwsBAo/6Xs4eFBXl4ehYWFpmtTjh8/TmRkZK1PZ9SEpblfv36doqIixowZw4ULF/jv//5vFEUhNzfX7HIhxLNBp9OZHlFTkbjNmzcPlUqFu7s7cXFxtG3blvT0dFMbW1tb3n33XRITEyksLMRoNJKVlUXXrl0pKSkhJSWFPXv28PLLL6PVaklOTsbGxobly5cD5clYSkoK7u7upre7VH5MjlarRafT4eHhgYuLC1qtlpCQEDIzM/Hx8cHDwwNnZ2cMBgODBg3ixIkT+Pv7YzAYTP0oimJ6/I7BYKgyT4CkpCSL1cikpKTHHttj7d+na9euER4eXqO2anXtUomsrCyio6MJDAx8rIAA5UUUOzs7bt26Vav+xdMlCSTg6+trSnoyMzM5cOAAAAcOHHgseQQIDAxk8uTJ7Nixg8zMTDp16gSUnyKouAamtvR6PcuWLau2jaXxjUYjycnJdO3alZiYGBITE03bmJuXv79/reM0N0+9Xo+dnV2t9sP9+/dp0aJFlWUvvPACJSUl5ObmmpZZmrtGo+Gjjz4iKiqKTp068dvf/paPP/7Y4nKpQArxbFAUpUrlT61Ws3bt2iptNBqNqTqp0Wi4du0as2bN4p133qFVq1bs27cPnU6HTqfjpZdeYufOnSQnJzNx4kQ0Gg16vZ7Q0FBiY2MBiI2NxdfXlxs3blSpGlaouJu48rrKSWDl5SqVitLSUhRFwWAwVGlfMTej0YhWq31snP3799O/f//Hlj3armI/WVOB3LFjB82aNaN3797VttPr9Xz33Xc17reylJQU+vTpQ+fOncnIyKjyu97JyYlevXqhUqlqdXpcPH1N/t1Pfn5+9OnTh8OHD3P16lX8/f25f/8+6enpGAwGSktLH9smKCiI9PR0jh49SnZ2Ni4uLkD5HYDu7u7Y29ujVqsJCgoyO6Zer8fR0bHWMVsaH+Do0aP06dOHtLQ0U2WwpvOqDRcXF5ydnVGpVHTs2JGbN29Wux8szf3WrVuo1Wo6duwIlP/yGDx48GOfoi3NvU2bNrzzzjtcvXqVhIQE3N3dcXNzs7hcCPFsqDiFXZEkAqbvK39VTtxSUlIIDw+nf//+tGzZkvz8fHQ6HRqNhgEDBvDNN9/QunVrmjVrhkajoXXr1qSlpeHu7k5QUBCKomBnZ1fltHjFF/xcgay8rqKiqNPpyM/PJycnh9LSUg4cOEBUVBSenp5kZ2dTUFBAUVERqampprmp1WoKCgrMzqvyY3V2795ttk1FEmytr776ih9//NH0vUajYe3ataxatcr09dFHH/3iU0wsadOmDUajEQ8PD0aNGkXXrl2Jjo6mQ4cOjBw5En9/fy5cuGCqHouGpUlWINVqNR988AFQ/gOxadMm03/QnTt3Mn36dAwGA3l5eWzYsOGxT3Pnzp2jV69e/PnPf+bOnTvk5eXh6OhIQUEBBw8e5P333yc/P7/Kp6nKjh8/zh/+8Af+/ve/1+oHz9L4UF7Ju3fvnun0NUBGRobZedUFRVEYP348Pj4+pKenc+jQIbRarcX9YGnuiqKwdu1aRo8ezW9/+1sURWHv3r1cv369yul7S3M/c+YM7du3Z+HChcDPVdYHDx6YXS6EeDZUVOqAx/59tF3Fui5durBz507eeecdIiMj8fHxoaioCEVR8PT0JCAggAEDBpj6CQoKYuzYscycORMbGxt8fHyYOXMmBoMBo9H42HgV1cTK6yoeN2QwGFCr1Xz88cfcvXuXsLAwBg8ejKOjI0OHDuW9997D09MTHx8f0/Z9+/Zl+fLlzJ49m3bt2j02t4oKYHWX59T2rvD4+HgAevTogaIoXLx4sVb9PKp79+706NED+PmygkernT/++CPJycnyoPgGShUeHm7xyCiKwrRp01i5cqXZu2HrUnR09FPtv6nw9fVlypQpLFiw4Klf6xcREcHo0aNNjx0SQoin6c6dO1XOaNy+fZvNmzfX6SnOO3fuMH/+fD7//PNaX9tXnUuXLvHXv/6VTz75pM77rk5oaChvvPEGLVu2rNX27777Lm3btmXWrFk1um7+l8yYMQMoT2x37dpFRkYGLVu2xM3NjdLSUrKyssjPz3/iccTT0yQrkM+qzp07M3z4cDZv3iw3igghmoS6fBPN4cOH+fvf/86kSZOwsbF5Ks+MrKim/dpvz3nSKt66desYNmxYnSXVeXl52Nvbc/jwYdNd8xU3aorGQSqQQgghGgVzFcgvv/ySGzdu1GNUjUNYWBhvvfVWrSuQQjxKKpBCCCEaLXkXds3IdYSirkkCKYQQotGq/C5sYZnsJ1HXJIEUQgjRKNnZ2VX7QG3xsxMnTtTqUT5CWCIJpBBCiEbJ09OTL774gs8++6y+Q2nw1Go1np6e9R2GeIZIAimEEKJRsre3x8/Pr77DEKJJavJvohFCCCGEENaRBFIIIYQQQlhFEkghhBBCCGGVBnMNZHFxcX2HIIQQogHTaDTyt0KIBkIqkEIIIYQQwiqSQAohhBBCCKs0mFPYQgghhDV0Oh0FBQXodLr6DkVQ/qzJ5s2bY29vX9+hiF+BJJBCCCEapYKCAhYtWsRLL72EjY2cUKtPBoOBQ4cOMWPGDFq2bFnf4YhfgSSQQgghGiWdTsegQYPIy8tDUZT6DqdJs7W1pVevXjg6OtZ3KOJXIgmkEEKIRkur1co7nhsAvV6PVqut7zDEr0gSSCGEEI2W0WjEaDTWdxgCnvg4ODs7M2TIEHbu3ElRUVEdRVXOxcWFVq1aERkZia+vL9nZ2WRmZnL69Gny8/PrdKymQhJIIYQQjZbRaMRgMNR3GIInSyCdnZ2ZPXs2QUFB7Nixow6jgubNmzN27Fi8vb3RarVoNBr8/f2JjIzkhRdeICEhgZs3b9bpmE1Bk0sgmzdvzqpVq7h79y4AZWVlJCYmkpKSUu12PXr04PXXX+fixYt88cUXVo3ZsmVLPvjgA+Li4gDo168f586dIy8v77G2X3zxBVOnTqWwsNCqMapT3XgtW7Zk/PjxeHh4YDQa2bdvHwcPHqyzsetDbeb76DESQjQOj1YgY2JiSEpKwsPDo87G2LJlC3379sXPzw+A27dv85e//IV79+6hUqkYN24co0aNqrPx6sOjc6yN2iaQrq6uxMXFERQUxMOHDyktLa11DI9SqVTExsbi7e3NqVOn2L9/PyUlJahUKrp3787AgQN57bXX+Pzzz3n48GGdjdsUNLkEEsqv1Zg3bx4AAQEBzJgxg5UrV3Lnzh2L2/Tv35/4+HhOnDjxxOP369eP9PR0swnO02BpPFtbW6ZOncr27dv56aefcHV15f333yczM5PU1NRfJbanoTbzffDgQT1FK4R4EuYqkAaDoU6rklu2bCEiIgIfHx/0ej0TJ05kypQpvPzyyzx48IDf//73hIaG0qVLlzob89dWeY61VZsE0tHRkT/96U9EREQA4ODgQPv27SkrKzO1KSgoICsrq1YxRUZGEhwczNmzZ/nuu++qxPrjjz/i6OhIr169iI6O5vjx47Uao6lqkglkZXfv3uX7779nwIABbNiwgZ49e/LKK69gY2PDwYMH2bNnD3/4wx8IDg5m1KhRFBcXk5KSwsCBA+nXrx9qtZqTJ0+ydetWWrVqxdixY5k/fz4A48aNo6CggGPHjpnGe+ONN/D19eU//uM/2LhxI+fPnzcbV1RUFCNHjuTevXtERUWRnZ3NmjVrCAkJYfjw4ZSWlhIQEMC1a9dYv349kZGRZsf28vKyOF54eDh6vZ6ffvoJgMLCQv71r39ha2sLQM+ePRk8eDAqlYpz587x1VdfmcbJyMjgueee4+bNmxw7dowhQ4bg4ODA3/72N27evElUVJTZOPV6vcV+zc1Xq9WaPSaW9s/vf//7Ws+3MnPHF2DkyJF07NgRgN27d3Po0KFqlwshni6DwfDYTTQVP+crV64kJCSEM2fOEBgYyKpVq7h06RKffvopLi4uXLt2jQ4dOrBw4ULOnDnDsmXL2LZtGwBLlizBy8uLjIwM0tLSmDNnDvPmzaNZs2ao1WoGDhyIXq/H1dWVyZMno9Fo0Ov17Nixg/Xr12MwGOjduzfTp0839R0REcHJkydp06YNr7zyCp9//jklJSUsXbqUmJgYTp06ZTY2Ozs7i/2am6Ojo2OV9iNGjGDcuHGcOnXKbPuPPvqoyhx79uxZ62NhjebNmzN16lRCQ0NNyxwcHJg6dWqVdhqNhmXLlpGWlmZ1TNHR0RiNRk6ePGl2/alTp3jxxRefqPLaVDX5BBIgIyOD559/Hn9/f0aMGMG8efPQ6/V8+OGHnD59mk2bNhEeHs62bdtISUnB0dGRVq1asWjRIgwGA0uXLiU5OblGY61fv56wsDA2bdrE1atXq23r6+vLmjVrKCwsZNasWXTp0oXs7GwCAwP54IMPKC4uZvbs2fTq1cvip7PqxvP09CQ3N7fKsorkys/PjxEjRjB//nyKi4uZMWOGaRwvLy+WL1+OVqtl6dKlFBYWsnDhQvr378+wYcP4n//5HwCzcaamplrs19x8b9y4YfaYWNo/tZ1v5eeWWTq+RqORHj16MGPGDJydnZk+fTpHjx7F19fX7HJ5uLEQT59er0ej0VRZVnFn9q1bt1i2bBktWrRg4sSJ7Nq1i8DAQK5evcrWrVtxdXVl4sSJJCYmEhwcjNFoNPWlKAqKojB37lwuXLjArFmzaN++Pf/3f/+Hr69vlTF/85vfAJCamsqqVauIj4/Hzc2NKVOm8PXXXxMcHExGRgarV6/G0dGR2NhYmjdvzsaNG0lISODTTz9lxYoV6PV6s7F17NjRYr/m5hgTE8OqVavYsmUL9vb2jBgxgh49eljcJ4/OsWJuv1RRfbRip9frrapCTp48uUryaImDgwOvv/46y5Ytq3HflbfV6/VVKpqV6XQ6FEXB19fX6r6bOkkgKb9GAqB169YoisLo0aOB8lOeQUFB5OTkVGlfVlZGQkICffr0wcnJCSj/JFXXCUNBQYHpmoyMjAw8PDzIzs6usjw5OZnnnnuu1uV9S2JiYrhw4YJpnKNHjxITE0NWVhYFBQWmO+Tu3r3LlStXgPLrgvr37282/oo4bW1tq+330fk6OjqaPSaFhYVm29cFS8f36tWrFBUVMWHCBM6ePcvixYvR6/Xk5OSYXS6EePp0Ot1jj4/RarXodDo8PAuTg8sAAAb9SURBVDxwcXFBq9USEhJCZmYmPj4+eHh44OzsjMFgYNCgQZw4cQJ/f38MBoOpL0VRTI+mMRgMpnF0Ol2VdpUdPXqULl264OzsjKIoDBo0iKNHj+Ln54eHhwfNmjUDIDQ0lOeffx6tVktYWBhbt26tEvOjsZWVlVXb76NzfPjwITY2NixfvhwoT+xSUlJwd3c32/7ROVZISkqyWI1MSkp6bB9Y+zfwypUrREVF1aitnZ2dVX1XyMjIoE2bNoSEhDxWQADw9vbG3t6eGzdu1Kr/pkwSSMqrbffu3QPKE6I9e/YAsGfPHrP/4UJCQpg+fToJCQncvXuXrl27AuW/cCqS0bpmNBrN9q3T6bC3t6/V2Hl5eXh5eVVZ1q1bN4qLi822N9d/5QvYjUaj2dPBleO0pt+K5eaOSUBAgMX2llQ33+zsbNMyS8e3rKyMBQsWEB0dTdeuXYmNjWXRokUWl8sz0YR4+hRFMVuB1Gq1VSqKlROkystVKhWlpaUoioLBYKjSvqJvo9FounvX09OTjIyMKmMeOHAAFxcX9Hp9lXgqqpiPjlk5br1eb6qiWoqtpv1WzFGv1xMaGkpsbCwAsbGx+Pr6cuPGDbPtH51jZfv3769SGKhY9mi7irisqUAmJCTg5OREv379qm2n1+v5+uuva9xvZRcuXGDAgAG8+OKL3Llzp8rvemdnZ/r3749KpeLatWu16r8pa/LvfgoICGDAgAHs37+f1NRUAgMDycvL4/bt2xgMBkpKSh7bJjg4mNu3b3P48GHu3buHq6srALm5ubRo0QIHBwfUajUhISFmx9TpdKZPorXh6uqKi4sLKpWKzp07k5aWVu3YlsZLS0tDrVbTuXNnoPyHadiwYWg0Gi5dukSbNm1wdXXFxsaGbt26cfHixSeO09p+a3pMKqvNfCuzdHzbt2/P5MmTuXz5MvHx8bi7u9O8eXOLy4UQT19F8lXxBT9XICuSJY1GY6oo6nQ68vPzycnJobS0lAMHDhAVFYWnp6fpDE9RURGpqammvtVqNQUFBWg0GsLCwtDpdHz//fdoNBpyc3PZsGEDtra2PP/885w8eZLs7GxKS0vZt28f7du3fyyWyolb5XWWYqtpvxVzbN26NWlpabi7uxMUFISiKNjZ2Vls/+gcH/3avXu3aX/v3r3bbJuKZNhaGzdurHLNeFlZmem6zIqvBQsW/OKTUixp164dRqMRT09PJkyYQM+ePWnTpg1dunRh/PjxBAYGcvr0aW7dulWr/puyJlmBVKvVLF68GCi/OPd///d/uX37NgDbt2/n/fffx2AwkJOTw7p16x67duLMmTP85je/YcmSJdy6dYucnByaNWvGgwcP2Lt3L4sWLeLBgwePnfqukJyczNtvv83atWtr9UOhKArvvPMOvr6+3Llzx/SLzNLYlsZTFIVVq1YxYcIEYmNjURSF3bt3m64dTEhIYM6cOahUKs6fP09SUpLpTrknidOaftPT080ek+rUZr6Vr4G0dHxPnjxJp06dTNfh7N27l5ycHO7fv292uRDi6auoFFZWUU00Go2mdRVnSwwGA2q1mo8//pi7d+8SFhbG4MGDcXR0ZOjQobz33nt4enri4+Nj2r5v374sX76c2bNn065dOxYsWMAnn3zCpk2bsLW15bXXXqNVq1YAjB8/nlmzZmEwGHjhhRfo168fly9ffiyWirgrx1ldbDXt12g0EhQUxNixY5k5cyY2Njb4+Pgwc+ZMi/vE3BwfVXEHc3WvjKztne/r168HoE+fPiiKwtmzZ2vVz6P69u1L3759gfK/9ba2tgwYMKBKm4MHD3LkyBF5lmgtqMLDwy3WmxVFYdq0aaxcudLiqcm6EhgY+FT7f1ZERUUxYcIE02OIGqrGEqcQovHIzMyscrdsZmYmiYmJVj0E+tKlS/z1r3/lk08+eRohPpGGHFtNhIaGMm7cONzd3Wu1fVxcHB06dGDKlCkWL6WyRsVTSRRFYfv27dy5cwdfX1/c3d0pKSkhIyOD+/fvP/E4TVWTrEAKIYR4Nlj7JpqKa/QaYsWpIcdWE0/6KsPVq1czYsQI1Oq6SU1ycnJwcHBg//79pkul5GHhdUcqkEIIIRoFcxXIbdu2yR20DURYWBjjx4+vdQVSNC5SgRRCCNFoybuwG44nrUCKxkUSSCGEEI3Wo+/CFvVHjkXTIgmkEEKIRsnOzo4jR47Qq1ev+g5FUP5mGnkDV9MhCaQQQohGqXnz5nz22WesWbOmvkMRlD8iT65/bDokgRRCCNEo2dnZPfZ2KSHEr6PJv4lGCCGEEEJYRxJIIYQQQghhFUkghRBCCCGEVSSBFEIIIYQQVpEEUgghhBBCWEUSSCGEEEIIYRVJIIUQQgghhFUkgRRCCCGEEFb5f3BpnlPIo7ecAAAAAElFTkSuQmCC;" parent="9x4F-eVVfo7EvnVQn5qE-1" vertex="1">
                    <mxGeometry x="1130" y="-470" width="656" height="111" as="geometry"/>
                </mxCell>
                <mxCell id="9x4F-eVVfo7EvnVQn5qE-9" value="PlayerInput&lt;br&gt;" style="whiteSpace=wrap;html=1;" parent="9x4F-eVVfo7EvnVQn5qE-1" vertex="1">
                    <mxGeometry x="1080" y="-200" width="120" height="60" as="geometry"/>
                </mxCell>
                <mxCell id="9x4F-eVVfo7EvnVQn5qE-10" value="主要封装 表现层的逻辑" style="text;html=1;align=center;verticalAlign=middle;resizable=0;points=[];autosize=1;strokeColor=none;fillColor=none;" parent="9x4F-eVVfo7EvnVQn5qE-1" vertex="1">
                    <mxGeometry x="1350" y="-240" width="140" height="20" as="geometry"/>
                </mxCell>
                <mxCell id="9x4F-eVVfo7EvnVQn5qE-11" value="BindAxis" style="shape=step;perimeter=stepPerimeter;whiteSpace=wrap;html=1;fixedSize=1;" parent="9x4F-eVVfo7EvnVQn5qE-1" vertex="1">
                    <mxGeometry x="1460" y="-130" width="120" height="80" as="geometry"/>
                </mxCell>
                <mxCell id="9x4F-eVVfo7EvnVQn5qE-12" value="FInputAxisBinding" style="whiteSpace=wrap;html=1;" parent="9x4F-eVVfo7EvnVQn5qE-1" vertex="1">
                    <mxGeometry x="1620" y="-130" width="120" height="60" as="geometry"/>
                </mxCell>
                <mxCell id="9x4F-eVVfo7EvnVQn5qE-13" value="FInputBinding" style="whiteSpace=wrap;html=1;" parent="9x4F-eVVfo7EvnVQn5qE-1" vertex="1">
                    <mxGeometry x="1620" y="-220" width="120" height="60" as="geometry"/>
                </mxCell>
                <mxCell id="9x4F-eVVfo7EvnVQn5qE-14" value="FInputAxisUnifiedDelegate" style="whiteSpace=wrap;html=1;" parent="9x4F-eVVfo7EvnVQn5qE-1" vertex="1">
                    <mxGeometry x="1620" y="-30" width="120" height="60" as="geometry"/>
                </mxCell>
                <mxCell id="9x4F-eVVfo7EvnVQn5qE-15" value="SetupPlayerInputComponent" style="shape=step;perimeter=stepPerimeter;whiteSpace=wrap;html=1;fixedSize=1;" parent="9x4F-eVVfo7EvnVQn5qE-1" vertex="1">
                    <mxGeometry x="740" y="-80" width="120" height="80" as="geometry"/>
                </mxCell>
                <mxCell id="9x4F-eVVfo7EvnVQn5qE-16" value="注册逻辑事件" style="text;html=1;align=center;verticalAlign=middle;resizable=0;points=[];autosize=1;strokeColor=none;fillColor=none;" parent="9x4F-eVVfo7EvnVQn5qE-1" vertex="1">
                    <mxGeometry x="705" y="-110" width="90" height="20" as="geometry"/>
                </mxCell>
                <mxCell id="9x4F-eVVfo7EvnVQn5qE-17" value="UInputDelegateBinding" style="whiteSpace=wrap;html=1;" parent="9x4F-eVVfo7EvnVQn5qE-1" vertex="1">
                    <mxGeometry x="1830" y="-260" width="120" height="60" as="geometry"/>
                </mxCell>
                <mxCell id="9x4F-eVVfo7EvnVQn5qE-18" value="AddMovementInput" style="shape=step;perimeter=stepPerimeter;whiteSpace=wrap;html=1;fixedSize=1;" parent="9x4F-eVVfo7EvnVQn5qE-1" vertex="1">
                    <mxGeometry x="650" y="110" width="120" height="80" as="geometry"/>
                </mxCell>
                <mxCell id="9x4F-eVVfo7EvnVQn5qE-19" value="调用移动组件" style="text;html=1;align=center;verticalAlign=middle;resizable=0;points=[];autosize=1;strokeColor=none;fillColor=none;" parent="9x4F-eVVfo7EvnVQn5qE-1" vertex="1">
                    <mxGeometry x="630" y="90" width="90" height="20" as="geometry"/>
                </mxCell>
                <mxCell id="9x4F-eVVfo7EvnVQn5qE-21" value="AddInputVector" style="shape=step;perimeter=stepPerimeter;whiteSpace=wrap;html=1;fixedSize=1;" parent="9x4F-eVVfo7EvnVQn5qE-1" vertex="1">
                    <mxGeometry x="827" y="110" width="120" height="80" as="geometry"/>
                </mxCell>
                <mxCell id="9x4F-eVVfo7EvnVQn5qE-22" value="移动逐渐（看使用的到底是那个）" style="text;html=1;align=center;verticalAlign=middle;resizable=0;points=[];autosize=1;strokeColor=none;fillColor=none;" parent="9x4F-eVVfo7EvnVQn5qE-1" vertex="1">
                    <mxGeometry x="760" y="70" width="200" height="20" as="geometry"/>
                </mxCell>
                <mxCell id="9x4F-eVVfo7EvnVQn5qE-23" value="Internal_AddMovementInput" style="shape=step;perimeter=stepPerimeter;whiteSpace=wrap;html=1;fixedSize=1;" parent="9x4F-eVVfo7EvnVQn5qE-1" vertex="1">
                    <mxGeometry x="1010" y="110" width="120" height="80" as="geometry"/>
                </mxCell>
                <mxCell id="9x4F-eVVfo7EvnVQn5qE-25" value="PawnOwner" style="text;html=1;align=center;verticalAlign=middle;resizable=0;points=[];autosize=1;strokeColor=none;fillColor=none;" parent="9x4F-eVVfo7EvnVQn5qE-1" vertex="1">
                    <mxGeometry x="1000" y="70" width="80" height="20" as="geometry"/>
                </mxCell>
                <mxCell id="9x4F-eVVfo7EvnVQn5qE-26" value="更新Pawn的加速度" style="text;html=1;align=center;verticalAlign=middle;resizable=0;points=[];autosize=1;strokeColor=none;fillColor=none;" parent="9x4F-eVVfo7EvnVQn5qE-1" vertex="1">
                    <mxGeometry x="1070" y="80" width="120" height="20" as="geometry"/>
                </mxCell>
                <mxCell id="9x4F-eVVfo7EvnVQn5qE-27" value="更新这个值 ControlInputVector" style="text;html=1;align=center;verticalAlign=middle;resizable=0;points=[];autosize=1;strokeColor=none;fillColor=none;" parent="9x4F-eVVfo7EvnVQn5qE-1" vertex="1">
                    <mxGeometry x="1022" y="40" width="180" height="20" as="geometry"/>
                </mxCell>
                <mxCell id="9x4F-eVVfo7EvnVQn5qE-28" value="UCharacterMovementComponent" style="whiteSpace=wrap;html=1;" parent="9x4F-eVVfo7EvnVQn5qE-1" vertex="1">
                    <mxGeometry x="360" y="380" width="120" height="60" as="geometry"/>
                </mxCell>
                <mxCell id="9x4F-eVVfo7EvnVQn5qE-29" value="TickComponent" style="shape=step;perimeter=stepPerimeter;whiteSpace=wrap;html=1;fixedSize=1;" parent="9x4F-eVVfo7EvnVQn5qE-1" vertex="1">
                    <mxGeometry x="340" y="470" width="120" height="80" as="geometry"/>
                </mxCell>
                <mxCell id="9x4F-eVVfo7EvnVQn5qE-30" value="ConsumeInputVector" style="shape=step;perimeter=stepPerimeter;whiteSpace=wrap;html=1;fixedSize=1;" parent="9x4F-eVVfo7EvnVQn5qE-1" vertex="1">
                    <mxGeometry x="450" y="580" width="120" height="80" as="geometry"/>
                </mxCell>
                <mxCell id="9x4F-eVVfo7EvnVQn5qE-31" value="Internal_ConsumeMovementInputVector" style="shape=step;perimeter=stepPerimeter;whiteSpace=wrap;html=1;fixedSize=1;" parent="9x4F-eVVfo7EvnVQn5qE-1" vertex="1">
                    <mxGeometry x="440" y="680" width="120" height="80" as="geometry"/>
                </mxCell>
                <mxCell id="9x4F-eVVfo7EvnVQn5qE-32" value="移动组件的" style="text;html=1;align=center;verticalAlign=middle;resizable=0;points=[];autosize=1;strokeColor=none;fillColor=none;" parent="9x4F-eVVfo7EvnVQn5qE-1" vertex="1">
                    <mxGeometry x="380" y="610" width="80" height="20" as="geometry"/>
                </mxCell>
                <mxCell id="9x4F-eVVfo7EvnVQn5qE-33" value="pawn上的" style="text;html=1;align=center;verticalAlign=middle;resizable=0;points=[];autosize=1;strokeColor=none;fillColor=none;" parent="9x4F-eVVfo7EvnVQn5qE-1" vertex="1">
                    <mxGeometry x="315" y="700" width="70" height="20" as="geometry"/>
                </mxCell>
                <mxCell id="9x4F-eVVfo7EvnVQn5qE-34" value="ControlledCharacterMove" style="shape=step;perimeter=stepPerimeter;whiteSpace=wrap;html=1;fixedSize=1;" parent="9x4F-eVVfo7EvnVQn5qE-1" vertex="1">
                    <mxGeometry x="540" y="480" width="120" height="80" as="geometry"/>
                </mxCell>
                <mxCell id="9x4F-eVVfo7EvnVQn5qE-35" value="PerformMovement" style="shape=step;perimeter=stepPerimeter;whiteSpace=wrap;html=1;fixedSize=1;" parent="9x4F-eVVfo7EvnVQn5qE-1" vertex="1">
                    <mxGeometry x="740" y="480" width="120" height="80" as="geometry"/>
                </mxCell>
                <mxCell id="9x4F-eVVfo7EvnVQn5qE-36" value="PhysWalking" style="shape=step;perimeter=stepPerimeter;whiteSpace=wrap;html=1;fixedSize=1;" parent="9x4F-eVVfo7EvnVQn5qE-1" vertex="1">
                    <mxGeometry x="1075" y="420" width="120" height="80" as="geometry"/>
                </mxCell>
                <mxCell id="9x4F-eVVfo7EvnVQn5qE-37" value="StartNewPhysics" style="shape=step;perimeter=stepPerimeter;whiteSpace=wrap;html=1;fixedSize=1;" parent="9x4F-eVVfo7EvnVQn5qE-1" vertex="1">
                    <mxGeometry x="902" y="480" width="120" height="80" as="geometry"/>
                </mxCell>
                <mxCell id="9x4F-eVVfo7EvnVQn5qE-38" value="根据移动模式选择" style="text;html=1;align=center;verticalAlign=middle;resizable=0;points=[];autosize=1;strokeColor=none;fillColor=none;" parent="9x4F-eVVfo7EvnVQn5qE-1" vertex="1">
                    <mxGeometry x="912" y="450" width="110" height="20" as="geometry"/>
                </mxCell>
                <mxCell id="9x4F-eVVfo7EvnVQn5qE-39" value="函数内有分断处理" style="text;html=1;align=center;verticalAlign=middle;resizable=0;points=[];autosize=1;strokeColor=none;fillColor=none;" parent="9x4F-eVVfo7EvnVQn5qE-1" vertex="1">
                    <mxGeometry x="1085" y="320" width="110" height="20" as="geometry"/>
                </mxCell>
                <mxCell id="9x4F-eVVfo7EvnVQn5qE-40" value="Velocity" style="shape=trapezoid;perimeter=trapezoidPerimeter;whiteSpace=wrap;html=1;fixedSize=1;" parent="9x4F-eVVfo7EvnVQn5qE-1" vertex="1">
                    <mxGeometry x="930" y="340" width="120" height="60" as="geometry"/>
                </mxCell>
                <mxCell id="9x4F-eVVfo7EvnVQn5qE-44" value="MoveAlongFloor" style="shape=step;perimeter=stepPerimeter;whiteSpace=wrap;html=1;fixedSize=1;" parent="9x4F-eVVfo7EvnVQn5qE-1" vertex="1">
                    <mxGeometry x="1230" y="430" width="120" height="80" as="geometry"/>
                </mxCell>
                <mxCell id="9x4F-eVVfo7EvnVQn5qE-46" value="CalcVelocity" style="shape=step;perimeter=stepPerimeter;whiteSpace=wrap;html=1;fixedSize=1;" parent="9x4F-eVVfo7EvnVQn5qE-1" vertex="1">
                    <mxGeometry x="1121" y="230" width="120" height="80" as="geometry"/>
                </mxCell>
                <mxCell id="9x4F-eVVfo7EvnVQn5qE-47" value="计算速度的" style="text;html=1;align=center;verticalAlign=middle;resizable=0;points=[];autosize=1;strokeColor=none;fillColor=none;" parent="9x4F-eVVfo7EvnVQn5qE-1" vertex="1">
                    <mxGeometry x="1141" y="200" width="80" height="20" as="geometry"/>
                </mxCell>
                <mxCell id="9x4F-eVVfo7EvnVQn5qE-49" value="ScaleInputAcceleration" style="shape=step;perimeter=stepPerimeter;whiteSpace=wrap;html=1;fixedSize=1;" parent="9x4F-eVVfo7EvnVQn5qE-1" vertex="1">
                    <mxGeometry x="570" y="380" width="120" height="80" as="geometry"/>
                </mxCell>
                <mxCell id="9x4F-eVVfo7EvnVQn5qE-50" value="玩家输入变量转换成加速度" style="text;html=1;align=center;verticalAlign=middle;resizable=0;points=[];autosize=1;strokeColor=none;fillColor=none;" parent="9x4F-eVVfo7EvnVQn5qE-1" vertex="1">
                    <mxGeometry x="535" y="350" width="160" height="20" as="geometry"/>
                </mxCell>
                <mxCell id="9x4F-eVVfo7EvnVQn5qE-51" value="ApplyVelocityBraking" style="shape=step;perimeter=stepPerimeter;whiteSpace=wrap;html=1;fixedSize=1;" parent="9x4F-eVVfo7EvnVQn5qE-1" vertex="1">
                    <mxGeometry x="1250" y="230" width="120" height="80" as="geometry"/>
                </mxCell>
                <mxCell id="9x4F-eVVfo7EvnVQn5qE-52" value="刹车" style="text;html=1;align=center;verticalAlign=middle;resizable=0;points=[];autosize=1;strokeColor=none;fillColor=none;" parent="9x4F-eVVfo7EvnVQn5qE-1" vertex="1">
                    <mxGeometry x="1300" y="190" width="40" height="20" as="geometry"/>
                </mxCell>
                <mxCell id="LZWfWGAK2Am3quG3TTlq-0" value="SafeMoveUpdatedComponent" style="shape=step;perimeter=stepPerimeter;whiteSpace=wrap;html=1;fixedSize=1;" parent="9x4F-eVVfo7EvnVQn5qE-1" vertex="1">
                    <mxGeometry x="1590" y="430" width="120" height="80" as="geometry"/>
                </mxCell>
                <mxCell id="LZWfWGAK2Am3quG3TTlq-2" value="FloorSweepTest" style="shape=step;perimeter=stepPerimeter;whiteSpace=wrap;html=1;fixedSize=1;" parent="9x4F-eVVfo7EvnVQn5qE-1" vertex="1">
                    <mxGeometry x="575" y="920" width="120" height="80" as="geometry"/>
                </mxCell>
                <mxCell id="LZWfWGAK2Am3quG3TTlq-3" value="ComputeFloorDist" style="shape=step;perimeter=stepPerimeter;whiteSpace=wrap;html=1;fixedSize=1;" parent="9x4F-eVVfo7EvnVQn5qE-1" vertex="1">
                    <mxGeometry x="440" y="920" width="120" height="80" as="geometry"/>
                </mxCell>
                <mxCell id="LZWfWGAK2Am3quG3TTlq-4" value="FindFloor" style="shape=step;perimeter=stepPerimeter;whiteSpace=wrap;html=1;fixedSize=1;" parent="9x4F-eVVfo7EvnVQn5qE-1" vertex="1">
                    <mxGeometry x="300" y="920" width="120" height="80" as="geometry"/>
                </mxCell>
                <mxCell id="LZWfWGAK2Am3quG3TTlq-7" value="查找地面" style="text;html=1;align=center;verticalAlign=middle;resizable=0;points=[];autosize=1;strokeColor=none;fillColor=none;" parent="9x4F-eVVfo7EvnVQn5qE-1" vertex="1">
                    <mxGeometry x="260" y="880" width="60" height="20" as="geometry"/>
                </mxCell>
                <mxCell id="LZWfWGAK2Am3quG3TTlq-10" value="ComputeGroundMovementDelta" style="shape=step;perimeter=stepPerimeter;whiteSpace=wrap;html=1;fixedSize=1;" parent="9x4F-eVVfo7EvnVQn5qE-1" vertex="1">
                    <mxGeometry x="1398" y="430" width="120" height="80" as="geometry"/>
                </mxCell>
                <mxCell id="LZWfWGAK2Am3quG3TTlq-11" value="会有斜坡的计算" style="text;html=1;align=center;verticalAlign=middle;resizable=0;points=[];autosize=1;strokeColor=none;fillColor=none;" parent="9x4F-eVVfo7EvnVQn5qE-1" vertex="1">
                    <mxGeometry x="1398" y="400" width="100" height="20" as="geometry"/>
                </mxCell>
                <mxCell id="LZWfWGAK2Am3quG3TTlq-14" value="MoveUpdatedComponent" style="shape=step;perimeter=stepPerimeter;whiteSpace=wrap;html=1;fixedSize=1;" parent="9x4F-eVVfo7EvnVQn5qE-1" vertex="1">
                    <mxGeometry x="1786" y="430" width="120" height="80" as="geometry"/>
                </mxCell>
                <mxCell id="LZWfWGAK2Am3quG3TTlq-15" value="MoveComponent" style="shape=step;perimeter=stepPerimeter;whiteSpace=wrap;html=1;fixedSize=1;" parent="9x4F-eVVfo7EvnVQn5qE-1" vertex="1">
                    <mxGeometry x="1960" y="430" width="120" height="80" as="geometry"/>
                </mxCell>
                <mxCell id="LZWfWGAK2Am3quG3TTlq-16" value="UpdatedComponent" style="text;html=1;align=center;verticalAlign=middle;resizable=0;points=[];autosize=1;strokeColor=none;fillColor=none;" parent="9x4F-eVVfo7EvnVQn5qE-1" vertex="1">
                    <mxGeometry x="1920" y="420" width="120" height="20" as="geometry"/>
                </mxCell>
                <mxCell id="LZWfWGAK2Am3quG3TTlq-17" value="MoveComponentImpl" style="shape=step;perimeter=stepPerimeter;whiteSpace=wrap;html=1;fixedSize=1;" parent="9x4F-eVVfo7EvnVQn5qE-1" vertex="1">
                    <mxGeometry x="2120" y="440" width="120" height="80" as="geometry"/>
                </mxCell>
            </root>
        </mxGraphModel>
    </diagram>
</mxfile>